<svg width="671" height="671" viewBox="0 0 671 671" fill="none" xmlns="http://www.w3.org/2000/svg">
<g clip-path="url(#clip0_165_486)">
<path d="M98.2676 609.146C229.296 691.587 441.719 691.606 572.748 609.146C703.777 526.686 703.761 393.032 572.748 310.591C441.735 228.149 229.296 228.149 98.2676 310.591C-32.7611 393.032 -32.7454 526.723 98.2676 609.146Z" fill="#F0F0F0"/>
<path d="M600.567 447.71C600.567 447.71 602.209 437.765 615.533 430.08C628.496 422.546 635.971 424.298 644.869 419.985C653.767 415.672 647.371 395.405 622.976 404.408C600.63 412.658 598.363 435.957 598.363 435.957L600.567 447.71Z" fill="#03045E"/>
<path opacity="0.2" d="M600.567 447.71C600.567 447.71 602.209 437.765 615.533 430.08C628.496 422.546 635.971 424.298 644.869 419.985C653.767 415.672 647.371 395.405 622.976 404.408C600.63 412.658 598.363 435.957 598.363 435.957L600.567 447.71Z" fill="black"/>
<path d="M598.222 443.981C598.134 443.999 598.044 443.999 597.956 443.981C597.849 443.936 597.751 443.867 597.666 443.776C597.582 443.686 597.513 443.577 597.463 443.454C597.414 443.332 597.385 443.199 597.378 443.063C597.372 442.927 597.387 442.791 597.424 442.662C600.552 431.889 608.371 421.944 618.567 415.879C631.64 408.175 640.944 410.624 641.335 410.737C641.555 410.797 641.746 410.959 641.866 411.189C641.986 411.419 642.026 411.696 641.976 411.961C641.926 412.226 641.791 412.456 641.601 412.601C641.41 412.746 641.18 412.793 640.96 412.733C640.866 412.733 631.812 410.36 619.317 417.725C609.544 423.488 601.959 433.056 598.988 443.34C598.923 443.523 598.817 443.68 598.682 443.794C598.546 443.907 598.387 443.972 598.222 443.981Z" fill="#FAFAFA"/>
<path d="M598.644 435.317C598.644 435.317 600.208 429.666 606.228 418.61C616.612 399.436 633.548 391.054 640.96 380.092C648.935 368.264 635.143 360.956 622.742 365.024C615.642 367.397 609.168 375.195 605.775 380.45C598.586 391.878 594.466 405.678 593.969 420.004L598.644 435.317Z" fill="#03045E"/>
<path d="M596.314 435.769C596.089 435.759 595.876 435.643 595.721 435.445C595.566 435.248 595.481 434.985 595.485 434.714C596.21 422.272 599.149 410.163 604.102 399.21C613.484 378.924 627.402 371.711 627.996 371.409C628.194 371.353 628.402 371.384 628.583 371.495C628.764 371.606 628.907 371.791 628.985 372.017C629.064 372.242 629.074 372.494 629.013 372.728C628.952 372.962 628.825 373.162 628.653 373.293C618.858 379.199 610.806 388.589 605.587 400.189C600.762 410.851 597.898 422.639 597.19 434.752C597.188 434.888 597.163 435.022 597.118 435.147C597.073 435.271 597.008 435.384 596.927 435.479C596.846 435.573 596.75 435.647 596.644 435.697C596.539 435.747 596.427 435.771 596.314 435.769Z" fill="#FAFAFA"/>
<path d="M141.6 452.268C130.356 443.171 129.856 418.685 131.482 403.297C134.062 378.811 123.663 373.161 118.362 383.972C115.797 389.227 112.576 400.641 112.936 413.939C113.514 434.77 121.005 459.689 139.145 468.73L141.6 452.268Z" fill="#03045E"/>
<path opacity="0.2" d="M141.6 452.268C130.356 443.171 129.856 418.685 131.482 403.297C134.062 378.811 123.663 373.161 118.362 383.972C115.797 389.227 112.576 400.641 112.936 413.939C113.514 434.77 121.005 459.689 139.145 468.73L141.6 452.268Z" fill="black"/>
<path d="M139.285 467.336C139.101 467.336 138.924 467.255 138.785 467.11C119.754 447.503 116.767 412.488 122.053 388.21C122.078 388.086 122.124 387.97 122.187 387.868C122.25 387.765 122.329 387.679 122.42 387.613C122.511 387.548 122.611 387.504 122.716 387.485C122.821 387.467 122.927 387.473 123.03 387.504C123.133 387.535 123.229 387.59 123.314 387.666C123.399 387.741 123.471 387.837 123.526 387.946C123.58 388.055 123.616 388.177 123.632 388.303C123.647 388.429 123.642 388.557 123.616 388.681C118.456 412.394 121.318 446.599 139.848 465.679C139.927 465.758 139.991 465.856 140.037 465.966C140.083 466.075 140.111 466.195 140.118 466.318C140.126 466.441 140.112 466.564 140.079 466.681C140.047 466.798 139.995 466.905 139.927 466.997C139.851 467.112 139.753 467.203 139.641 467.262C139.529 467.321 139.407 467.347 139.285 467.336Z" fill="#FAFAFA"/>
<path d="M158.504 497.472C148.715 505.948 126.212 513.275 118.894 498.753C112.091 485.248 116.642 479.353 102.834 481.689C89.0256 484.024 85.8512 471.103 89.1195 460.179C92.3878 449.255 78.7829 433.452 88.7129 421.134C98.6428 408.816 104.351 434.431 110.105 437.2C115.86 439.969 119.379 433.998 126.009 438.349C132.639 442.7 133.28 460.499 139.739 460.838C150.31 461.422 168.106 461.328 169.451 472.685C170.795 484.043 158.504 497.472 158.504 497.472Z" fill="#03045E"/>
<path d="M162.554 492.5H162.476C111.263 486.058 91.4495 432.228 90.2297 424.392C90.2112 424.269 90.2132 424.142 90.2354 424.019C90.2576 423.896 90.2997 423.78 90.3592 423.677C90.4187 423.573 90.4946 423.485 90.5824 423.418C90.6702 423.35 90.7682 423.303 90.8709 423.281C90.9736 423.259 91.0789 423.261 91.1808 423.288C91.2827 423.315 91.3793 423.365 91.465 423.437C91.5506 423.509 91.6238 423.6 91.6801 423.706C91.7365 423.811 91.775 423.93 91.7935 424.053C92.982 431.757 112.388 484.325 162.664 490.635C162.767 490.647 162.867 490.683 162.958 490.742C163.049 490.8 163.13 490.88 163.195 490.976C163.26 491.073 163.309 491.184 163.339 491.303C163.369 491.422 163.378 491.547 163.367 491.671C163.341 491.906 163.243 492.12 163.093 492.273C162.943 492.426 162.751 492.507 162.554 492.5Z" fill="#FAFAFA"/>
<path d="M106.556 468.391C103.324 468.391 100.097 468.076 96.907 467.449C96.7042 467.403 96.5246 467.263 96.4074 467.058C96.2902 466.854 96.245 466.601 96.2815 466.357C96.2984 466.235 96.3355 466.118 96.3906 466.013C96.4457 465.909 96.5178 465.819 96.6024 465.748C96.687 465.678 96.7825 465.629 96.8832 465.604C96.9839 465.579 97.0877 465.579 97.1885 465.603C103.029 466.762 108.987 466.762 114.828 465.603C115.033 465.553 115.246 465.602 115.422 465.739C115.597 465.877 115.721 466.092 115.766 466.338C115.787 466.459 115.787 466.584 115.768 466.705C115.748 466.827 115.709 466.943 115.652 467.046C115.596 467.149 115.523 467.238 115.438 467.307C115.353 467.376 115.257 467.425 115.156 467.449C112.324 468.118 109.442 468.434 106.556 468.391Z" fill="#FAFAFA"/>
<path d="M121.834 474.023H121.662C121.461 473.969 121.287 473.822 121.175 473.614C121.064 473.406 121.025 473.154 121.067 472.911C122.647 464.524 123.022 455.873 122.178 447.333C122.144 447.084 122.195 446.828 122.318 446.623C122.441 446.418 122.627 446.281 122.834 446.241C123.042 446.201 123.254 446.262 123.424 446.41C123.594 446.559 123.708 446.782 123.741 447.032C124.648 455.833 124.267 464.758 122.616 473.401C122.558 473.593 122.451 473.757 122.31 473.869C122.169 473.981 122.002 474.035 121.834 474.023Z" fill="#FAFAFA"/>
<path d="M25.99 400.321L50.5412 383.256C51.7226 382.541 53.0267 382.168 54.349 382.168C55.6714 382.168 56.9754 382.541 58.1568 383.256L61.2844 385.422C62.3958 386.291 63.3209 387.464 63.9841 388.845C64.6472 390.227 65.0296 391.777 65.1 393.371V427.5C65.0271 429.093 64.6437 430.642 63.9808 432.023C63.3179 433.404 62.3941 434.578 61.2844 435.448L36.7487 452.513C35.5673 453.229 34.2633 453.601 32.9409 453.601C31.6186 453.601 30.3146 453.229 29.1331 452.513L26.0056 450.347C24.897 449.476 23.975 448.303 23.3146 446.921C22.6542 445.54 22.2742 443.99 22.2056 442.399V408.269C22.2762 406.68 22.6553 405.133 23.3126 403.753C23.9699 402.372 24.8869 401.197 25.99 400.321Z" fill="#03045E"/>
<path opacity="0.5" d="M25.99 400.321L50.5412 383.256C51.7226 382.541 53.0267 382.168 54.349 382.168C55.6714 382.168 56.9754 382.541 58.1568 383.256L61.2844 385.422C62.3958 386.291 63.3209 387.464 63.9841 388.845C64.6472 390.227 65.0296 391.777 65.1 393.371V427.5C65.0271 429.093 64.6437 430.642 63.9808 432.023C63.3179 433.404 62.3941 434.578 61.2844 435.448L36.7487 452.513C35.5673 453.229 34.2633 453.601 32.9409 453.601C31.6186 453.601 30.3146 453.229 29.1331 452.513L26.0056 450.347C24.897 449.476 23.975 448.303 23.3146 446.921C22.6542 445.54 22.2742 443.99 22.2056 442.399V408.269C22.2762 406.68 22.6553 405.133 23.3126 403.753C23.9699 402.372 24.8869 401.197 25.99 400.321Z" fill="#FAFAFA"/>
<path d="M65.0686 393.371C65.0686 390.433 63.3641 389.246 61.253 390.715L36.7174 407.78C35.6077 408.65 34.6839 409.824 34.021 411.205C33.358 412.586 32.9746 414.135 32.9018 415.728V449.857C32.9018 452.777 34.6063 453.963 36.7174 452.513L61.253 435.448C62.3628 434.578 63.2865 433.404 63.9495 432.023C64.6124 430.642 64.9958 429.093 65.0686 427.5V393.371Z" fill="#03045E"/>
<path d="M22.1899 442.399C22.2537 443.997 22.6314 445.554 23.292 446.943C23.9526 448.331 24.8772 449.51 25.9899 450.385L29.1175 452.551C30.1905 453.2 31.3655 453.567 32.565 453.629C33.7645 453.69 34.9613 453.445 36.0763 452.909C34.2779 453.737 32.9487 452.513 32.9487 449.895V415.728C32.9903 414.129 33.3784 412.57 34.0746 411.208L23.3471 403.674C22.6649 405.043 22.2828 406.598 22.2369 408.194L22.1899 442.399Z" fill="#03045E"/>
<path opacity="0.1" d="M22.1899 442.399C22.2537 443.997 22.6314 445.554 23.292 446.943C23.9526 448.331 24.8772 449.51 25.9899 450.385L29.1175 452.551C30.1905 453.2 31.3655 453.567 32.565 453.629C33.7645 453.69 34.9613 453.445 36.0763 452.909C34.2779 453.737 32.9487 452.513 32.9487 449.895V415.728C32.9903 414.129 33.3784 412.57 34.0746 411.208L23.3471 403.674C22.6649 405.043 22.2828 406.598 22.2369 408.194L22.1899 442.399Z" fill="black"/>
<path d="M38.594 418.064L59.4704 403.504C60.0177 403.109 60.4712 403.504 60.4712 404.201V421.153C60.4532 421.577 60.3534 421.99 60.1797 422.359C60.0059 422.729 59.7631 423.044 59.4704 423.281L38.594 437.953C38.031 438.349 37.5775 437.953 37.5775 437.238V420.286C37.585 419.844 37.6814 419.411 37.8584 419.024C38.0355 418.637 38.2879 418.307 38.594 418.064Z" fill="#FAFAFA"/>
<path d="M37.5775 418.779L50.0408 423.658L60.4712 402.788L50.3848 425.409L37.5775 418.779Z" fill="#E0E0E0"/>
<path d="M25.9899 314.188L50.5412 297.124C51.7204 296.399 53.0253 296.022 54.349 296.022C55.6727 296.022 56.9775 296.399 58.1568 297.124L61.2843 299.29C62.3908 300.161 63.3105 301.335 63.9682 302.717C64.6259 304.098 65.003 305.647 65.0686 307.238V341.367C64.9984 342.958 64.6159 344.506 63.9526 345.885C63.2893 347.263 62.3642 348.432 61.253 349.297L36.7174 366.361C35.5382 367.086 34.2333 367.463 32.9096 367.463C31.5859 367.463 30.281 367.086 29.1018 366.361L25.9743 364.214C24.865 363.333 23.9442 362.148 23.2866 360.757C22.629 359.366 22.2533 357.808 22.1899 356.209V322.137C22.2622 320.546 22.6438 318.998 23.3038 317.617C23.9639 316.236 24.8839 315.062 25.9899 314.188Z" fill="#03045E"/>
<path opacity="0.5" d="M25.9899 314.188L50.5412 297.124C51.7204 296.399 53.0253 296.022 54.349 296.022C55.6727 296.022 56.9775 296.399 58.1568 297.124L61.2843 299.29C62.3908 300.161 63.3105 301.335 63.9682 302.717C64.6259 304.098 65.003 305.647 65.0686 307.238V341.367C64.9984 342.958 64.6159 344.506 63.9526 345.885C63.2893 347.263 62.3642 348.432 61.253 349.297L36.7174 366.361C35.5382 367.086 34.2333 367.463 32.9096 367.463C31.5859 367.463 30.281 367.086 29.1018 366.361L25.9743 364.214C24.865 363.333 23.9442 362.148 23.2866 360.757C22.629 359.366 22.2533 357.808 22.1899 356.209V322.137C22.2622 320.546 22.6438 318.998 23.3038 317.617C23.9639 316.236 24.8839 315.062 25.9899 314.188Z" fill="#FAFAFA"/>
<path d="M65.0686 307.238C65.0686 304.3 63.3641 303.113 61.253 304.582L36.7174 321.647C35.6059 322.515 34.6808 323.688 34.0177 325.07C33.3545 326.451 32.9721 328.002 32.9018 329.595V363.743C32.9018 366.663 34.6063 367.849 36.7174 366.38L61.253 349.316C62.3642 348.451 63.2893 347.282 63.9526 345.904C64.6159 344.525 64.9983 342.977 65.0686 341.386V307.238Z" fill="#03045E"/>
<path d="M22.1899 356.209C22.2622 357.8 22.6438 359.348 23.3038 360.729C23.9639 362.109 24.8839 363.284 25.9899 364.158L29.1175 366.305C30.1881 366.961 31.3629 367.335 32.563 367.399C33.7632 367.464 34.9611 367.22 36.0763 366.682C34.2779 367.491 32.9487 366.286 32.9487 363.668V329.595C32.9903 327.996 33.3784 326.438 34.0746 325.075L23.3471 317.541C22.6649 318.91 22.2828 320.465 22.2369 322.061L22.1899 356.209Z" fill="#03045E"/>
<path opacity="0.1" d="M22.1899 356.209C22.2622 357.8 22.6438 359.348 23.3038 360.729C23.9639 362.109 24.8839 363.284 25.9899 364.158L29.1175 366.305C30.1881 366.961 31.3629 367.335 32.563 367.399C33.7632 367.464 34.9611 367.22 36.0763 366.682C34.2779 367.491 32.9487 366.286 32.9487 363.668V329.595C32.9903 327.996 33.3784 326.438 34.0746 325.075L23.3471 317.541C22.6649 318.91 22.2828 320.465 22.2369 322.061L22.1899 356.209Z" fill="black"/>
<path d="M48.7428 348.675L46.2095 348.336C42.7692 347.997 38.6721 346.453 38.6721 340.444C38.7712 338.263 39.2958 336.14 40.2032 334.249C41.1107 332.357 42.3755 330.75 43.8951 329.558C46.147 327.994 48.0548 328.635 48.7897 330.895C49.5307 327.542 51.2738 324.638 53.6844 322.739C56.5773 320.743 58.9074 322.363 58.9074 326.374C58.9074 332.176 54.8416 339.559 51.4169 344.663L48.7428 348.675Z" fill="#FAFAFA"/>
<path d="M25.99 228.131L50.5412 211.066C51.7204 210.342 53.0253 209.964 54.349 209.964C55.6727 209.964 56.9776 210.342 58.1568 211.066L61.2844 213.232C62.3955 214.096 63.3207 215.266 63.984 216.644C64.6472 218.023 65.0297 219.571 65.1 221.162V255.291C65.0309 256.885 64.649 258.436 63.9858 259.818C63.3225 261.199 62.3967 262.372 61.2844 263.239L36.7487 280.304C35.5695 281.028 34.2646 281.406 32.9409 281.406C31.6172 281.406 30.3124 281.028 29.1331 280.304L26.0056 278.157C24.8996 277.283 23.9796 276.108 23.3195 274.728C22.6595 273.347 22.2779 271.799 22.2056 270.208V236.022C22.2834 234.443 22.6659 232.907 23.3228 231.537C23.9798 230.167 24.893 229.001 25.99 228.131Z" fill="#03045E"/>
<path opacity="0.5" d="M25.99 228.131L50.5412 211.066C51.7204 210.342 53.0253 209.964 54.349 209.964C55.6727 209.964 56.9776 210.342 58.1568 211.066L61.2844 213.232C62.3955 214.096 63.3207 215.266 63.984 216.644C64.6472 218.023 65.0297 219.571 65.1 221.162V255.291C65.0309 256.885 64.649 258.436 63.9858 259.818C63.3225 261.199 62.3967 262.372 61.2844 263.239L36.7487 280.304C35.5695 281.028 34.2646 281.406 32.9409 281.406C31.6172 281.406 30.3124 281.028 29.1331 280.304L26.0056 278.157C24.8996 277.283 23.9796 276.108 23.3195 274.728C22.6595 273.347 22.2779 271.799 22.2056 270.208V236.022C22.2834 234.443 22.6659 232.907 23.3228 231.537C23.9798 230.167 24.893 229.001 25.99 228.131Z" fill="#FAFAFA"/>
<path d="M36.7174 280.247C34.6063 281.716 32.9018 280.53 32.9018 277.61V243.481C32.9709 241.887 33.3527 240.336 34.016 238.954C34.6793 237.573 35.6051 236.4 36.7174 235.533L61.253 218.468C63.3641 216.999 65.0686 218.186 65.0686 221.105V255.234C64.9995 256.828 64.6177 258.38 63.9544 259.761C63.2911 261.143 62.3654 262.315 61.253 263.183" fill="#03045E"/>
<path d="M22.1899 270.152C22.2622 271.742 22.6438 273.29 23.3038 274.671C23.9639 276.052 24.8839 277.226 25.9899 278.1L29.1175 280.247C30.1881 280.904 31.3629 281.277 32.563 281.342C33.7632 281.407 34.9611 281.162 36.0763 280.624C34.2779 281.434 32.9487 280.228 32.9487 277.61V243.481C32.9903 241.882 33.3784 240.324 34.0746 238.961L23.3471 231.427C22.6649 232.796 22.2828 234.351 22.2369 235.947L22.1899 270.152Z" fill="#03045E"/>
<path opacity="0.1" d="M22.1899 270.152C22.2622 271.742 22.6438 273.29 23.3038 274.671C23.9639 276.052 24.8839 277.226 25.9899 278.1L29.1175 280.247C30.1881 280.904 31.3629 281.277 32.563 281.342C33.7632 281.407 34.9611 281.162 36.0763 280.624C34.2779 281.434 32.9487 280.228 32.9487 277.61V243.481C32.9903 241.882 33.3784 240.324 34.0746 238.961L23.3471 231.427C22.6649 232.796 22.2828 234.351 22.2369 235.947L22.1899 270.152Z" fill="black"/>
<path d="M44.505 248.849C44.505 248.849 47.3667 240.901 47.6326 239.752C47.7746 237.784 47.7746 235.805 47.6326 233.838C47.6326 233.084 50.2441 230.956 51.0885 233.141C51.9008 235.465 52.0547 238.046 51.5264 240.486L57.8909 236.023C59.2358 235.081 59.7831 236.399 59.7987 237.454C59.7551 238.657 59.3935 239.812 58.7666 240.75C58.7666 240.75 60.0489 240.298 60.0489 242.351C60.0108 243.073 59.8528 243.779 59.5842 244.426C59.3155 245.073 58.9418 245.648 58.4851 246.118C58.4851 246.118 58.8917 246.495 58.9074 248.002C58.7188 249.479 58.084 250.82 57.1247 251.769C57.336 252.363 57.4322 253.007 57.4062 253.652C57.3275 254.554 57.0761 255.421 56.6717 256.186C56.2674 256.951 55.7212 257.592 55.0761 258.06L44.6457 265.424L44.505 248.849Z" fill="#FAFAFA"/>
<path d="M38.4689 271.941L43.0507 268.72L42.9882 249.508L38.3907 252.729L38.4689 271.941Z" fill="#FAFAFA"/>
<path d="M12.5569 127.288L50.1813 101.126C51.9888 100.02 53.9872 99.4445 56.0142 99.4445C58.0412 99.4445 60.0397 100.02 61.8471 101.126L66.5384 104.422C68.2416 105.754 69.6592 107.553 70.6756 109.67C71.692 111.788 72.2784 114.165 72.3869 116.608V168.932C72.27 171.362 71.6796 173.725 70.6635 175.829C69.6474 177.933 68.2343 179.719 66.5384 181.043L29.0078 207.261C27.1976 208.367 25.1967 208.943 23.1671 208.943C21.1376 208.943 19.1366 208.367 17.3264 207.261L12.6351 203.965C10.9366 202.628 9.52332 200.829 8.50994 198.711C7.49655 196.594 6.91152 194.219 6.80225 191.779V139.455C6.90273 137.026 7.4759 134.659 8.47551 132.545C9.47513 130.432 10.8732 128.631 12.5569 127.288Z" fill="#03045E"/>
<path opacity="0.1" d="M12.5569 127.288L50.1813 101.126C51.9888 100.02 53.9872 99.4445 56.0142 99.4445C58.0412 99.4445 60.0397 100.02 61.8471 101.126L66.5384 104.422C68.2416 105.754 69.6592 107.553 70.6756 109.67C71.692 111.788 72.2784 114.165 72.3869 116.608V168.932C72.27 171.362 71.6796 173.725 70.6635 175.829C69.6474 177.933 68.2343 179.719 66.5384 181.043L29.0078 207.261C27.1976 208.367 25.1967 208.943 23.1671 208.943C21.1376 208.943 19.1366 208.367 17.3264 207.261L12.6351 203.965C10.9366 202.628 9.52332 200.829 8.50994 198.711C7.49655 196.594 6.91152 194.219 6.80225 191.779V139.455C6.90273 137.026 7.4759 134.659 8.47551 132.545C9.47513 130.432 10.8732 128.631 12.5569 127.288Z" fill="black"/>
<path d="M72.4497 116.288C72.4497 113.67 71.3863 107.153 65.8037 111.278C60.221 115.403 32.7924 134.068 29.008 136.78C26.382 138.516 24.3085 141.252 23.1126 144.559L26.0994 148.176L72.4497 116.288Z" fill="#03045E"/>
<path opacity="0.2" d="M72.4497 116.288C72.4497 113.67 71.3863 107.153 65.8037 111.278C60.221 115.403 32.7924 134.068 29.008 136.78C26.382 138.516 24.3085 141.252 23.1126 144.559L26.0994 148.176L72.4497 116.288Z" fill="black"/>
<path d="M29.008 207.261C25.771 209.503 23.1595 207.695 23.1595 203.212V150.907C23.2656 148.461 23.8508 146.08 24.8673 143.959C25.8838 141.837 27.3027 140.036 29.008 138.702L66.5386 112.54C69.7756 110.298 72.3871 112.125 72.3871 116.608V168.932C72.2702 171.362 71.6797 173.725 70.6637 175.829C69.6476 177.933 68.2344 179.719 66.5386 181.043" fill="#03045E"/>
<path opacity="0.1" d="M29.008 207.261C25.771 209.503 23.1595 207.695 23.1595 203.212V150.907C23.2656 148.461 23.8508 146.08 24.8673 143.959C25.8838 141.837 27.3027 140.036 29.008 138.702L66.5386 112.54C69.7756 110.298 72.3871 112.125 72.3871 116.608V168.932C72.2702 171.362 71.6797 173.725 70.6637 175.829C69.6476 177.933 68.2344 179.719 66.5386 181.043" fill="black"/>
<path d="M6.72423 191.779C6.83351 194.219 7.41854 196.594 8.43192 198.711C9.44531 200.829 10.8585 202.629 12.5571 203.965L17.2484 207.261C18.8942 208.26 20.6972 208.827 22.5384 208.924C24.3795 209.022 26.2169 208.648 27.929 207.826C25.1768 209.088 23.0813 207.224 23.0813 203.212V150.907C23.1525 148.457 23.7448 146.07 24.8015 143.976L8.3662 132.543C7.31376 134.639 6.72677 137.026 6.66168 139.474L6.72423 191.779Z" fill="#03045E"/>
<path opacity="0.2" d="M6.72423 191.779C6.83351 194.219 7.41854 196.594 8.43192 198.711C9.44531 200.829 10.8585 202.629 12.5571 203.965L17.2484 207.261C18.8942 208.26 20.6972 208.827 22.5384 208.924C24.3795 209.022 26.2169 208.648 27.929 207.826C25.1768 209.088 23.0813 207.224 23.0813 203.212V150.907C23.1525 148.457 23.7448 146.07 24.8015 143.976L8.3662 132.543C7.31376 134.639 6.72677 137.026 6.66168 139.474L6.72423 191.779Z" fill="black"/>
<path d="M48.9305 132.599L53.8095 142.958L64.7559 137.571C65.788 137.063 66.2102 138.532 65.4596 140.077L57.5625 156.275L59.4234 170.1C59.5954 171.418 58.5164 173.245 57.5938 173.226L47.7733 172.868L37.9997 186.806C37.0771 188.125 35.9981 187.786 36.1701 186.222L38.0623 169.742L30.2434 164.524C29.4928 164.035 29.915 161.982 30.9471 161.059L41.8935 151.265L46.7725 134.106C47.1321 132.542 48.4614 131.62 48.9305 132.599Z" fill="#FAFAFA"/>
<path d="M577.893 371.616C559.128 382.371 528.79 382.371 510.056 371.616C491.322 360.861 491.291 343.364 510.056 332.684C528.822 322.005 559.159 321.929 577.893 332.684C596.627 343.439 596.564 360.861 577.893 371.616Z" fill="#E0E0E0"/>
<path d="M151.295 496.474C151.462 499.213 152.162 501.866 153.339 504.219C154.515 506.572 156.134 508.558 158.066 510.017L347.799 641.862C349.897 643.144 352.217 643.813 354.57 643.813C356.923 643.813 359.243 643.144 361.341 641.862L620.928 461.328C622.974 460.027 624.687 458.079 625.881 455.692C627.076 453.306 627.707 450.572 627.707 447.785C627.707 444.999 627.076 442.265 625.881 439.879C624.687 437.492 622.974 435.544 620.928 434.243L431.211 302.397C429.112 301.115 426.793 300.447 424.44 300.447C422.087 300.447 419.767 301.115 417.669 302.397L158.082 482.932C156.147 484.388 154.525 486.374 153.345 488.726C152.166 491.079 151.464 493.733 151.295 496.474Z" fill="#37474F"/>
<path d="M229.578 433.207L158.066 482.932C156.02 484.232 154.308 486.181 153.113 488.567C151.918 490.954 151.287 493.688 151.287 496.474C151.287 499.261 151.918 501.995 153.113 504.381C154.308 506.767 156.02 508.716 158.066 510.017L347.799 641.862C349.886 643.175 352.217 643.823 354.57 643.746V433.207H229.578Z" fill="#263238"/>
<path d="M144.946 483.214C143.058 481.675 141.499 479.621 140.396 477.218C139.293 474.816 138.676 472.133 138.597 469.389V196.676C138.722 193.845 139.4 191.09 140.577 188.635C141.754 186.18 143.395 184.095 145.368 182.55L404.955 2.10957C406.914 0.629222 409.172 -0.180091 411.484 -0.231407C413.797 -0.282723 416.077 0.425904 418.081 1.81832C420.084 3.21074 421.735 5.23431 422.855 7.67164C423.975 10.109 424.523 12.8679 424.44 15.652V288.271C424.314 291.101 423.635 293.856 422.458 296.311C421.282 298.765 419.641 300.851 417.668 302.397L158.082 482.932C156.066 484.221 153.825 484.919 151.542 484.968C149.26 485.017 147 484.416 144.946 483.214Z" fill="#455A64"/>
<path d="M170.358 209.295L140.646 188.577C139.432 191.006 138.754 193.768 138.675 196.601V469.389C138.594 472.17 139.142 474.926 140.262 477.36C141.381 479.795 143.03 481.816 145.031 483.208C147.032 484.6 149.309 485.31 151.619 485.261C153.93 485.212 156.185 484.407 158.144 482.932L187.747 462.345L170.358 209.295Z" fill="#263238"/>
<path d="M151.295 205.528V478.223C151.295 483.421 154.329 485.531 158.066 482.932L417.653 302.397C419.625 300.851 421.266 298.765 422.443 296.311C423.619 293.856 424.298 291.101 424.424 288.271V15.5766C424.424 10.3781 421.39 8.26859 417.653 10.8678L158.066 191.383C156.095 192.935 154.454 195.024 153.278 197.482C152.102 199.939 151.422 202.696 151.295 205.528Z" fill="#37474F"/>
<path d="M158.066 492.349L347.799 624.289C349.897 625.571 352.217 626.24 354.57 626.24C356.923 626.24 359.243 625.571 361.341 624.289L620.928 443.755C624.681 441.155 624.681 436.936 620.928 434.337L431.211 302.397C429.112 301.115 426.793 300.447 424.44 300.447C422.087 300.447 419.767 301.115 417.668 302.397L158.082 482.932C154.329 485.531 154.329 489.75 158.066 492.349Z" fill="#455A64"/>
<path d="M161.71 206.527L414.025 31.0779C416.261 29.5146 418.091 30.7766 418.091 33.9032V269.963C418.012 271.661 417.603 273.313 416.897 274.785C416.19 276.257 415.207 277.509 414.025 278.439L161.71 453.888C159.458 455.451 157.644 454.189 157.644 451.063V214.946C157.726 213.257 158.137 211.615 158.844 210.153C159.55 208.69 160.532 207.448 161.71 206.527Z" fill="#FAFAFA"/>
<path d="M180.084 485.286L421.046 317.654C422.096 317.013 423.255 316.68 424.432 316.68C425.608 316.68 426.768 317.013 427.817 317.654L440.156 326.224C440.564 326.391 440.919 326.708 441.17 327.13C441.421 327.552 441.556 328.059 441.556 328.578C441.556 329.098 441.421 329.604 441.17 330.026C440.919 330.449 440.564 330.766 440.156 330.933L199.147 498.546C198.097 499.186 196.937 499.52 195.761 499.52C194.585 499.52 193.425 499.186 192.375 498.546L180.084 489.938C179.692 489.76 179.354 489.442 179.115 489.026C178.877 488.611 178.749 488.117 178.749 487.612C178.749 487.107 178.877 486.614 179.115 486.198C179.354 485.783 179.692 485.464 180.084 485.286Z" fill="#263238"/>
<path d="M211.844 507.38L452.806 339.747C453.856 339.107 455.016 338.773 456.192 338.773C457.368 338.773 458.528 339.107 459.578 339.747L535.389 392.486C535.798 392.653 536.153 392.969 536.404 393.392C536.655 393.814 536.79 394.32 536.79 394.84C536.79 395.36 536.655 395.866 536.404 396.288C536.153 396.711 535.798 397.027 535.389 397.194L294.709 564.563C293.657 565.204 292.494 565.537 291.315 565.537C290.137 565.537 288.974 565.204 287.922 564.563L211.86 512.051C211.455 511.887 211.102 511.574 210.852 511.156C210.602 510.738 210.466 510.237 210.464 509.722C210.463 509.207 210.595 508.704 210.842 508.284C211.09 507.864 211.44 507.548 211.844 507.38Z" fill="#263238"/>
<path d="M427.849 415.201L435.402 409.946C435.714 409.72 435.699 409.343 435.402 409.117L426.676 403.052C426.49 402.937 426.283 402.876 426.074 402.876C425.864 402.876 425.658 402.937 425.472 403.052L417.934 408.307C417.606 408.514 417.622 408.891 417.934 409.136L426.66 415.201C426.844 415.313 427.048 415.372 427.254 415.372C427.461 415.372 427.664 415.313 427.849 415.201ZM412.962 394.35L405.424 399.53C405.096 399.756 405.111 400.133 405.424 400.378L414.15 406.442C414.337 406.554 414.543 406.612 414.752 406.612C414.961 406.612 415.167 406.554 415.354 406.442L422.907 401.187C423.22 400.961 423.204 400.585 422.907 400.359L414.181 394.275C413.987 394.172 413.776 394.125 413.564 394.139C413.352 394.152 413.146 394.224 412.962 394.35ZM388.582 411.302L375.822 420.249C375.493 420.475 375.525 420.851 375.822 421.096L384.548 427.161C384.735 427.272 384.941 427.33 385.15 427.33C385.359 427.33 385.565 427.272 385.752 427.161L398.512 418.29C398.825 418.064 398.809 417.687 398.512 417.461L389.786 411.377C389.604 411.254 389.4 411.183 389.192 411.17C388.983 411.157 388.774 411.202 388.582 411.302ZM401.937 402.016L394.384 407.271C394.071 407.478 394.087 407.855 394.384 408.1L403.11 414.165C403.296 414.28 403.502 414.341 403.712 414.341C403.921 414.341 404.128 414.28 404.314 414.165L411.851 408.91C412.18 408.684 412.164 408.307 411.851 408.081L403.125 402.016C402.941 401.904 402.738 401.845 402.531 401.845C402.325 401.845 402.121 401.904 401.937 402.016ZM372.335 422.603L364.797 427.783C364.469 428.009 364.5 428.385 364.797 428.63L373.523 434.695C373.709 434.811 373.916 434.871 374.125 434.871C374.335 434.871 374.541 434.811 374.727 434.695L382.28 429.459C382.593 429.233 382.577 428.856 382.28 428.63L373.554 422.546C373.361 422.441 373.151 422.391 372.939 422.401C372.727 422.411 372.52 422.48 372.335 422.603ZM361.31 430.269L353.773 435.505C353.444 435.731 353.46 436.108 353.773 436.353L362.499 442.417C362.686 442.529 362.892 442.587 363.101 442.587C363.309 442.587 363.515 442.529 363.703 442.417L371.256 437.163C371.568 436.936 371.553 436.56 371.256 436.334L362.53 430.25C362.339 430.139 362.13 430.082 361.918 430.086C361.706 430.089 361.498 430.152 361.31 430.269ZM395.635 454.943L403.172 449.688C403.485 449.462 403.469 449.085 403.172 448.859L394.4 442.851C394.213 442.735 394.007 442.675 393.797 442.675C393.588 442.675 393.382 442.735 393.195 442.851L385.658 448.106C385.33 448.313 385.361 448.69 385.658 448.934L394.384 454.999C394.58 455.116 394.797 455.172 395.015 455.162C395.234 455.152 395.447 455.077 395.635 454.943ZM384.595 462.609L392.148 457.354C392.46 457.128 392.445 456.77 392.148 456.525L383.375 450.385C383.189 450.269 382.982 450.209 382.773 450.209C382.563 450.209 382.357 450.269 382.171 450.385L374.602 455.677C374.274 455.885 374.305 456.261 374.602 456.506L383.328 462.571C383.519 462.705 383.736 462.779 383.957 462.786C384.179 462.793 384.398 462.732 384.595 462.609ZM373.57 470.275L381.123 465.02C381.436 464.812 381.42 464.436 381.123 464.191L372.397 458.126C372.211 458.01 372.005 457.95 371.795 457.95C371.586 457.95 371.379 458.01 371.193 458.126L363.656 463.343C363.327 463.569 363.343 463.946 363.656 464.172L372.382 470.237C372.563 470.355 372.766 470.42 372.972 470.427C373.179 470.433 373.383 470.381 373.57 470.275ZM362.624 477.94L370.177 472.685C370.489 472.478 370.474 472.102 370.177 471.857L361.451 465.792C361.265 465.676 361.058 465.616 360.849 465.616C360.639 465.616 360.433 465.676 360.247 465.792L352.584 471.103C352.256 471.329 352.271 471.706 352.584 471.932L361.31 477.997C361.504 478.11 361.718 478.165 361.934 478.155C362.149 478.145 362.359 478.071 362.545 477.94H362.624ZM416.824 422.867L424.361 417.612C424.69 417.386 424.674 417.028 424.361 416.783L415.636 410.718C415.449 410.602 415.243 410.542 415.034 410.542C414.824 410.542 414.618 410.602 414.431 410.718L406.894 415.973C406.566 416.199 406.581 416.557 406.894 416.802L415.62 422.867C415.806 422.982 416.013 423.043 416.222 423.043C416.431 423.043 416.638 422.982 416.824 422.867ZM406.659 447.352L423.486 435.637C423.798 435.411 423.783 435.034 423.486 434.808L402.297 420.079C402.11 419.963 401.904 419.903 401.695 419.903C401.485 419.903 401.279 419.963 401.092 420.079L392.398 426.125C392.069 426.351 392.085 426.728 392.398 426.973L403.626 434.77C403.97 435.015 403.985 435.392 403.626 435.599L396.667 440.459C396.354 440.666 396.37 441.043 396.667 441.287L405.393 447.352C405.593 447.465 405.813 447.516 406.034 447.503C406.255 447.49 406.469 447.412 406.659 447.277V447.352ZM350.285 437.935L342.748 443.19C342.42 443.397 342.435 443.774 342.748 444.018L351.474 450.083C351.661 450.195 351.867 450.253 352.076 450.253C352.285 450.253 352.491 450.195 352.678 450.083L360.231 444.828C360.544 444.602 360.528 444.226 360.231 444L351.505 437.935C351.317 437.816 351.108 437.754 350.895 437.754C350.683 437.754 350.474 437.816 350.285 437.935ZM339.339 445.601L331.786 450.856C331.473 451.082 331.489 451.439 331.786 451.684L340.512 457.749C340.698 457.865 340.904 457.925 341.114 457.925C341.323 457.925 341.53 457.865 341.716 457.749L349.253 452.494C349.582 452.268 349.566 451.892 349.253 451.665L340.527 445.601C340.333 445.472 340.116 445.405 339.894 445.405C339.673 445.405 339.455 445.472 339.261 445.601H339.339ZM284.232 531.583C284.418 531.698 284.624 531.759 284.834 531.759C285.043 531.759 285.25 531.698 285.436 531.583L292.989 526.328C293.301 526.102 293.286 525.725 292.989 525.499L284.263 519.434C284.077 519.319 283.87 519.258 283.661 519.258C283.451 519.258 283.245 519.319 283.059 519.434L275.521 524.689C275.193 524.915 275.209 525.273 275.521 525.518L284.232 531.583ZM251.064 506.89L243.511 512.145C243.198 512.352 243.214 512.729 243.511 512.974L252.237 519.039C252.424 519.15 252.63 519.208 252.839 519.208C253.048 519.208 253.254 519.15 253.441 519.039L260.978 513.784C261.307 513.558 261.291 513.181 260.978 512.955L252.252 506.89C252.068 506.777 251.865 506.719 251.658 506.719C251.452 506.719 251.248 506.777 251.064 506.89ZM268.813 524.877C268.999 524.993 269.205 525.053 269.415 525.053C269.624 525.053 269.831 524.993 270.017 524.877L277.554 519.623C277.883 519.397 277.851 519.039 277.554 518.794L268.844 512.729C268.658 512.613 268.451 512.553 268.242 512.553C268.033 512.553 267.826 512.613 267.64 512.729L260.087 517.984C259.774 518.21 259.79 518.568 260.087 518.813L268.813 524.877ZM303.638 536.179L311.191 530.924C311.504 530.698 311.488 530.321 311.191 530.095L302.465 524.011C302.278 523.9 302.072 523.842 301.863 523.842C301.654 523.842 301.448 523.9 301.261 524.011L293.724 529.266C293.395 529.473 293.411 529.85 293.724 530.095L302.45 536.16C302.626 536.284 302.823 536.357 303.027 536.374C303.23 536.39 303.434 536.349 303.622 536.254L303.638 536.179ZM291.409 543.807C291.595 543.922 291.802 543.983 292.011 543.983C292.221 543.983 292.427 543.922 292.613 543.807L300.166 538.552C300.479 538.326 300.464 537.949 300.166 537.723L291.441 531.658C291.254 531.542 291.048 531.482 290.839 531.482C290.629 531.482 290.423 531.542 290.236 531.658L282.637 537.026C282.308 537.233 282.324 537.61 282.637 537.855L291.409 543.807ZM262.01 499.356L254.457 504.592C254.145 504.818 254.16 505.195 254.457 505.44L263.183 511.505C263.37 511.616 263.576 511.674 263.785 511.674C263.994 511.674 264.2 511.616 264.387 511.505L271.925 506.25C272.253 506.024 272.237 505.647 271.925 505.421L263.277 499.356C263.082 499.232 262.864 499.168 262.644 499.168C262.423 499.168 262.206 499.232 262.01 499.356ZM317.212 460.932L309.659 466.187C309.346 466.413 309.361 466.79 309.659 467.016L318.384 473.081C318.571 473.197 318.777 473.257 318.986 473.257C319.196 473.257 319.402 473.197 319.589 473.081L327.126 467.826C327.454 467.619 327.423 467.242 327.126 466.997L318.416 460.932C318.228 460.821 318.022 460.763 317.814 460.763C317.605 460.763 317.399 460.821 317.212 460.932ZM273.097 491.615L265.56 496.851C265.232 497.077 265.247 497.454 265.56 497.698L274.286 503.763C274.473 503.875 274.679 503.933 274.888 503.933C275.097 503.933 275.303 503.875 275.49 503.763L283.043 498.527C283.356 498.301 283.34 497.924 283.043 497.68L274.317 491.615C274.128 491.5 273.919 491.441 273.707 491.441C273.496 491.441 273.287 491.5 273.097 491.615ZM328.236 453.266L320.683 458.521C320.37 458.748 320.386 459.105 320.683 459.35L329.409 465.415C329.595 465.531 329.802 465.591 330.011 465.591C330.221 465.591 330.427 465.531 330.613 465.415L338.151 460.16C338.479 459.934 338.463 459.576 338.151 459.331L329.425 453.266C329.241 453.154 329.037 453.095 328.83 453.095C328.624 453.095 328.42 453.154 328.236 453.266ZM306.171 468.598L298.634 473.853C298.306 474.079 298.337 474.456 298.634 474.682L307.36 480.766C307.547 480.877 307.753 480.935 307.962 480.935C308.171 480.935 308.377 480.877 308.564 480.766L316.101 475.53C316.43 475.304 316.398 474.927 316.101 474.682L307.36 468.636C307.177 468.522 306.975 468.459 306.769 468.452C306.563 468.446 306.359 468.496 306.171 468.598ZM295.147 476.283L287.609 481.519C287.281 481.745 287.312 482.122 287.609 482.348L296.413 488.432C296.598 488.543 296.801 488.601 297.008 488.601C297.214 488.601 297.417 488.543 297.602 488.432L305.155 483.195C305.468 482.969 305.452 482.593 305.155 482.348L296.413 476.302C296.221 476.17 296.004 476.1 295.782 476.096C295.561 476.093 295.342 476.157 295.147 476.283ZM284.122 483.949L276.585 489.185C276.256 489.411 276.288 489.788 276.585 490.033L285.311 496.097C285.498 496.209 285.704 496.267 285.913 496.267C286.121 496.267 286.327 496.209 286.515 496.097L294.068 490.861C294.38 490.635 294.365 490.259 294.068 490.014L285.342 483.949C285.153 483.835 284.944 483.775 284.732 483.775C284.52 483.775 284.311 483.835 284.122 483.949ZM340.496 493.272L348.018 488.055C348.346 487.829 348.331 487.452 348.018 487.207L339.292 481.142C339.106 481.027 338.899 480.966 338.69 480.966C338.481 480.966 338.274 481.027 338.088 481.142L330.535 486.379C330.222 486.605 330.238 486.981 330.535 487.226L339.261 493.291C339.453 493.406 339.666 493.464 339.88 493.46C340.095 493.457 340.306 493.393 340.496 493.272ZM437.341 377.399L429.788 382.578C429.475 382.786 429.491 383.162 429.788 383.407L438.514 389.472C438.701 389.583 438.907 389.641 439.116 389.641C439.324 389.641 439.53 389.583 439.718 389.472L447.255 384.217C447.583 383.991 447.568 383.614 447.255 383.388L438.529 377.323C438.34 377.222 438.134 377.177 437.928 377.19C437.721 377.203 437.52 377.274 437.341 377.399ZM423.986 386.684L416.449 391.996C416.12 392.222 416.136 392.599 416.449 392.844L425.159 398.908C425.345 399.024 425.552 399.084 425.761 399.084C425.97 399.084 426.177 399.024 426.363 398.908L433.916 393.672C434.229 393.446 434.213 393.07 433.916 392.844L425.19 386.76C425.008 386.637 424.804 386.566 424.595 386.553C424.387 386.54 424.178 386.585 423.986 386.684ZM448.365 369.733L440.812 375.044C440.5 375.27 440.515 375.647 440.812 375.892L449.538 381.957C449.725 382.068 449.931 382.126 450.14 382.126C450.349 382.126 450.555 382.068 450.742 381.957L458.28 376.702C458.608 376.476 458.592 376.099 458.28 375.873L449.554 369.789C449.372 369.672 449.171 369.606 448.965 369.596C448.759 369.587 448.554 369.633 448.365 369.733ZM391.288 440.628L398.841 435.317C399.153 435.091 399.138 434.714 398.841 434.488L390.115 428.423C389.929 428.307 389.722 428.247 389.513 428.247C389.303 428.247 389.097 428.307 388.911 428.423L381.358 433.659C381.045 433.885 381.061 434.262 381.358 434.507L390.083 440.572C390.267 440.692 390.471 440.759 390.68 440.769C390.889 440.779 391.097 440.731 391.288 440.628ZM460.61 362.086C460.422 361.975 460.216 361.917 460.008 361.917C459.799 361.917 459.593 361.975 459.406 362.086L451.868 367.322C451.54 367.548 451.555 367.925 451.868 368.17L460.594 374.234C460.78 374.35 460.987 374.41 461.196 374.41C461.406 374.41 461.612 374.35 461.798 374.234L469.351 368.998C469.664 368.772 469.648 368.396 469.351 368.151L460.61 362.086ZM351.521 485.606L359.058 480.37C359.387 480.144 359.371 479.767 359.058 479.523L350.332 473.458C350.145 473.346 349.939 473.289 349.73 473.289C349.521 473.289 349.315 473.346 349.128 473.458L341.544 478.637C341.231 478.863 341.247 479.24 341.544 479.466L350.27 485.55C350.459 485.679 350.672 485.752 350.89 485.762C351.107 485.772 351.324 485.718 351.521 485.606ZM486.74 391.582L494.293 386.327C494.606 386.101 494.591 385.724 494.293 385.498L485.568 379.433C485.381 379.317 485.175 379.257 484.966 379.257C484.756 379.257 484.55 379.317 484.363 379.433L476.81 384.688C476.498 384.895 476.513 385.272 476.81 385.517L485.536 391.582C485.722 391.697 485.929 391.758 486.138 391.758C486.348 391.758 486.554 391.697 486.74 391.582ZM463.284 390.583L470.821 385.328C471.15 385.102 471.134 384.726 470.821 384.5L462.095 378.435C461.909 378.319 461.703 378.259 461.493 378.259C461.284 378.259 461.077 378.319 460.891 378.435L453.338 383.69C453.025 383.897 453.041 384.274 453.338 384.518L462.064 390.583C462.248 390.696 462.452 390.754 462.658 390.754C462.865 390.754 463.068 390.696 463.253 390.583H463.284ZM473.12 370.75C472.933 370.639 472.727 370.581 472.518 370.581C472.309 370.581 472.103 370.639 471.916 370.75L464.378 376.005C464.05 376.212 464.066 376.589 464.378 376.834L473.104 382.899C473.292 383.01 473.498 383.068 473.706 383.068C473.915 383.068 474.121 383.01 474.308 382.899L481.861 377.644C482.174 377.418 482.159 377.041 481.861 376.815L473.12 370.75ZM475.434 369.149L496.577 383.878C496.764 383.989 496.97 384.047 497.179 384.047C497.387 384.047 497.593 383.989 497.781 383.878L505.334 378.623C505.646 378.397 505.631 378.02 505.334 377.794L484.066 363.084C483.879 362.973 483.673 362.915 483.464 362.915C483.255 362.915 483.05 362.973 482.862 363.084L475.325 368.32C475.012 368.527 475.028 368.904 475.372 369.149H475.434ZM449.867 386.101L442.314 391.356C442.001 391.563 442.016 391.939 442.314 392.184L451.039 398.249C451.226 398.365 451.432 398.425 451.642 398.425C451.851 398.425 452.057 398.365 452.244 398.249L459.781 392.994C460.109 392.768 460.094 392.391 459.781 392.165L451.055 386.101C450.866 385.969 450.652 385.897 450.434 385.891C450.215 385.884 449.999 385.943 449.804 386.063L449.867 386.101ZM366.783 443.774L359.23 449.029C358.917 449.255 358.933 449.612 359.23 449.857L367.956 455.922C368.142 456.038 368.349 456.098 368.558 456.098C368.768 456.098 368.974 456.038 369.16 455.922L376.698 450.667C377.026 450.441 377.01 450.083 376.698 449.838L367.972 443.774C367.788 443.661 367.584 443.602 367.377 443.602C367.171 443.602 366.967 443.661 366.783 443.774ZM474.48 399.21C474.667 399.325 474.873 399.386 475.082 399.386C475.292 399.386 475.498 399.325 475.685 399.21L483.222 393.955C483.55 393.729 483.535 393.371 483.222 393.126L474.496 387.061C474.31 386.946 474.103 386.885 473.894 386.885C473.685 386.885 473.478 386.946 473.292 387.061L465.739 392.316C465.426 392.542 465.442 392.9 465.739 393.145L474.48 399.21ZM377.808 436.108L370.255 441.363C369.942 441.57 369.958 441.947 370.255 442.191L378.981 448.256C379.167 448.372 379.373 448.432 379.583 448.432C379.792 448.432 379.999 448.372 380.185 448.256L387.722 443.001C388.051 442.775 388.035 442.399 387.722 442.173L378.996 436.108C378.816 436.001 378.618 435.946 378.418 435.946C378.217 435.946 378.019 436.001 377.839 436.108H377.808ZM295.178 523.842C295.365 523.953 295.571 524.011 295.78 524.011C295.989 524.011 296.195 523.953 296.382 523.842L303.935 518.587C304.248 518.361 304.232 517.984 303.935 517.758L295.209 511.693C295.023 511.577 294.817 511.517 294.607 511.517C294.398 511.517 294.191 511.577 294.005 511.693L286.468 516.948C286.139 517.155 286.155 517.532 286.468 517.777L295.178 523.842ZM278.602 505.006L271.049 510.261C270.736 510.469 270.752 510.845 271.049 511.09L279.775 517.155C279.962 517.266 280.168 517.324 280.377 517.324C280.586 517.324 280.792 517.266 280.979 517.155L288.516 511.9C288.845 511.674 288.829 511.297 288.516 511.071L279.79 505.006C279.599 504.911 279.392 504.872 279.185 504.891C278.978 504.911 278.779 504.989 278.602 505.119V505.006ZM307.36 516.308L314.913 511.053C315.226 510.827 315.21 510.45 314.913 510.224L306.187 504.159C306.001 504.043 305.794 503.983 305.585 503.983C305.375 503.983 305.169 504.043 304.983 504.159L297.445 509.395C297.117 509.621 297.148 509.998 297.445 510.243L306.171 516.308C306.356 516.419 306.559 516.476 306.766 516.476C306.972 516.476 307.175 516.419 307.36 516.308ZM318.4 508.642L325.937 503.387C326.266 503.161 326.235 502.784 325.937 502.539L317.212 496.474C317.024 496.363 316.818 496.305 316.61 496.305C316.401 496.305 316.195 496.363 316.007 496.474L308.47 501.71C308.157 501.936 308.173 502.313 308.47 502.558L317.196 508.623C317.389 508.743 317.604 508.806 317.821 508.806C318.039 508.806 318.254 508.743 318.447 508.623L318.4 508.642ZM329.346 500.957L336.884 495.721C337.212 495.495 337.181 495.118 336.884 494.873L328.174 488.808C327.986 488.697 327.78 488.639 327.572 488.639C327.363 488.639 327.157 488.697 326.97 488.808L319.417 494.044C319.104 494.27 319.119 494.647 319.417 494.892L328.142 500.957C328.347 501.091 328.576 501.16 328.809 501.156C329.042 501.153 329.27 501.078 329.472 500.938L329.346 500.957ZM289.627 497.472L282.074 502.709C281.761 502.935 281.776 503.311 282.074 503.556L290.799 509.621C290.987 509.732 291.193 509.79 291.401 509.79C291.61 509.79 291.816 509.732 292.004 509.621L299.541 504.366C299.869 504.14 299.854 503.763 299.541 503.537L290.831 497.472C290.643 497.361 290.437 497.303 290.229 497.303C290.02 497.303 289.814 497.361 289.627 497.472ZM300.651 489.807L293.098 495.043C292.785 495.269 292.801 495.645 293.098 495.89L301.824 501.955C302.01 502.071 302.217 502.131 302.426 502.131C302.636 502.131 302.842 502.071 303.028 501.955L310.581 496.719C310.894 496.493 310.878 496.116 310.581 495.871L301.855 489.807C301.669 489.692 301.464 489.631 301.255 489.628C301.046 489.625 300.84 489.679 300.651 489.788V489.807ZM344.765 459.124L337.212 464.379C336.884 464.605 336.915 464.982 337.212 465.208L345.938 471.273C346.124 471.388 346.331 471.449 346.54 471.449C346.75 471.449 346.956 471.388 347.142 471.273L354.68 466.018C355.008 465.811 354.977 465.434 354.68 465.189L345.954 459.124C345.77 459.01 345.568 458.949 345.361 458.946C345.155 458.943 344.951 458.997 344.765 459.105V459.124ZM333.725 466.809L326.125 472.026C325.797 472.252 325.828 472.629 326.125 472.855L334.835 478.939C335.023 479.05 335.229 479.108 335.437 479.108C335.646 479.108 335.852 479.05 336.039 478.939L343.592 473.703C343.905 473.477 343.89 473.1 343.592 472.855L334.867 466.79C334.689 466.687 334.493 466.633 334.296 466.633C334.098 466.633 333.903 466.687 333.725 466.79V466.809ZM355.837 451.439L348.284 456.694C347.971 456.921 347.987 457.297 348.284 457.523L357.01 463.588C357.196 463.704 357.402 463.764 357.612 463.764C357.821 463.764 358.028 463.704 358.214 463.588L365.751 458.333C366.08 458.126 366.048 457.749 365.751 457.504L357.041 451.439C356.855 451.324 356.648 451.264 356.439 451.264C356.229 451.264 356.023 451.324 355.837 451.439ZM311.723 482.122L304.185 487.358C303.857 487.584 303.873 487.961 304.185 488.206L312.911 494.27C313.098 494.382 313.304 494.44 313.513 494.44C313.722 494.44 313.928 494.382 314.115 494.27L321.668 489.034C321.981 488.808 321.965 488.432 321.668 488.187L312.942 482.122C312.747 481.998 312.53 481.933 312.309 481.933C312.088 481.933 311.871 481.998 311.676 482.122H311.723ZM322.747 474.456L315.179 479.692C314.85 479.918 314.866 480.295 315.179 480.54L323.905 486.605C324.092 486.716 324.298 486.774 324.507 486.774C324.715 486.774 324.921 486.716 325.109 486.605L332.662 481.368C332.974 481.142 332.959 480.766 332.662 480.521L323.936 474.456C323.746 474.334 323.534 474.27 323.318 474.27C323.103 474.27 322.891 474.334 322.7 474.456H322.747ZM314.694 528.588L322.247 523.333C322.56 523.107 322.544 522.73 322.247 522.504L313.521 516.421C313.334 516.309 313.128 516.251 312.919 516.251C312.71 516.251 312.504 516.309 312.317 516.421L304.78 521.657C304.451 521.883 304.482 522.259 304.78 522.504L313.49 528.569C313.67 528.675 313.867 528.731 314.067 528.734C314.267 528.737 314.465 528.688 314.647 528.588H314.694ZM250.001 520.715L241.275 514.65C241.089 514.534 240.882 514.474 240.673 514.474C240.463 514.474 240.257 514.534 240.071 514.65L232.518 519.905C232.205 520.112 232.22 520.489 232.518 520.734L241.243 526.799C241.43 526.914 241.636 526.975 241.845 526.975C242.055 526.975 242.261 526.914 242.448 526.799L249.985 521.544C250.313 521.318 250.282 520.941 249.954 520.715H250.001ZM266.514 526.554L257.788 520.489C257.602 520.373 257.396 520.313 257.186 520.313C256.977 520.313 256.77 520.373 256.584 520.489L244.981 528.569C244.668 528.795 244.684 529.153 244.981 529.398L253.707 535.463C253.893 535.578 254.099 535.639 254.309 535.639C254.518 535.639 254.725 535.578 254.911 535.463L266.514 527.383C266.842 527.157 266.811 526.799 266.467 526.554H266.514ZM236.615 508.981L227.889 502.916C227.703 502.8 227.496 502.74 227.287 502.74C227.077 502.74 226.871 502.8 226.685 502.916L217.396 509.376C217.067 509.602 217.099 509.979 217.396 510.224L226.122 516.289C226.309 516.4 226.515 516.458 226.724 516.458C226.933 516.458 227.139 516.4 227.326 516.289L236.599 509.828C236.99 509.602 236.99 509.226 236.568 508.981H236.615ZM243.73 504.027C243.916 504.143 244.122 504.203 244.332 504.203C244.541 504.203 244.748 504.143 244.934 504.027L252.471 498.772C252.8 498.546 252.784 498.188 252.471 497.943L243.745 491.878C243.559 491.763 243.353 491.702 243.143 491.702C242.934 491.702 242.728 491.763 242.541 491.878L234.988 497.133C234.676 497.359 234.691 497.717 234.988 497.962L243.73 504.027ZM281.839 533.259L273.113 527.194C272.927 527.079 272.721 527.018 272.511 527.018C272.302 527.018 272.095 527.079 271.909 527.194L257.397 537.29C257.084 537.516 257.1 537.893 257.397 538.119L266.123 544.183C266.309 544.299 266.516 544.359 266.725 544.359C266.935 544.359 267.141 544.299 267.327 544.183L281.839 534.088C282.199 533.805 282.183 533.447 281.839 533.259ZM289.079 545.558L280.353 539.494C280.167 539.378 279.961 539.318 279.751 539.318C279.542 539.318 279.335 539.378 279.149 539.494L269.829 545.86C269.516 546.086 269.532 546.463 269.829 546.689L278.555 552.772C278.742 552.884 278.948 552.941 279.157 552.941C279.366 552.941 279.572 552.884 279.759 552.772L289.048 546.312C289.439 546.105 289.423 545.747 289.079 545.502V545.558ZM325.672 447.07C325.855 447.185 326.059 447.246 326.266 447.246C326.473 447.246 326.677 447.185 326.86 447.07L334.413 441.815C334.726 441.608 334.71 441.231 334.413 440.986L325.687 434.921C325.501 434.806 325.295 434.745 325.085 434.745C324.876 434.745 324.669 434.806 324.483 434.921L316.946 440.176C316.617 440.402 316.649 440.779 316.946 441.005L325.672 447.07ZM303.607 462.42C303.794 462.532 304 462.59 304.209 462.59C304.418 462.59 304.624 462.532 304.811 462.42L312.364 457.165C312.677 456.958 312.661 456.581 312.364 456.337L303.638 450.272C303.451 450.16 303.245 450.103 303.036 450.103C302.827 450.103 302.621 450.16 302.434 450.272L294.85 455.451C294.521 455.677 294.537 456.054 294.85 456.28L303.607 462.42ZM254.708 496.418C254.895 496.529 255.101 496.587 255.31 496.587C255.518 496.587 255.724 496.529 255.912 496.418L263.449 491.163C263.777 490.937 263.762 490.56 263.449 490.334L254.692 484.288C254.506 484.172 254.299 484.112 254.09 484.112C253.88 484.112 253.674 484.172 253.488 484.288L245.935 489.543C245.622 489.75 245.638 490.127 245.935 490.372L254.708 496.418ZM314.631 454.736C314.818 454.851 315.024 454.912 315.233 454.912C315.443 454.912 315.649 454.851 315.835 454.736L323.388 449.481C323.701 449.273 323.686 448.897 323.388 448.652L314.663 442.587C314.476 442.471 314.27 442.411 314.061 442.411C313.851 442.411 313.645 442.471 313.459 442.587L305.921 447.842C305.593 448.068 305.624 448.445 305.921 448.671L314.631 454.736ZM292.582 470.086C292.769 470.198 292.975 470.255 293.184 470.255C293.393 470.255 293.599 470.198 293.786 470.086L301.339 464.85C301.652 464.624 301.636 464.247 301.339 464.003L292.566 457.919C292.38 457.803 292.174 457.743 291.964 457.743C291.755 457.743 291.549 457.803 291.362 457.919L283.903 463.117C283.575 463.343 283.59 463.72 283.903 463.965L292.582 470.086ZM295.131 546.444C294.945 546.328 294.738 546.268 294.529 546.268C294.32 546.268 294.113 546.328 293.927 546.444L282.339 554.524C282.027 554.75 282.042 555.127 282.339 555.371L291.097 561.512C291.284 561.623 291.49 561.681 291.699 561.681C291.907 561.681 292.113 561.623 292.301 561.512L303.904 553.45C304.217 553.224 304.201 552.848 303.904 552.603L295.131 546.444ZM276.757 480.992C276.943 481.107 277.149 481.168 277.359 481.168C277.568 481.168 277.775 481.107 277.961 480.992L285.467 475.812C285.78 475.586 285.764 475.209 285.467 474.964L276.741 468.9C276.554 468.788 276.348 468.73 276.139 468.73C275.93 468.73 275.724 468.788 275.537 468.9L268 474.136C267.671 474.362 267.687 474.738 268 474.983L276.757 480.992ZM265.732 488.658C265.919 488.769 266.125 488.827 266.334 488.827C266.543 488.827 266.749 488.769 266.936 488.658L274.489 483.403C274.802 483.177 274.786 482.8 274.489 482.574L265.763 476.509C265.577 476.393 265.371 476.333 265.161 476.333C264.952 476.333 264.745 476.393 264.559 476.509L257.006 481.745C256.694 481.971 256.709 482.348 257.006 482.593L265.732 488.658ZM499.423 404.427C499.235 404.316 499.029 404.258 498.821 404.258C498.612 404.258 498.406 404.316 498.218 404.427L479.641 417.348C479.328 417.574 479.344 417.951 479.641 418.177L488.367 424.26C488.554 424.372 488.76 424.43 488.969 424.43C489.178 424.43 489.384 424.372 489.571 424.26L508.133 411.34C508.461 411.132 508.446 410.756 508.133 410.511L499.423 404.427ZM475.043 421.379C474.857 421.263 474.651 421.203 474.441 421.203C474.232 421.203 474.025 421.263 473.839 421.379L466.302 426.634C465.974 426.86 465.989 427.236 466.302 427.462L475.028 433.527C475.214 433.643 475.42 433.703 475.63 433.703C475.839 433.703 476.046 433.643 476.232 433.527L483.785 428.272C484.098 428.065 484.082 427.688 483.785 427.444L475.043 421.379ZM325.687 520.903L333.225 515.667C333.537 515.441 333.522 515.064 333.225 514.82L324.452 508.773C324.265 508.662 324.059 508.604 323.85 508.604C323.641 508.604 323.435 508.662 323.248 508.773L315.71 514.01C315.382 514.236 315.413 514.612 315.71 514.857L324.436 520.922C324.63 521.045 324.845 521.107 325.064 521.104C325.282 521.1 325.496 521.031 325.687 520.903ZM452.994 436.71C452.808 436.595 452.602 436.534 452.392 436.534C452.183 436.534 451.976 436.595 451.79 436.71L444.237 441.947C443.924 442.173 443.94 442.549 444.237 442.794L452.963 448.859C453.15 448.97 453.356 449.028 453.565 449.028C453.774 449.028 453.98 448.97 454.167 448.859L461.704 443.623C462.033 443.397 462.017 443.02 461.704 442.775L452.994 436.71ZM510.447 396.761C510.261 396.646 510.055 396.585 509.845 396.585C509.636 396.585 509.429 396.646 509.243 396.761L501.69 402.016C501.377 402.242 501.393 402.619 501.69 402.845L510.416 408.91C510.602 409.026 510.809 409.086 511.018 409.086C511.227 409.086 511.434 409.026 511.62 408.91L519.157 403.655C519.486 403.448 519.47 403.071 519.157 402.826L510.447 396.761ZM530.198 395.16L509.087 380.431C508.901 380.316 508.694 380.255 508.485 380.255C508.275 380.255 508.069 380.316 507.883 380.431L500.345 385.686C500.017 385.893 500.033 386.27 500.345 386.515L521.534 401.244C521.721 401.36 521.927 401.42 522.136 401.42C522.346 401.42 522.552 401.36 522.739 401.244L530.292 395.989C530.557 395.763 530.542 395.405 530.198 395.16ZM411.789 465.453C411.601 465.342 411.395 465.284 411.187 465.284C410.978 465.284 410.772 465.342 410.585 465.453L401.296 471.913C400.983 472.12 400.999 472.497 401.296 472.742L410.022 478.807C410.208 478.922 410.414 478.983 410.624 478.983C410.833 478.983 411.04 478.922 411.226 478.807L420.499 472.346C420.827 472.12 420.812 471.744 420.499 471.499L411.789 465.453ZM439.64 446.09C439.452 445.979 439.246 445.921 439.037 445.921C438.829 445.921 438.623 445.979 438.435 446.09L426.832 454.171C426.519 454.397 426.535 454.773 426.832 454.999L435.589 460.932C435.776 461.048 435.982 461.108 436.191 461.108C436.401 461.108 436.607 461.048 436.793 460.932L448.397 452.852C448.709 452.645 448.694 452.268 448.397 452.023L439.64 446.09ZM386.252 483.214C386.066 483.099 385.86 483.038 385.65 483.038C385.441 483.038 385.234 483.099 385.048 483.214L322.998 526.271C322.669 526.497 322.7 526.874 322.998 527.119L331.723 533.184C331.911 533.295 332.117 533.353 332.325 533.353C332.534 533.353 332.74 533.295 332.928 533.184L395.009 490.014C395.338 489.788 395.322 489.411 395.009 489.166L386.252 483.214ZM320.668 528.814C320.48 528.703 320.274 528.645 320.065 528.645C319.857 528.645 319.651 528.703 319.463 528.814L310.175 535.143C309.862 535.369 309.877 535.727 310.175 535.971L318.9 542.036C319.087 542.152 319.293 542.212 319.503 542.212C319.712 542.212 319.918 542.152 320.105 542.036L329.393 535.576C329.706 535.35 329.69 534.973 329.393 534.747L320.668 528.814ZM399.013 474.343C398.826 474.227 398.62 474.167 398.411 474.167C398.201 474.167 397.995 474.227 397.809 474.343L388.535 480.803C388.207 481.029 388.223 481.406 388.535 481.651L397.261 487.716C397.448 487.827 397.654 487.885 397.863 487.885C398.072 487.885 398.278 487.827 398.465 487.716L407.754 481.255C408.067 481.029 408.051 480.672 407.754 480.427L399.013 474.343ZM307.907 537.704C307.721 537.589 307.515 537.528 307.305 537.528C307.096 537.528 306.889 537.589 306.703 537.704L297.414 544.165C297.086 544.391 297.117 544.767 297.414 545.012L306.14 551.077C306.327 551.188 306.533 551.246 306.742 551.246C306.951 551.246 307.157 551.188 307.344 551.077L316.742 544.56C317.071 544.334 317.055 543.976 316.742 543.731L307.907 537.704ZM424.549 456.581C424.362 456.47 424.156 456.412 423.947 456.412C423.738 456.412 423.532 456.47 423.345 456.581L414.056 463.042C413.743 463.268 413.759 463.645 414.056 463.89L422.782 469.954C422.968 470.07 423.175 470.13 423.384 470.13C423.594 470.13 423.8 470.07 423.986 469.954L433.275 463.513C433.588 463.287 433.572 462.91 433.275 462.665L424.549 456.581ZM464.019 429.139C463.832 429.027 463.626 428.97 463.417 428.97C463.208 428.97 463.002 429.027 462.815 429.139L455.262 434.394C454.949 434.62 454.964 434.996 455.262 435.223L463.987 441.306C464.175 441.417 464.381 441.475 464.59 441.475C464.798 441.475 465.004 441.417 465.192 441.306L472.745 436.07C473.057 435.844 473.042 435.467 472.745 435.223L464.019 429.139ZM488.179 408.006L495.716 402.751C496.045 402.525 496.029 402.167 495.716 401.922L486.959 395.763C486.773 395.647 486.567 395.587 486.357 395.587C486.148 395.587 485.941 395.647 485.755 395.763L478.202 401.018C477.889 401.244 477.905 401.621 478.202 401.847L486.928 407.912C487.12 408.037 487.335 408.103 487.554 408.103C487.772 408.103 487.987 408.037 488.179 407.912V408.006ZM438.873 407.629L446.426 402.374C446.739 402.148 446.723 401.771 446.426 401.545L437.7 395.48C437.514 395.365 437.308 395.304 437.098 395.304C436.889 395.304 436.682 395.365 436.496 395.48L428.959 400.735C428.631 400.943 428.646 401.319 428.959 401.564L437.685 407.629C437.876 407.723 438.082 407.763 438.288 407.747C438.494 407.731 438.694 407.658 438.873 407.535V407.629ZM413.853 459.67L435.902 444.32C436.215 444.113 436.199 443.736 435.902 443.491L427.176 437.426C426.99 437.311 426.784 437.25 426.574 437.25C426.365 437.25 426.158 437.311 425.972 437.426L403.923 452.758C403.594 452.984 403.626 453.361 403.923 453.606L412.649 459.67C412.848 459.777 413.066 459.824 413.284 459.807C413.502 459.791 413.713 459.712 413.9 459.576L413.853 459.67ZM475.903 415.634C476.09 415.75 476.296 415.81 476.506 415.81C476.715 415.81 476.921 415.75 477.108 415.634L484.645 410.398C484.973 410.172 484.942 409.795 484.645 409.55L475.919 403.485C475.732 403.374 475.526 403.316 475.317 403.316C475.108 403.316 474.902 403.374 474.715 403.485L467.162 408.74C466.849 408.966 466.865 409.343 467.162 409.569L475.903 415.634ZM464.644 407.008L472.182 401.753C472.51 401.545 472.494 401.169 472.182 400.924L463.456 394.859C463.27 394.743 463.063 394.683 462.854 394.683C462.644 394.683 462.438 394.743 462.252 394.859L454.699 400.114C454.386 400.34 454.402 400.717 454.699 400.943L463.425 407.008C463.625 407.122 463.846 407.173 464.068 407.157C464.289 407.14 464.504 407.057 464.691 406.913L464.644 407.008ZM402.813 467.28L410.366 462.025C410.678 461.799 410.663 461.422 410.366 461.196L401.64 455.131C401.454 455.016 401.247 454.955 401.038 454.955C400.828 454.955 400.622 455.016 400.436 455.131L392.898 460.386C392.57 460.593 392.601 460.97 392.898 461.215L401.608 467.28C401.798 467.409 402.011 467.482 402.228 467.492C402.446 467.502 402.662 467.448 402.86 467.336L402.813 467.28ZM451.524 432.529C451.71 432.645 451.917 432.705 452.126 432.705C452.336 432.705 452.542 432.645 452.728 432.529L460.281 427.274C460.594 427.067 460.578 426.69 460.281 426.445L451.555 420.38C451.369 420.265 451.163 420.204 450.953 420.204C450.744 420.204 450.538 420.265 450.351 420.38L442.814 425.635C442.486 425.861 442.501 426.238 442.814 426.464L451.524 432.529ZM347.69 505.609L355.227 500.373C355.555 500.147 355.524 499.77 355.227 499.525L346.454 493.423C346.267 493.312 346.061 493.254 345.852 493.254C345.643 493.254 345.437 493.312 345.25 493.423L337.697 498.678C337.384 498.904 337.4 499.281 337.697 499.525L346.423 505.59C346.625 505.721 346.852 505.788 347.082 505.785C347.311 505.781 347.537 505.708 347.736 505.572L347.69 505.609ZM358.714 497.943L366.252 492.707C366.58 492.481 366.564 492.104 366.252 491.86L357.526 485.795C357.338 485.683 357.132 485.626 356.924 485.626C356.715 485.626 356.509 485.683 356.322 485.795L348.769 491.05C348.456 491.276 348.471 491.652 348.769 491.878L357.494 497.943C357.691 498.066 357.91 498.127 358.132 498.121C358.353 498.114 358.57 498.04 358.761 497.906L358.714 497.943ZM336.665 513.275L344.202 508.039C344.531 507.813 344.499 507.436 344.202 507.191L335.508 501.089C335.322 500.973 335.115 500.913 334.906 500.913C334.696 500.913 334.49 500.973 334.304 501.089L326.751 506.325C326.438 506.551 326.453 506.928 326.751 507.173L335.476 513.237C335.668 513.355 335.879 513.416 336.094 513.416C336.309 513.416 336.521 513.355 336.712 513.237L336.665 513.275ZM380.857 482.574L388.41 477.319C388.723 477.093 388.707 476.735 388.41 476.49L379.684 470.425C379.498 470.31 379.292 470.249 379.082 470.249C378.873 470.249 378.666 470.31 378.48 470.425L370.943 475.68C370.614 475.906 370.63 476.264 370.943 476.509L379.669 482.574C379.853 482.686 380.056 482.745 380.263 482.745C380.469 482.745 380.673 482.686 380.857 482.574ZM369.833 490.24L377.386 484.985C377.698 484.778 377.683 484.401 377.386 484.156L368.66 478.091C368.474 477.975 368.267 477.915 368.058 477.915C367.848 477.915 367.642 477.975 367.456 478.091L359.903 483.346C359.59 483.572 359.606 483.949 359.903 484.175L368.628 490.24C368.809 490.346 369.006 490.402 369.207 490.402C369.408 490.402 369.606 490.346 369.786 490.24H369.833ZM391.804 474.87L399.357 469.615C399.669 469.389 399.654 469.031 399.357 468.787L390.631 462.722C390.445 462.606 390.238 462.546 390.029 462.546C389.819 462.546 389.613 462.606 389.427 462.722L381.889 467.977C381.561 468.203 381.592 468.561 381.889 468.805L390.615 474.87C390.799 474.983 391.003 475.042 391.209 475.042C391.416 475.042 391.619 474.983 391.804 474.87ZM442.251 361.427C442.437 361.542 442.644 361.603 442.853 361.603C443.063 361.603 443.269 361.542 443.455 361.427L451.008 356.172C451.321 355.946 451.305 355.588 451.008 355.343L448.678 353.723C448.492 353.607 448.286 353.547 448.076 353.547C447.867 353.547 447.66 353.607 447.474 353.723L439.937 358.959C439.624 359.185 439.64 359.562 439.937 359.807L442.251 361.427ZM388.004 403.617C388.191 403.729 388.397 403.786 388.606 403.786C388.814 403.786 389.021 403.729 389.208 403.617L396.745 398.381C397.074 398.155 397.058 397.778 396.745 397.533L388.019 391.469C387.833 391.353 387.627 391.293 387.417 391.293C387.208 391.293 387.001 391.353 386.815 391.469L379.293 396.742C378.981 396.968 378.996 397.345 379.293 397.59L388.004 403.617ZM410.053 388.267C410.239 388.382 410.445 388.443 410.655 388.443C410.864 388.443 411.071 388.382 411.257 388.267L418.81 383.03C419.123 382.804 419.107 382.428 418.81 382.183L410.084 376.118C409.897 376.007 409.691 375.949 409.482 375.949C409.273 375.949 409.067 376.007 408.88 376.118L401.327 381.373C401.014 381.599 401.03 381.976 401.327 382.202L410.053 388.267ZM374.602 413.016C374.788 413.132 374.995 413.192 375.204 413.192C375.414 413.192 375.62 413.132 375.806 413.016L383.344 407.78C383.672 407.554 383.656 407.177 383.344 406.932L374.602 400.886C374.415 400.775 374.209 400.717 374 400.717C373.791 400.717 373.585 400.775 373.398 400.886L365.845 406.122C365.532 406.348 365.548 406.725 365.845 406.97L374.602 413.016ZM399.091 396.064C399.278 396.176 399.484 396.234 399.693 396.234C399.902 396.234 400.108 396.176 400.295 396.064L407.832 390.828C408.161 390.602 408.145 390.225 407.832 389.981L399.106 383.916C398.92 383.8 398.714 383.74 398.504 383.74C398.295 383.74 398.089 383.8 397.902 383.916L390.24 389.077C389.927 389.303 389.943 389.679 390.24 389.905L399.091 396.064ZM352.522 428.348C352.709 428.459 352.915 428.517 353.124 428.517C353.332 428.517 353.538 428.459 353.726 428.348L361.263 423.093C361.576 422.867 361.56 422.49 361.263 422.264L352.537 416.199C352.351 416.083 352.145 416.023 351.935 416.023C351.726 416.023 351.519 416.083 351.333 416.199L343.796 421.435C343.467 421.661 343.499 422.038 343.796 422.283L352.522 428.348ZM363.546 420.682C363.732 420.797 363.939 420.858 364.148 420.858C364.358 420.858 364.564 420.797 364.75 420.682L372.288 415.446C372.616 415.22 372.585 414.843 372.288 414.598L363.578 408.533C363.39 408.422 363.184 408.364 362.975 408.364C362.767 408.364 362.561 408.422 362.373 408.533L354.82 413.769C354.508 413.995 354.523 414.372 354.82 414.617L363.546 420.682ZM420.233 376.796C420.419 376.912 420.626 376.972 420.835 376.972C421.045 376.972 421.251 376.912 421.437 376.796L428.975 371.56C429.303 371.334 429.287 370.957 428.975 370.712L426.645 369.092C426.457 368.981 426.251 368.923 426.042 368.923C425.834 368.923 425.628 368.981 425.44 369.092L417.903 374.329C417.575 374.555 417.59 374.931 417.903 375.176L420.233 376.796ZM453.307 353.798C453.493 353.914 453.699 353.974 453.909 353.974C454.118 353.974 454.325 353.914 454.511 353.798L462.064 348.543C462.377 348.317 462.361 347.941 462.064 347.715L459.75 346.095C459.562 345.984 459.356 345.926 459.148 345.926C458.939 345.926 458.733 345.984 458.546 346.095L450.993 351.35C450.68 351.576 450.695 351.953 450.993 352.179L453.307 353.798ZM471.634 366.55C471.822 366.661 472.028 366.719 472.236 366.719C472.445 366.719 472.651 366.661 472.838 366.55L480.391 361.314C480.704 361.088 480.689 360.711 480.391 360.466L471.556 354.42C471.369 354.309 471.163 354.251 470.954 354.251C470.745 354.251 470.539 354.309 470.352 354.42L462.815 359.656C462.486 359.882 462.502 360.259 462.815 360.504L471.634 366.55ZM499.204 400.246L506.741 394.991C507.069 394.765 507.054 394.407 506.741 394.162L498.015 388.097C497.829 387.981 497.623 387.921 497.413 387.921C497.204 387.921 496.997 387.981 496.811 388.097L489.258 393.352C488.945 393.578 488.961 393.936 489.258 394.181L497.984 400.246C498.172 400.365 498.381 400.427 498.594 400.427C498.806 400.427 499.016 400.365 499.204 400.246ZM431.258 369.13C431.444 369.246 431.65 369.306 431.86 369.306C432.069 369.306 432.276 369.246 432.462 369.13L440.015 363.875C440.328 363.668 440.312 363.291 440.015 363.046L437.685 361.427C437.498 361.315 437.292 361.257 437.083 361.257C436.874 361.257 436.668 361.315 436.481 361.427L428.943 366.663C428.615 366.889 428.646 367.265 428.943 367.51L431.258 369.13ZM341.481 436.014C341.669 436.125 341.875 436.183 342.083 436.183C342.292 436.183 342.498 436.125 342.685 436.014L350.239 430.759C350.551 430.533 350.536 430.156 350.239 429.93L341.513 423.865C341.326 423.749 341.12 423.689 340.911 423.689C340.701 423.689 340.495 423.749 340.309 423.865L332.771 429.12C332.443 429.327 332.474 429.704 332.771 429.949L341.481 436.014Z" fill="#E0E0E0"/>
<path d="M386.315 518.568L468.898 461.14L519.72 496.474L437.138 553.902L386.315 518.568Z" fill="#263238"/>
<path d="M220.445 178.01L466.505 6.89358C471.322 3.54093 475.262 6.29085 475.262 12.9773V242.539C475.18 244.236 474.769 245.886 474.063 247.358C473.358 248.829 472.376 250.082 471.197 251.015L218.882 426.464C216.645 428.008 214.816 426.746 214.816 423.639V189.745C214.928 187.395 215.496 185.11 216.473 183.072C217.451 181.034 218.811 179.301 220.445 178.01Z" fill="#F5F5F5"/>
<path d="M475.262 18.4771V12.9772C475.262 6.29077 471.322 3.55969 466.505 6.8935L220.445 178.01C218.811 179.301 217.451 181.034 216.473 183.072C215.496 185.11 214.928 187.395 214.816 189.745V199.595L475.262 18.4771Z" fill="#263238"/>
<path d="M438.561 31.0025C437.693 31.7007 436.973 32.6328 436.458 33.7249C435.942 34.8169 435.645 36.0388 435.589 37.2934C435.589 39.6101 436.95 40.5519 438.608 39.3841C439.487 38.7018 440.22 37.7772 440.745 36.6866C441.27 35.5961 441.571 34.3708 441.626 33.112C441.579 30.7953 440.281 29.8536 438.561 31.0025Z" fill="#E0E0E0"/>
<path d="M450.523 22.6962C449.643 23.3826 448.911 24.3107 448.386 25.4043C447.861 26.4979 447.56 27.7257 447.505 28.9871C447.505 31.3038 448.85 32.2267 450.523 31.0778C451.409 30.3806 452.145 29.4398 452.67 28.3329C453.195 27.2261 453.493 25.9848 453.542 24.7115C453.542 22.4701 452.181 21.5284 450.523 22.6962Z" fill="#E0E0E0"/>
<path d="M462.486 14.3712C461.608 15.0598 460.877 15.9885 460.352 17.0816C459.828 18.1747 459.525 19.4014 459.468 20.6621C459.468 22.9788 460.813 23.9205 462.486 22.7528C463.362 22.0661 464.09 21.14 464.612 20.0501C465.133 18.9601 465.434 17.7371 465.489 16.4807C465.489 14.164 464.144 13.2222 462.486 14.3712Z" fill="#E0E0E0"/>
<path d="M214.816 199.595V243.764L475.247 62.6643V18.4772L214.816 199.595Z" fill="#03045E"/>
<path opacity="0.1" d="M214.816 199.595V243.764L475.247 62.6643V18.4772L214.816 199.595Z" fill="black"/>
<path d="M231.877 220.747C231.001 221.075 230.071 221.133 229.171 220.917V199.275C229.164 198.864 229.239 198.457 229.39 198.089C229.576 197.734 229.835 197.442 230.141 197.241L231.486 196.318C231.83 196.073 232.08 195.998 232.236 196.111C232.393 196.224 232.471 196.506 232.471 196.977V204.097C232.97 203.164 233.569 202.316 234.254 201.573C234.98 200.779 235.777 200.084 236.63 199.501C238.601 198.126 240.118 197.806 241.197 198.578C242.276 199.35 242.76 201.102 242.76 203.814C242.787 206.858 242.139 209.855 240.884 212.497C239.547 215.22 237.63 217.464 235.333 218.995C234.253 219.769 233.09 220.358 231.877 220.747ZM238.413 211.913C239.149 210.165 239.509 208.222 239.461 206.263C239.461 204.379 239.179 203.249 238.632 202.778C238.085 202.308 237.162 202.496 235.864 203.4C234.938 204.056 234.135 204.934 233.503 205.98C232.854 206.954 232.491 208.16 232.471 209.408V216.829C232.884 216.883 233.302 216.818 233.691 216.641C234.233 216.428 234.757 216.15 235.254 215.812C236.593 214.9 237.689 213.548 238.413 211.913Z" fill="#FAFAFA"/>
<path d="M245.591 211.009C245.434 210.878 245.356 210.614 245.356 210.162V188.012C245.347 187.598 245.427 187.189 245.591 186.825C245.769 186.462 246.029 186.168 246.341 185.978L247.733 185.017C248.077 184.772 248.327 184.716 248.484 184.81C248.64 184.904 248.718 185.205 248.718 185.676V207.826C248.733 208.226 248.658 208.623 248.499 208.975C248.316 209.345 248.051 209.645 247.733 209.842L246.341 210.802C245.982 211.047 245.732 211.179 245.591 211.009Z" fill="#FAFAFA"/>
<path d="M253.144 204.116C251.909 203.306 251.299 201.479 251.299 198.597C251.292 195.746 251.93 192.946 253.144 190.498C254.421 187.923 256.238 185.798 258.414 184.339C260.681 182.757 262.448 182.455 263.684 183.171C264.919 183.887 265.545 185.808 265.545 188.69C265.554 191.544 264.91 194.346 263.684 196.789C262.408 199.37 260.59 201.501 258.414 202.967C256.131 204.549 254.379 204.926 253.144 204.116ZM261.244 196.054C261.912 194.496 262.245 192.76 262.214 191.007C262.214 189.123 261.885 187.899 261.244 187.353C260.603 186.806 259.68 186.976 258.414 187.842C257.221 188.65 256.241 189.844 255.583 191.289C254.907 192.831 254.568 194.556 254.598 196.299C254.598 198.208 254.927 199.464 255.583 200.066C256.24 200.631 257.147 200.481 258.414 199.633C259.616 198.807 260.598 197.585 261.244 196.111V196.054Z" fill="#FAFAFA"/>
<path d="M271.847 198.88C271.148 199.223 270.396 199.383 269.642 199.351C269.36 199.351 269.298 199.106 269.438 198.691L270.189 196.375C270.248 196.15 270.356 195.948 270.502 195.791C270.589 195.763 270.68 195.763 270.768 195.791C272.109 195.667 273.402 195.129 274.521 194.227C275.581 193.532 276.471 192.512 277.101 191.27C277.691 189.873 277.972 188.316 277.914 186.75C277.452 187.783 276.873 188.733 276.194 189.575C275.488 190.431 274.688 191.166 273.817 191.76C271.862 193.116 270.33 193.436 269.235 192.721C268.14 192.005 267.593 190.272 267.593 187.579C267.573 184.606 268.25 181.688 269.548 179.159C270.958 176.485 272.905 174.283 275.209 172.755C276.253 172.008 277.379 171.444 278.555 171.079C279.417 170.771 280.326 170.7 281.214 170.872V183.397C281.238 186.185 280.702 188.938 279.65 191.421C278.541 193.909 276.857 195.957 274.802 197.316C273.857 197.94 272.868 198.463 271.847 198.88ZM276.991 184.942C277.588 183.872 277.909 182.614 277.914 181.325V174.827C277.478 174.871 277.05 174.998 276.647 175.204C276.106 175.459 275.583 175.767 275.084 176.127C273.775 176.964 272.69 178.231 271.957 179.782C271.223 181.333 270.87 183.102 270.94 184.885C270.94 186.769 271.237 187.823 271.847 188.294C272.456 188.765 273.41 188.539 274.63 187.692C275.588 187.014 276.397 186.072 276.991 184.942Z" fill="#FAFAFA"/>
<path d="M259.274 232.387V387.645C259.274 388.681 259.727 389.208 260.275 388.813C260.592 388.492 260.846 388.092 261.019 387.639C261.192 387.186 261.28 386.693 261.276 386.195V230.937C261.276 229.901 260.822 229.392 260.275 229.788C259.956 230.103 259.701 230.5 259.528 230.95C259.354 231.4 259.268 231.891 259.274 232.387Z" fill="#03045E"/>
<path d="M183.055 292.622L239.805 253.068C241.681 251.769 243.198 252.823 243.198 255.423V303.509C243.134 304.925 242.794 306.302 242.204 307.53C241.614 308.757 240.792 309.799 239.805 310.572L183.055 350.031C181.195 351.331 179.678 350.276 179.678 347.677V299.704C179.74 298.287 180.078 296.908 180.665 295.677C181.252 294.447 182.071 293.4 183.055 292.622Z" fill="#E0E0E0"/>
<path d="M243.245 255.498C243.245 252.899 241.681 251.844 239.852 253.144L183.102 292.697C182.119 293.474 181.302 294.517 180.715 295.744C180.128 296.971 179.789 298.347 179.725 299.76V303.848L243.245 259.604V255.498Z" fill="#03045E"/>
<path d="M186.011 308.198L211.422 290.531V321.458L186.011 339.126V308.198Z" fill="#FAFAFA"/>
<path d="M186.027 334.624L195.55 314.245C195.625 314.039 195.744 313.861 195.894 313.728C196.044 313.595 196.221 313.511 196.406 313.487C196.592 313.462 196.779 313.496 196.95 313.586C197.121 313.676 197.269 313.819 197.38 314L200.71 318.407L206.45 302.454C206.794 301.493 207.466 301.399 208.013 302.265L211.485 308.198V321.383L186.074 339.05L186.027 334.624Z" fill="#03045E"/>
<path d="M217.787 288.779C217.787 290.249 218.694 290.814 219.82 290.023L234.801 279.607C235.381 279.164 235.868 278.564 236.221 277.854C236.574 277.144 236.784 276.345 236.834 275.52C236.834 274.05 235.927 273.485 234.816 274.276L219.789 284.636C219.205 285.085 218.719 285.695 218.371 286.415C218.023 287.136 217.823 287.947 217.787 288.779Z" fill="#FAFAFA"/>
<path d="M217.787 301.587C217.787 303.057 218.694 303.622 219.82 302.849L234.801 292.415C235.383 291.975 235.871 291.375 236.224 290.665C236.577 289.954 236.786 289.154 236.834 288.328C236.834 286.858 235.927 286.312 234.816 287.084L219.789 297.406C219.204 297.862 218.717 298.479 218.369 299.206C218.021 299.933 217.821 300.749 217.787 301.587Z" fill="#FAFAFA"/>
<path d="M217.787 314.207C217.787 315.695 218.694 316.241 219.82 315.469L234.801 305.034C235.383 304.598 235.87 304.002 236.224 303.295C236.577 302.587 236.786 301.789 236.834 300.966C236.834 299.497 235.927 298.932 234.816 299.704L219.789 310.138C219.213 310.579 218.731 311.177 218.383 311.884C218.035 312.591 217.831 313.387 217.787 314.207Z" fill="#FAFAFA"/>
<path d="M183.055 367.058L239.805 327.599C241.681 326.299 243.198 327.354 243.198 329.953V378.039C243.134 379.455 242.794 380.833 242.204 382.06C241.614 383.288 240.792 384.33 239.805 385.102L183.055 424.656C181.195 425.955 179.678 424.901 179.678 422.301V374.121C179.742 372.708 180.082 371.332 180.668 370.105C181.255 368.878 182.073 367.835 183.055 367.058Z" fill="#E0E0E0"/>
<path d="M243.245 329.953C243.245 327.354 241.681 326.299 239.852 327.599L183.102 367.058C182.119 367.835 181.302 368.878 180.715 370.105C180.128 371.332 179.789 372.708 179.725 374.121V378.227L243.245 334.04V329.953Z" fill="#03045E"/>
<path d="M186.011 382.635L211.422 364.967V395.895L186.011 413.562V382.635Z" fill="#FAFAFA"/>
<path d="M186.027 409.079L195.55 388.7C195.625 388.494 195.744 388.316 195.894 388.183C196.044 388.049 196.221 387.966 196.406 387.942C196.592 387.917 196.779 387.951 196.95 388.041C197.121 388.131 197.269 388.274 197.38 388.455L200.71 392.843L206.45 376.89C206.794 375.929 207.466 375.854 208.013 376.702L211.485 382.635V395.819L186.074 413.487L186.027 409.079Z" fill="#03045E"/>
<path d="M217.787 363.216C217.787 364.685 218.694 365.25 219.82 364.478L234.801 354.043C235.383 353.607 235.87 353.011 236.224 352.304C236.577 351.596 236.786 350.798 236.834 349.975C236.834 348.487 235.927 347.94 234.816 348.713L219.789 359.147C219.213 359.588 218.731 360.186 218.383 360.893C218.035 361.6 217.831 362.396 217.787 363.216Z" fill="#FAFAFA"/>
<path d="M217.787 375.929C217.787 377.417 218.694 377.964 219.82 377.191L234.801 366.757C235.383 366.321 235.87 365.724 236.224 365.017C236.577 364.31 236.786 363.512 236.834 362.688C236.834 361.219 235.927 360.654 234.816 361.426L219.789 371.861C219.213 372.301 218.731 372.899 218.383 373.606C218.035 374.313 217.831 375.109 217.787 375.929Z" fill="#FAFAFA"/>
<path d="M217.787 388.662C217.787 390.131 218.694 390.696 219.82 389.905L234.801 379.489C235.381 379.047 235.868 378.447 236.221 377.737C236.574 377.027 236.784 376.227 236.834 375.402C236.834 373.933 235.927 373.368 234.816 374.159L219.789 384.575C219.214 385.021 218.734 385.623 218.386 386.333C218.039 387.043 217.834 387.84 217.787 388.662Z" fill="#FAFAFA"/>
<path d="M281.73 294.411L456.2 173.094C458.061 171.795 459.578 172.85 459.578 175.449V236.719C459.513 238.133 459.174 239.509 458.587 240.735C458.001 241.962 457.183 243.006 456.2 243.782L281.73 365.099C279.853 366.399 278.336 365.344 278.336 362.745V301.474C278.4 300.058 278.741 298.68 279.33 297.453C279.92 296.226 280.742 295.183 281.73 294.411Z" fill="#E0E0E0"/>
<path d="M459.578 175.392C459.578 172.793 458.014 171.738 456.2 173.038L281.73 294.411C280.742 295.183 279.92 296.226 279.33 297.453C278.741 298.68 278.4 300.058 278.336 301.474V305.562L459.578 179.536V175.392Z" fill="#03045E"/>
<path d="M321.434 281.679L286.186 306.164C285.401 306.787 284.748 307.623 284.278 308.604C283.808 309.585 283.535 310.684 283.481 311.815V353.779C283.481 355.851 284.701 356.699 286.186 355.663L321.434 331.177C322.22 330.555 322.874 329.72 323.344 328.739C323.814 327.758 324.086 326.658 324.139 325.527V283.562C324.077 281.49 322.857 280.643 321.434 281.679Z" fill="#FAFAFA"/>
<path d="M295.851 318.539L283.419 350.559V353.874C283.419 355.945 284.638 356.793 286.124 355.757L321.371 331.271C322.157 330.65 322.812 329.815 323.281 328.833C323.751 327.852 324.024 326.752 324.077 325.621V311.005L317.415 295.937C316.602 294.053 315.398 294.148 314.725 296.069L304.232 325.734L299.135 318.087C298.965 317.711 298.706 317.405 298.391 317.208C298.076 317.01 297.719 316.931 297.366 316.979C297.013 317.028 296.68 317.202 296.41 317.48C296.14 317.758 295.945 318.127 295.851 318.539Z" fill="#03045E"/>
<path d="M287.5 318.162C289.271 316.771 290.745 314.897 291.802 312.691C292.859 310.485 293.469 308.01 293.583 305.467C293.627 304.124 293.303 302.8 292.66 301.7L286.124 306.24C285.339 306.863 284.685 307.698 284.216 308.679C283.746 309.66 283.473 310.76 283.419 311.89V318.878C284.096 319.165 284.822 319.25 285.532 319.125C286.243 319.001 286.919 318.67 287.5 318.162Z" fill="#03045E"/>
<path d="M339.996 272.449L448.928 196.714C450.492 195.659 451.634 196.375 451.634 198.296C451.562 199.38 451.28 200.429 450.81 201.358C450.34 202.287 449.695 203.07 448.928 203.645L339.996 279.4C338.432 280.436 337.291 279.72 337.291 277.799C337.362 276.714 337.645 275.665 338.115 274.736C338.584 273.807 339.229 273.024 339.996 272.449Z" fill="#FAFAFA"/>
<path d="M339.996 290.117L448.928 214.381C450.492 213.326 451.634 214.042 451.634 215.963C451.562 217.047 451.28 218.096 450.81 219.025C450.34 219.955 449.695 220.738 448.928 221.312L339.996 297.067C338.432 298.103 337.291 297.387 337.291 295.466C337.364 294.382 337.646 293.334 338.116 292.405C338.586 291.476 339.23 290.692 339.996 290.117Z" fill="#FAFAFA"/>
<path d="M339.996 307.784L448.928 232.048C450.492 230.993 451.634 231.709 451.634 233.63C451.561 234.717 451.278 235.768 450.808 236.7C450.339 237.632 449.695 238.419 448.928 238.998L339.996 314.772C338.432 315.808 337.291 315.092 337.291 313.171C337.359 312.08 337.639 311.024 338.109 310.089C338.579 309.153 339.226 308.363 339.996 307.784Z" fill="#FAFAFA"/>
<path d="M518.219 100.636L502.237 100.052C501.158 98.9596 484.363 76.1315 484.363 76.1315C484.363 76.1315 478.327 87.602 478.218 88.3366C478.108 89.0712 494.684 110.411 496.326 112.559C496.787 113.28 497.379 113.864 498.057 114.266C498.735 114.668 499.48 114.876 500.236 114.875C504.567 115.177 520.784 116.552 520.784 116.552L518.219 100.636Z" fill="#F28F8F"/>
<path d="M540.941 122.767L516.296 120.563L518.204 100.636L543.646 101.314L540.941 122.767Z" fill="#03045E"/>
<path opacity="0.2" d="M540.941 122.767L516.296 120.563L518.204 100.636L543.646 101.314L540.941 122.767Z" fill="black"/>
<path d="M313.49 188.313L487.96 66.9964C489.821 65.6967 491.338 66.7515 491.338 69.3507V130.64C491.272 132.053 490.932 133.429 490.346 134.655C489.759 135.882 488.942 136.926 487.96 137.703L313.49 259.02C311.613 260.32 310.096 259.265 310.096 256.666V195.376C310.16 193.96 310.501 192.582 311.091 191.355C311.68 190.128 312.502 189.085 313.49 188.313Z" fill="#E0E0E0"/>
<path d="M491.338 69.3507C491.338 66.7515 489.774 65.6967 487.96 66.9964L313.49 188.313C312.502 189.085 311.68 190.128 311.091 191.355C310.501 192.582 310.16 193.96 310.096 195.376V199.464L491.338 73.438V69.3507Z" fill="#03045E"/>
<path d="M353.132 175.6L317.884 200.085C317.096 200.705 316.441 201.539 315.971 202.521C315.501 203.503 315.229 204.604 315.179 205.736V247.681C315.179 249.753 316.398 250.601 317.884 249.565L353.132 225.079C353.919 224.46 354.575 223.625 355.045 222.643C355.515 221.662 355.786 220.56 355.837 219.429V177.483C355.837 175.392 354.617 174.564 353.132 175.6Z" fill="#FAFAFA"/>
<path d="M327.689 212.46L315.179 244.385V247.7C315.179 249.772 316.398 250.62 317.884 249.584L353.132 225.098C353.919 224.478 354.575 223.644 355.045 222.662C355.515 221.68 355.786 220.579 355.837 219.448V204.963L349.175 189.895C348.362 188.012 347.158 188.125 346.485 190.027L335.993 219.749L330.895 212.083C330.717 211.741 330.464 211.466 330.164 211.288C329.864 211.109 329.528 211.036 329.195 211.075C328.862 211.114 328.544 211.264 328.278 211.509C328.012 211.754 327.808 212.083 327.689 212.46Z" fill="#03045E"/>
<path d="M319.26 212.083C321.031 210.687 322.504 208.809 323.561 206.6C324.617 204.392 325.228 201.915 325.343 199.369C325.385 198.026 325.061 196.703 324.421 195.602L317.884 200.16C317.096 200.78 316.441 201.615 315.971 202.596C315.501 203.578 315.229 204.679 315.179 205.811V212.78C315.855 213.07 316.58 213.158 317.291 213.036C318.001 212.915 318.677 212.588 319.26 212.083Z" fill="#03045E"/>
<path d="M371.756 166.351L480.689 90.6344C482.252 89.5985 483.394 90.2954 483.394 92.2166C483.322 93.3035 483.04 94.3551 482.57 95.2872C482.1 96.2193 481.456 97.0061 480.689 97.5846L371.756 173.32C370.27 174.356 369.051 173.66 369.051 171.738C369.122 170.648 369.403 169.594 369.873 168.658C370.343 167.723 370.988 166.933 371.756 166.351Z" fill="#FAFAFA"/>
<path d="M371.756 184.019L480.689 108.283C482.252 107.247 483.394 107.963 483.394 109.865C483.322 110.952 483.04 112.004 482.57 112.936C482.1 113.868 481.456 114.655 480.689 115.233L371.756 190.969C370.27 192.024 369.051 191.308 369.051 189.387C369.124 188.3 369.407 187.249 369.876 186.317C370.346 185.385 370.99 184.598 371.756 184.019Z" fill="#FAFAFA"/>
<path d="M371.756 201.761L480.689 126.026C482.252 124.99 483.394 125.705 483.394 127.608C483.322 128.695 483.04 129.746 482.57 130.678C482.1 131.61 481.456 132.397 480.689 132.976L371.756 208.712C370.27 209.766 369.051 209.051 369.051 207.129C369.124 206.043 369.407 204.992 369.876 204.06C370.346 203.128 370.99 202.341 371.756 201.761Z" fill="#FAFAFA"/>
<path d="M572.404 333.456H563.178V349.654H572.404V333.456Z" fill="#FFA8A7"/>
<path d="M539.954 313.37L530.734 313.752L531.196 329.941L540.417 329.559L539.954 313.37Z" fill="#FFA8A7"/>
<path d="M571.81 175.392C571.81 186.015 572.951 254.707 572.951 254.707C573.17 257.758 575.547 263.39 575.031 275.143C574.343 291.077 573.186 335.415 573.186 335.415C573.186 335.415 568.87 340.595 562.755 335.415C562.755 335.415 554.389 275.237 552.732 259.453C551.293 245.666 548.838 208.203 548.838 208.203L540.362 252.202C540.362 252.202 541.926 262.561 542.207 269.888C542.489 277.215 540.644 319.443 540.644 319.443C539.151 320.573 537.438 321.212 535.676 321.294C533.914 321.377 532.165 320.901 530.604 319.914C530.604 319.914 523.161 258.267 522.144 251.561C521.128 244.856 528.634 175.392 528.634 175.392H571.81Z" fill="#455A64"/>
<path d="M557.923 101.804H558.049C561.999 103.021 565.499 105.793 567.992 109.68C570.485 113.567 571.829 118.345 571.81 123.257V175.392C565.336 183.868 542.77 187.823 528.634 175.392V121.147C528.634 112.483 532.622 102.067 543.662 101.295L557.923 101.804Z" fill="#03045E"/>
<path d="M561.02 57.4658C561.765 57.3614 562.519 57.4632 563.227 57.7635C563.934 58.0638 564.575 58.5546 565.101 59.1987C566.853 61.3459 566.477 65.3389 565.101 74.4927L559.69 75.2462L561.02 57.4658Z" fill="#263238"/>
<path d="M529.525 54.8478C528.359 54.8536 527.204 54.5716 526.132 54.0191C524.474 52.8701 524.052 55.1303 524.959 57.108C525.557 58.5209 526.447 59.7253 527.542 60.6058C528.637 61.4863 529.901 62.0135 531.214 62.137C531.214 61.8545 532.778 57.0515 532.778 57.0515L529.525 54.8478Z" fill="#263238"/>
<path d="M558.486 75.2461C559.3 75.83 560.441 73.9653 561.426 72.7222C561.817 72.188 562.313 71.7821 562.87 71.5425C563.426 71.3028 564.024 71.2374 564.607 71.3522C565.19 71.4671 565.739 71.7585 566.203 72.1991C566.667 72.6397 567.03 73.215 567.259 73.8712C568.901 78.0337 565.179 83.5712 562.99 85.3982C562.377 86.0392 561.611 86.4299 560.802 86.5145C559.993 86.5991 559.182 86.3732 558.486 85.8691L557.923 101.804C556.956 104.359 555.476 106.586 553.617 108.282C551.758 109.979 549.579 111.092 547.274 111.522C539.455 112.803 541.113 105.081 543.662 101.295V95.5127C541.72 96.01 539.724 96.1309 537.751 95.8705C536.734 95.5503 534.326 92.1035 532.762 88.0917C531.011 83.6654 528.071 75.8112 530.682 62.5324C533.482 48.2743 546.195 47.8411 553.779 53.5858C561.364 59.3305 558.486 75.2461 558.486 75.2461Z" fill="#FFA8A7"/>
<path d="M558.486 76.8848C558.893 76.8848 560.425 73.8147 561.426 72.7223C562.818 71.2155 561.02 57.4658 561.02 57.4658C561.02 57.4658 562.427 52.2674 559.69 48.8017C556.954 45.336 551.653 45.9388 547.775 45.7693C543.014 45.804 538.299 44.6629 533.92 42.4166C528.431 39.5348 528.008 39.1958 527.336 42.1152C526.664 45.0347 526.382 51.6835 529.682 56.1662L532.403 57.3717C532.403 57.3717 533.888 58.9538 539.017 59.7072C543.754 60.1377 548.514 60.0241 553.232 59.3682C554.718 59.1233 555.046 60.875 555.844 65.6214C556.547 69.784 557.142 76.8471 558.486 76.8848Z" fill="#263238"/>
<path d="M561.02 58.6147L565.867 55.4881C565.713 55.0937 565.494 54.7412 565.223 54.4519C564.952 54.1627 564.635 53.9427 564.291 53.8053C563.948 53.668 563.584 53.6161 563.224 53.6528C562.863 53.6895 562.512 53.8141 562.192 54.019C561.544 54.4569 561.061 55.1785 560.843 56.0342C560.624 56.8898 560.688 57.8139 561.02 58.6147Z" fill="#263238"/>
<path d="M543.677 95.5127C546.992 94.7506 550.242 93.6285 553.388 92.1601C554.859 91.2212 556.067 89.7796 556.86 88.0164C556.481 89.785 555.811 91.4439 554.89 92.8946C553.044 95.7199 543.677 97.8106 543.677 97.8106V95.5127Z" fill="#F28F8F"/>
<path d="M545.398 73.0801C545.419 73.4205 545.522 73.7461 545.695 74.0166C545.868 74.2872 546.103 74.491 546.371 74.6029C546.639 74.7149 546.928 74.7302 547.203 74.6469C547.477 74.5637 547.726 74.3854 547.918 74.1342C548.11 73.8829 548.237 73.5696 548.283 73.2327C548.329 72.8958 548.292 72.5501 548.177 72.238C548.062 71.9259 547.874 71.661 547.636 71.476C547.398 71.291 547.12 71.1939 546.836 71.1966C546.638 71.2038 546.444 71.2585 546.264 71.3576C546.084 71.4567 545.922 71.5982 545.788 71.7736C545.654 71.9491 545.55 72.1551 545.483 72.3794C545.416 72.6038 545.387 72.842 545.398 73.0801Z" fill="#263238"/>
<path d="M546.93 66.5255L550.058 68.5785C550.278 68.0692 550.327 67.4767 550.192 66.9254C550.058 66.3741 549.752 65.9068 549.338 65.6214C549.133 65.4766 548.906 65.3849 548.67 65.3523C548.434 65.3196 548.195 65.3467 547.968 65.4319C547.741 65.517 547.532 65.6582 547.353 65.8466C547.174 66.0349 547.03 66.2661 546.93 66.5255Z" fill="#263238"/>
<path d="M545.507 84.8521L542.223 86.34C542.293 86.6073 542.408 86.8547 542.56 87.0671C542.712 87.2796 542.898 87.4526 543.107 87.5759C543.316 87.6992 543.544 87.77 543.776 87.7842C544.009 87.7984 544.241 87.7556 544.459 87.6585C544.901 87.4438 545.256 87.032 545.452 86.509C545.647 85.986 545.667 85.3923 545.507 84.8521Z" fill="#F28F8F"/>
<path d="M532.543 68.0324L535.358 65.4143C535.226 65.1862 535.057 64.9928 534.861 64.8457C534.665 64.6987 534.447 64.6011 534.219 64.5588C533.991 64.5165 533.758 64.5305 533.534 64.5998C533.311 64.6692 533.101 64.7925 532.919 64.9622C532.543 65.3196 532.294 65.8367 532.224 66.4075C532.155 66.9783 532.269 67.5596 532.543 68.0324Z" fill="#263238"/>
<path d="M533.419 72.5904C533.402 72.8303 533.426 73.0719 533.49 73.2999C533.555 73.5278 533.658 73.7371 533.794 73.9143C533.929 74.0915 534.093 74.2328 534.277 74.3291C534.46 74.4255 534.658 74.4748 534.858 74.4739C535.171 74.5042 535.485 74.42 535.758 74.2323C536.031 74.0446 536.251 73.7621 536.388 73.4217C536.526 73.0813 536.576 72.6988 536.53 72.3241C536.485 71.9494 536.347 71.5998 536.134 71.3212C535.921 71.0425 535.643 70.8475 535.337 70.7618C535.031 70.6761 534.71 70.7035 534.417 70.8405C534.124 70.9776 533.872 71.2178 533.694 71.53C533.516 71.8421 533.42 72.2117 533.419 72.5904Z" fill="#263238"/>
<path d="M540.753 70.9518L540.284 81.3864L535.749 79.5406L540.753 70.9518Z" fill="#F28F8F"/>
<path d="M563.193 344.155V342.573C562.302 343.025 560.253 352.461 556.594 356.492C553.67 359.694 549.698 363.385 548.697 366.945C547.696 370.505 554.233 372.709 556.954 372.125C560.081 371.447 565.586 368.772 566.962 366.286C568.338 363.8 568.979 360.127 570.09 358.319C571.2 356.51 573.78 354.457 574.39 352.348C574.571 350.378 574.39 348.385 573.858 346.509C573.436 344.626 572.967 342.384 572.404 342.573V343.778C571.094 345.03 569.463 345.696 567.791 345.661C566.462 345.718 563.178 345.398 563.193 344.155Z" fill="#263238"/>
<path d="M531.089 326.544C530.604 326.544 530.213 327.373 529.15 328.766C527.572 330.69 525.738 332.282 523.724 333.475C520.268 335.547 513.544 338.749 510.51 340.406C508.602 341.442 508.696 344.174 510.651 345.775C512.605 347.375 517.359 348.487 523.067 346.942C526.194 346.113 530.198 342.667 532.762 342.855C535.327 343.043 540.096 342.987 541.989 341.424C543.881 339.86 543.115 336.508 542.583 333.645C542.004 330.499 541.16 325.696 540.3 325.922V326.902C539.189 328.917 533.544 329.746 531.105 328.258L531.089 326.544Z" fill="#263238"/>
<path d="M560.691 109.036L532.168 144.559C532.168 144.559 507.148 139.172 498.609 136.215C495.92 135.292 494.043 130.452 493.449 126.798C493.297 124.895 492.527 123.142 491.307 121.919C491.307 121.919 491.307 124.575 490.744 128.926C490.525 130.81 488.054 131.054 485.849 131.638C478.03 133.673 475.372 131.638 472.135 134.351C469.633 136.498 472.776 142.073 478.484 143.956C486.506 146.612 490.994 145.294 495.81 146.744C499.579 147.874 526.695 158.045 531.855 159.477C534.576 160.192 536.656 159.966 539.674 156.444C542.692 152.922 565.148 129.265 565.148 129.265L560.691 109.036Z" fill="#FFA8A7"/>
<path d="M561.958 107.812C558.83 106.851 539.752 134.181 539.752 134.181L550.261 144.804C550.261 144.804 563.866 134.068 566.274 129.736C568.682 125.404 571.419 110.656 561.958 107.812Z" fill="#03045E"/>
<path d="M550.949 145.52C550.949 145.52 565.304 130.037 565.977 128.342C567.275 125.084 566.915 119.057 566.915 119.057C566.915 119.057 568.479 124.293 566.915 128.342C565.351 132.392 554.405 143.9 552.669 145.878L550.902 147.874L549.198 145.991L550.214 144.917L550.949 145.52Z" fill="#03045E"/>
<path opacity="0.2" d="M550.949 145.52C550.949 145.52 565.304 130.037 565.977 128.342C567.275 125.084 566.915 119.057 566.915 119.057C566.915 119.057 568.479 124.293 566.915 128.342C565.351 132.392 554.405 143.9 552.669 145.878L550.902 147.874L549.198 145.991L550.214 144.917L550.949 145.52Z" fill="black"/>
<path d="M478.828 68.8611C481.955 68.4467 484.035 65.6591 484.739 66.4314C485.024 66.7972 485.19 67.2745 485.207 67.7759C485.225 68.2773 485.092 68.7694 484.832 69.1624C483.389 70.4829 481.813 71.5778 480.141 72.4209C479.749 74.3353 479.467 76.2799 479.297 78.2409C479.031 81.1227 479.125 86.8863 477.076 88.8451C470.962 94.7593 469.398 85.3795 469.633 79.0885C469.992 71.272 475.559 69.2943 478.828 68.8611Z" fill="#F28F8F"/>
</g>
<defs>
<clipPath id="clip0_165_486">
<rect width="671" height="671" fill="white"/>
</clipPath>
</defs>
</svg>
