<svg width="1180" height="339" viewBox="0 0 1180 339" fill="none" xmlns="http://www.w3.org/2000/svg">
<path d="M22.9943 225.705V212.75L127.278 159.636V180.364L47.2841 218.903L47.9318 217.608V220.847L47.2841 219.551L127.278 258.091V278.818L22.9943 225.705Z" fill="#03045E"/>
<path d="M543.278 225.705L438.994 278.818V258.091L518.989 219.551L518.341 220.847V217.608L518.989 218.903L438.994 180.364V159.636L543.278 212.75V225.705Z" fill="#03045E"/>
<path d="M305.92 274.12C307.82 269.94 310.1 264.557 312.76 257.97C315.42 251.383 318.207 244.29 321.12 236.69C324.033 228.963 327.01 221.11 330.05 213.13C333.09 205.023 335.94 197.36 338.6 190.14C341.26 182.92 343.54 176.46 345.44 170.76C347.467 165.06 348.923 160.69 349.81 157.65C341.83 160.943 334.99 165.947 329.29 172.66C323.59 179.373 319.283 187.797 316.37 197.93C313.457 196.917 310.797 195.143 308.39 192.61C305.983 189.95 304.4 186.657 303.64 182.73C304.907 176.903 307.25 171.583 310.67 166.77C314.217 161.957 318.65 157.84 323.97 154.42C329.29 151 335.433 148.403 342.4 146.63C349.367 144.73 356.84 143.78 364.82 143.78C374.953 143.78 384.263 145.3 392.75 148.34C401.237 151.253 408.52 155.37 414.6 160.69C420.68 166.01 425.43 172.407 428.85 179.88C432.27 187.353 433.98 195.65 433.98 204.77C433.98 217.183 431.7 229.027 427.14 240.3C422.58 251.573 416.373 261.517 408.52 270.13C400.793 278.743 391.8 285.583 381.54 290.65C371.28 295.843 360.513 298.44 349.24 298.44C338.853 298.44 329.923 296.35 322.45 292.17C315.103 288.117 309.593 282.1 305.92 274.12ZM372.99 153.28C366.657 153.28 360.64 154.167 354.94 155.94C360.513 157.967 365.137 160.12 368.81 162.4C372.483 164.553 375.017 166.263 376.41 167.53C375.397 168.923 373.877 171.393 371.85 174.94C369.95 178.487 367.67 182.793 365.01 187.86C362.477 192.927 359.753 198.5 356.84 204.58C353.927 210.533 351.077 216.677 348.29 223.01C341.07 239.097 335.813 251.763 332.52 261.01C329.353 270.257 327.77 276.653 327.77 280.2C329.543 280.833 331.697 281.277 334.23 281.53C336.763 281.783 339.487 281.91 342.4 281.91C352.66 281.91 362.35 279.567 371.47 274.88C380.717 270.067 388.76 263.67 395.6 255.69C402.567 247.71 408.013 238.463 411.94 227.95C415.993 217.31 418.02 206.163 418.02 194.51C418.02 181.463 413.967 171.33 405.86 164.11C397.753 156.89 386.797 153.28 372.99 153.28Z" fill="#03045E"/>
<path d="M231.8 204.77C235.853 204.77 239.02 205.91 241.3 208.19C243.707 210.47 244.91 213.637 244.91 217.69C244.91 218.703 244.847 219.78 244.72 220.92C244.593 221.933 244.34 222.82 243.96 223.58C242.313 223.327 240.477 223.137 238.45 223.01C236.423 222.757 234.017 222.63 231.23 222.63C225.53 222.63 219.83 223.137 214.13 224.15C208.43 225.163 202.983 225.987 197.79 226.62C192.09 240.047 187.403 252.65 183.73 264.43C180.057 276.21 177.207 287.863 175.18 299.39C170.873 298.377 167.073 296.54 163.78 293.88C160.487 291.22 157.383 287.483 154.47 282.67C155.357 280.643 156.433 278.237 157.7 275.45C158.967 272.537 160.487 268.927 162.26 264.62C164.033 260.187 166.123 254.867 168.53 248.66C171.063 242.327 174.04 234.79 177.46 226.05C172.14 224.277 168.657 221.173 167.01 216.74C167.643 216.107 169.417 215.41 172.33 214.65C175.243 213.763 178.79 212.813 182.97 211.8C184.87 206.86 186.517 202.49 187.91 198.69C189.303 194.763 190.57 191.09 191.71 187.67C192.85 184.123 193.863 180.703 194.75 177.41C195.763 173.99 196.65 170.38 197.41 166.58H196.46C191.647 166.58 187.72 165.44 184.68 163.16C181.767 160.88 180.31 157.903 180.31 154.23C180.31 153.217 180.437 152.013 180.69 150.62C181.07 149.227 181.513 148.023 182.02 147.01C184.427 147.39 186.77 147.643 189.05 147.77C191.457 147.897 194.56 147.96 198.36 147.96C206.34 147.96 213.813 147.77 220.78 147.39C227.747 146.883 234.017 146.377 239.59 145.87C245.29 145.363 250.167 144.92 254.22 144.54C258.273 144.033 261.377 143.78 263.53 143.78C266.443 143.78 269.04 145.3 271.32 148.34C273.6 151.38 275.373 155.687 276.64 161.26C272.587 160.88 269.293 160.627 266.76 160.5C264.353 160.373 262.2 160.31 260.3 160.31C253.84 160.31 247.887 160.627 242.44 161.26C237.12 161.767 232.053 162.4 227.24 163.16C226.48 164.3 225.593 165.757 224.58 167.53C223.693 169.303 222.49 171.837 220.97 175.13C219.45 178.297 217.487 182.477 215.08 187.67C212.8 192.863 209.887 199.45 206.34 207.43C211.28 206.67 215.967 206.037 220.4 205.53C224.96 205.023 228.76 204.77 231.8 204.77Z" fill="#03045E"/>
<path d="M252.369 280.449C251.33 283.047 249.734 284.977 247.582 286.238C245.504 287.574 243.389 288.242 241.236 288.242H232.664L301.131 117.576C302.17 115.127 303.58 113.271 305.361 112.01C307.217 110.748 309.406 110.117 311.93 110.117H320.391L252.369 280.449Z" fill="#03045E"/>
<path d="M581 144.3C583.133 144.3 584.8 144.9 586 146.1C587.267 147.3 587.9 148.967 587.9 151.1C587.9 151.633 587.867 152.2 587.8 152.8C587.733 153.333 587.6 153.8 587.4 154.2C586.533 154.067 585.567 153.967 584.5 153.9C583.433 153.767 582.167 153.7 580.7 153.7C577.7 153.7 574.7 153.967 571.7 154.5C568.7 155.033 565.833 155.467 563.1 155.8C560.1 162.867 557.633 169.5 555.7 175.7C553.767 181.9 552.267 188.033 551.2 194.1C548.933 193.567 546.933 192.6 545.2 191.2C543.467 189.8 541.833 187.833 540.3 185.3C540.767 184.233 541.333 182.967 542 181.5C542.667 179.967 543.467 178.067 544.4 175.8C545.333 173.467 546.433 170.667 547.7 167.4C549.033 164.067 550.6 160.1 552.4 155.5C549.6 154.567 547.767 152.933 546.9 150.6C547.233 150.267 548.167 149.9 549.7 149.5C551.233 149.033 553.1 148.533 555.3 148C556.3 145.4 557.167 143.1 557.9 141.1C558.633 139.033 559.3 137.1 559.9 135.3C560.5 133.433 561.033 131.633 561.5 129.9C562.033 128.1 562.5 126.2 562.9 124.2H562.4C559.867 124.2 557.8 123.6 556.2 122.4C554.667 121.2 553.9 119.633 553.9 117.7C553.9 117.167 553.967 116.533 554.1 115.8C554.3 115.067 554.533 114.433 554.8 113.9C556.067 114.1 557.3 114.233 558.5 114.3C559.767 114.367 561.4 114.4 563.4 114.4C567.6 114.4 571.533 114.3 575.2 114.1C578.867 113.833 582.167 113.567 585.1 113.3C588.1 113.033 590.667 112.8 592.8 112.6C594.933 112.333 596.567 112.2 597.7 112.2C599.233 112.2 600.6 113 601.8 114.6C603 116.2 603.933 118.467 604.6 121.4C602.467 121.2 600.733 121.067 599.4 121C598.133 120.933 597 120.9 596 120.9C592.6 120.9 589.467 121.067 586.6 121.4C583.8 121.667 581.133 122 578.6 122.4C578.2 123 577.733 123.767 577.2 124.7C576.733 125.633 576.1 126.967 575.3 128.7C574.5 130.367 573.467 132.567 572.2 135.3C571 138.033 569.467 141.5 567.6 145.7C570.2 145.3 572.667 144.967 575 144.7C577.4 144.433 579.4 144.3 581 144.3ZM626.618 145.6C627.285 145.6 628.051 145.733 628.918 146C629.851 146.2 630.685 146.5 631.418 146.9C632.151 147.233 632.751 147.6 633.218 148C633.751 148.4 634.018 148.767 634.018 149.1C632.685 151.9 631.451 154.733 630.318 157.6C629.185 160.4 628.218 163.1 627.418 165.7C626.618 168.3 625.985 170.733 625.518 173C625.118 175.267 624.918 177.233 624.918 178.9C624.918 180.767 625.118 182.333 625.518 183.6C625.918 184.8 626.585 185.667 627.518 186.2C626.718 186.733 625.685 187.167 624.418 187.5C623.151 187.833 622.018 188 621.018 188C617.418 188 615.618 185.533 615.618 180.6C615.618 176.8 616.885 171.6 619.418 165C618.085 168.067 616.551 170.967 614.818 173.7C613.085 176.367 611.318 178.733 609.518 180.8C607.718 182.867 605.885 184.567 604.018 185.9C602.218 187.167 600.551 187.933 599.018 188.2C596.551 188.067 594.551 186.9 593.018 184.7C591.485 182.433 590.718 179.567 590.718 176.1C590.718 172.367 591.518 168.433 593.118 164.3C594.718 160.167 596.751 156.333 599.218 152.8C601.751 149.267 604.485 146.333 607.418 144C610.351 141.6 613.185 140.333 615.918 140.2C616.585 140.4 617.318 140.8 618.118 141.4C618.985 142 619.785 142.7 620.518 143.5C621.318 144.3 621.985 145.133 622.518 146C623.051 146.8 623.351 147.5 623.418 148.1C620.751 148.5 617.985 149.8 615.118 152C612.318 154.2 609.751 156.867 607.418 160C605.151 163.067 603.285 166.367 601.818 169.9C600.351 173.433 599.618 176.733 599.618 179.8C599.618 181.067 600.085 181.867 601.018 182.2C602.951 181.8 605.185 180.167 607.718 177.3C610.251 174.367 613.318 169.867 616.918 163.8C617.585 162.6 618.318 161.267 619.118 159.8C619.985 158.333 620.851 156.8 621.718 155.2C622.585 153.6 623.418 152 624.218 150.4C625.085 148.733 625.885 147.133 626.618 145.6ZM643.33 147.7C642.997 147.3 642.697 146.467 642.43 145.2C642.164 143.867 642.03 142.733 642.03 141.8C643.764 141.933 645.43 142.067 647.03 142.2C648.63 142.267 650.097 142.333 651.43 142.4C652.43 140.4 653.497 138.433 654.63 136.5C655.83 134.5 656.964 132.7 658.03 131.1C659.164 129.433 660.197 128.033 661.13 126.9C662.13 125.767 662.897 125.033 663.43 124.7C664.097 124.7 664.93 124.833 665.93 125.1C666.997 125.3 668.064 125.6 669.13 126C670.197 126.333 671.164 126.7 672.03 127.1C672.897 127.5 673.497 127.9 673.83 128.3C671.83 130.833 670.097 133.2 668.63 135.4C667.23 137.533 665.697 140 664.03 142.8C665.364 142.8 666.697 142.767 668.03 142.7C669.43 142.633 670.83 142.533 672.23 142.4C672.564 142.733 672.83 143.167 673.03 143.7C673.23 144.167 673.33 144.667 673.33 145.2C670.064 146.4 666.097 147.067 661.43 147.2C659.764 150.4 658.264 153.6 656.93 156.8C655.664 159.933 654.564 162.967 653.63 165.9C652.764 168.833 652.064 171.6 651.53 174.2C651.064 176.8 650.83 179.133 650.83 181.2C650.83 184.133 651.93 185.767 654.13 186.1C656.13 185.833 658.03 185.333 659.83 184.6C661.63 183.867 663.23 182.933 664.63 181.8C665.03 182.4 665.264 182.9 665.33 183.3C664.93 183.9 664.23 184.6 663.23 185.4C662.297 186.2 661.264 186.967 660.13 187.7C658.997 188.5 657.897 189.167 656.83 189.7C655.764 190.233 654.964 190.533 654.43 190.6C652.764 190.533 651.097 190.167 649.43 189.5C647.764 188.833 646.23 188 644.83 187C643.497 186 642.397 184.9 641.53 183.7C640.664 182.433 640.23 181.2 640.23 180C640.23 178.4 640.43 176.4 640.83 174C641.297 171.533 641.93 168.867 642.73 166C643.53 163.133 644.464 160.133 645.53 157C646.597 153.867 647.764 150.767 649.03 147.7H643.33ZM730.387 155.3C729.32 155.367 728.02 156.067 726.487 157.4C724.953 158.667 723.287 160.333 721.487 162.4C719.753 164.4 717.92 166.633 715.987 169.1C714.12 171.567 712.287 174.033 710.487 176.5C708.753 178.9 707.12 181.167 705.587 183.3C704.053 185.433 702.753 187.133 701.687 188.4C700.22 187.8 698.953 186.933 697.887 185.8C696.82 184.6 696.053 183.133 695.587 181.4C695.92 179.333 696.387 177.2 696.987 175C697.587 172.733 698.353 170.4 699.287 168C700.287 165.6 701.487 163.1 702.887 160.5C704.353 157.833 706.12 155.033 708.187 152.1C707.187 152.167 705.82 152.9 704.087 154.3C702.353 155.633 700.487 157.4 698.487 159.6C696.487 161.733 694.42 164.167 692.287 166.9C690.153 169.567 688.153 172.2 686.287 174.8C683.82 178.267 681.753 181.3 680.087 183.9C678.487 186.5 677.32 188.033 676.587 188.5C674.853 187.233 673.653 185.867 672.987 184.4C672.32 182.933 671.82 181.3 671.487 179.5C671.553 177.9 671.787 175.9 672.187 173.5C672.653 171.1 673.287 168.633 674.087 166.1C675.62 161.233 677.587 156.4 679.987 151.6C682.453 146.8 684.82 142.4 687.087 138.4C688.953 138.8 690.62 139.433 692.087 140.3C693.62 141.167 695.22 142.433 696.887 144.1C696.22 146.167 695.187 148.367 693.787 150.7C692.387 152.967 690.92 155.367 689.387 157.9C687.853 160.433 686.453 163.033 685.187 165.7C683.92 168.367 683.087 171.067 682.687 173.8C684.553 171.133 686.753 168.067 689.287 164.6C691.887 161.133 694.52 157.867 697.187 154.8C699.92 151.733 702.62 149.133 705.287 147C707.953 144.867 710.353 143.8 712.487 143.8C713.287 143.8 714.153 143.933 715.087 144.2C716.02 144.467 716.887 144.8 717.687 145.2C718.487 145.6 719.153 146 719.687 146.4C720.22 146.733 720.52 147 720.587 147.2C720.253 148.533 719.453 150.367 718.187 152.7C716.987 154.967 715.687 157.367 714.287 159.9C712.887 162.433 711.587 164.9 710.387 167.3C709.187 169.633 708.487 171.5 708.287 172.9C711.553 168.433 714.62 164.4 717.487 160.8C720.353 157.133 723.053 154 725.587 151.4C728.12 148.8 730.453 146.8 732.587 145.4C734.787 144 736.853 143.3 738.787 143.3C740.12 143.3 741.353 143.667 742.487 144.4C743.687 145.067 744.52 146.067 744.987 147.4C744.387 149.4 743.387 151.8 741.987 154.6C740.653 157.4 739.287 160.367 737.887 163.5C736.487 166.567 735.22 169.6 734.087 172.6C733.02 175.6 732.487 178.3 732.487 180.7C732.487 182.1 732.687 183.033 733.087 183.5C733.487 183.9 734.053 184.1 734.787 184.1C735.587 184.1 736.32 183.967 736.987 183.7C737.72 183.367 738.253 183.2 738.587 183.2C738.987 183.467 739.22 183.8 739.287 184.2C739.353 184.6 739.387 184.967 739.387 185.3C738.053 186.367 736.687 187.233 735.287 187.9C733.887 188.633 732.32 189 730.587 189C728.987 189 727.653 188.733 726.587 188.2C725.587 187.667 724.753 186.933 724.087 186C723.42 185.067 722.953 184 722.687 182.8C722.42 181.6 722.287 180.3 722.287 178.9C722.287 176.633 722.587 174.4 723.187 172.2C723.787 169.933 724.487 167.8 725.287 165.8C726.153 163.733 727.053 161.833 727.987 160.1C728.92 158.3 729.72 156.7 730.387 155.3ZM783.552 145.6C784.218 145.6 784.985 145.733 785.852 146C786.785 146.2 787.618 146.5 788.352 146.9C789.085 147.233 789.685 147.6 790.152 148C790.685 148.4 790.952 148.767 790.952 149.1C789.618 151.9 788.385 154.733 787.252 157.6C786.118 160.4 785.152 163.1 784.352 165.7C783.552 168.3 782.918 170.733 782.452 173C782.052 175.267 781.852 177.233 781.852 178.9C781.852 180.767 782.052 182.333 782.452 183.6C782.852 184.8 783.518 185.667 784.452 186.2C783.652 186.733 782.618 187.167 781.352 187.5C780.085 187.833 778.952 188 777.952 188C774.352 188 772.552 185.533 772.552 180.6C772.552 176.8 773.818 171.6 776.352 165C775.018 168.067 773.485 170.967 771.752 173.7C770.018 176.367 768.252 178.733 766.452 180.8C764.652 182.867 762.818 184.567 760.952 185.9C759.152 187.167 757.485 187.933 755.952 188.2C753.485 188.067 751.485 186.9 749.952 184.7C748.418 182.433 747.652 179.567 747.652 176.1C747.652 172.367 748.452 168.433 750.052 164.3C751.652 160.167 753.685 156.333 756.152 152.8C758.685 149.267 761.418 146.333 764.352 144C767.285 141.6 770.118 140.333 772.852 140.2C773.518 140.4 774.252 140.8 775.052 141.4C775.918 142 776.718 142.7 777.452 143.5C778.252 144.3 778.918 145.133 779.452 146C779.985 146.8 780.285 147.5 780.352 148.1C777.685 148.5 774.918 149.8 772.052 152C769.252 154.2 766.685 156.867 764.352 160C762.085 163.067 760.218 166.367 758.752 169.9C757.285 173.433 756.552 176.733 756.552 179.8C756.552 181.067 757.018 181.867 757.952 182.2C759.885 181.8 762.118 180.167 764.652 177.3C767.185 174.367 770.252 169.867 773.852 163.8C774.518 162.6 775.252 161.267 776.052 159.8C776.918 158.333 777.785 156.8 778.652 155.2C779.518 153.6 780.352 152 781.152 150.4C782.018 148.733 782.818 147.133 783.552 145.6ZM800.264 147.7C799.931 147.3 799.631 146.467 799.364 145.2C799.097 143.867 798.964 142.733 798.964 141.8C800.697 141.933 802.364 142.067 803.964 142.2C805.564 142.267 807.031 142.333 808.364 142.4C809.364 140.4 810.431 138.433 811.564 136.5C812.764 134.5 813.897 132.7 814.964 131.1C816.097 129.433 817.131 128.033 818.064 126.9C819.064 125.767 819.831 125.033 820.364 124.7C821.031 124.7 821.864 124.833 822.864 125.1C823.931 125.3 824.997 125.6 826.064 126C827.131 126.333 828.097 126.7 828.964 127.1C829.831 127.5 830.431 127.9 830.764 128.3C828.764 130.833 827.031 133.2 825.564 135.4C824.164 137.533 822.631 140 820.964 142.8C822.297 142.8 823.631 142.767 824.964 142.7C826.364 142.633 827.764 142.533 829.164 142.4C829.497 142.733 829.764 143.167 829.964 143.7C830.164 144.167 830.264 144.667 830.264 145.2C826.997 146.4 823.031 147.067 818.364 147.2C816.697 150.4 815.197 153.6 813.864 156.8C812.597 159.933 811.497 162.967 810.564 165.9C809.697 168.833 808.997 171.6 808.464 174.2C807.997 176.8 807.764 179.133 807.764 181.2C807.764 184.133 808.864 185.767 811.064 186.1C813.064 185.833 814.964 185.333 816.764 184.6C818.564 183.867 820.164 182.933 821.564 181.8C821.964 182.4 822.197 182.9 822.264 183.3C821.864 183.9 821.164 184.6 820.164 185.4C819.231 186.2 818.197 186.967 817.064 187.7C815.931 188.5 814.831 189.167 813.764 189.7C812.697 190.233 811.897 190.533 811.364 190.6C809.697 190.533 808.031 190.167 806.364 189.5C804.697 188.833 803.164 188 801.764 187C800.431 186 799.331 184.9 798.464 183.7C797.597 182.433 797.164 181.2 797.164 180C797.164 178.4 797.364 176.4 797.764 174C798.231 171.533 798.864 168.867 799.664 166C800.464 163.133 801.397 160.133 802.464 157C803.531 153.867 804.697 150.767 805.964 147.7H800.264ZM864.02 145.6C864.687 145.6 865.454 145.733 866.32 146C867.254 146.2 868.087 146.5 868.82 146.9C869.554 147.233 870.154 147.6 870.62 148C871.154 148.4 871.42 148.767 871.42 149.1C870.087 151.9 868.854 154.733 867.72 157.6C866.587 160.4 865.62 163.1 864.82 165.7C864.02 168.3 863.387 170.733 862.92 173C862.52 175.267 862.32 177.233 862.32 178.9C862.32 180.767 862.52 182.333 862.92 183.6C863.32 184.8 863.987 185.667 864.92 186.2C864.12 186.733 863.087 187.167 861.82 187.5C860.554 187.833 859.42 188 858.42 188C854.82 188 853.02 185.533 853.02 180.6C853.02 176.8 854.287 171.6 856.82 165C855.487 168.067 853.954 170.967 852.22 173.7C850.487 176.367 848.72 178.733 846.92 180.8C845.12 182.867 843.287 184.567 841.42 185.9C839.62 187.167 837.954 187.933 836.42 188.2C833.954 188.067 831.954 186.9 830.42 184.7C828.887 182.433 828.12 179.567 828.12 176.1C828.12 172.367 828.92 168.433 830.52 164.3C832.12 160.167 834.154 156.333 836.62 152.8C839.154 149.267 841.887 146.333 844.82 144C847.754 141.6 850.587 140.333 853.32 140.2C853.987 140.4 854.72 140.8 855.52 141.4C856.387 142 857.187 142.7 857.92 143.5C858.72 144.3 859.387 145.133 859.92 146C860.454 146.8 860.754 147.5 860.82 148.1C858.154 148.5 855.387 149.8 852.52 152C849.72 154.2 847.154 156.867 844.82 160C842.554 163.067 840.687 166.367 839.22 169.9C837.754 173.433 837.02 176.733 837.02 179.8C837.02 181.067 837.487 181.867 838.42 182.2C840.354 181.8 842.587 180.167 845.12 177.3C847.654 174.367 850.72 169.867 854.32 163.8C854.987 162.6 855.72 161.267 856.52 159.8C857.387 158.333 858.254 156.8 859.12 155.2C859.987 153.6 860.82 152 861.62 150.4C862.487 148.733 863.287 147.133 864.02 145.6ZM878.124 180.8C879.124 178.6 880.324 175.767 881.724 172.3C883.124 168.833 884.591 165.1 886.124 161.1C887.658 157.033 889.224 152.9 890.824 148.7C892.424 144.433 893.924 140.4 895.324 136.6C896.724 132.8 897.924 129.4 898.924 126.4C899.991 123.4 900.758 121.1 901.224 119.5C897.024 121.233 893.424 123.867 890.424 127.4C887.424 130.933 885.158 135.367 883.624 140.7C882.091 140.167 880.691 139.233 879.424 137.9C878.158 136.5 877.324 134.767 876.924 132.7C877.591 129.633 878.824 126.833 880.624 124.3C882.491 121.767 884.824 119.6 887.624 117.8C890.424 116 893.658 114.633 897.324 113.7C900.991 112.7 904.924 112.2 909.124 112.2C914.458 112.2 919.358 113 923.824 114.6C928.291 116.133 932.124 118.3 935.324 121.1C938.524 123.9 941.024 127.267 942.824 131.2C944.624 135.133 945.524 139.5 945.524 144.3C945.524 150.833 944.324 157.067 941.924 163C939.524 168.933 936.258 174.167 932.124 178.7C928.058 183.233 923.324 186.833 917.924 189.5C912.524 192.233 906.858 193.6 900.924 193.6C895.458 193.6 890.758 192.5 886.824 190.3C882.958 188.167 880.058 185 878.124 180.8ZM913.424 117.2C910.091 117.2 906.924 117.667 903.924 118.6C906.858 119.667 909.291 120.8 911.224 122C913.158 123.133 914.491 124.033 915.224 124.7C914.691 125.433 913.891 126.733 912.824 128.6C911.824 130.467 910.624 132.733 909.224 135.4C907.891 138.067 906.458 141 904.924 144.2C903.391 147.333 901.891 150.567 900.424 153.9C896.624 162.367 893.858 169.033 892.124 173.9C890.458 178.767 889.624 182.133 889.624 184C890.558 184.333 891.691 184.567 893.024 184.7C894.358 184.833 895.791 184.9 897.324 184.9C902.724 184.9 907.824 183.667 912.624 181.2C917.491 178.667 921.724 175.3 925.324 171.1C928.991 166.9 931.858 162.033 933.924 156.5C936.058 150.9 937.124 145.033 937.124 138.9C937.124 132.033 934.991 126.7 930.724 122.9C926.458 119.1 920.691 117.2 913.424 117.2ZM984.656 144.6C984.39 148.733 983.656 152.3 982.456 155.3C981.256 158.233 979.523 160.833 977.256 163.1C975.056 165.3 972.356 167.3 969.156 169.1C965.956 170.9 962.223 172.633 957.956 174.3C957.956 174.7 957.923 175.133 957.856 175.6C957.856 176 957.856 176.433 957.856 176.9C957.856 177.767 957.923 178.667 958.056 179.6C958.19 180.533 958.423 181.4 958.756 182.2C959.09 183 959.556 183.667 960.156 184.2C960.756 184.667 961.523 184.9 962.456 184.9C964.256 184.9 966.023 184.5 967.756 183.7C969.49 182.9 971.123 181.933 972.656 180.8C974.256 179.6 975.723 178.333 977.056 177C978.456 175.6 979.69 174.333 980.756 173.2C981.423 173.8 981.99 174.367 982.456 174.9C979.456 178.9 976.156 182.233 972.556 184.9C969.023 187.5 965.656 189.167 962.456 189.9C957.856 189.367 954.256 187.7 951.656 184.9C949.123 182.033 947.856 178.6 947.856 174.6C947.856 171.867 948.223 169.1 948.956 166.3C949.756 163.433 950.823 160.7 952.156 158.1C953.556 155.433 955.156 152.933 956.956 150.6C958.823 148.267 960.79 146.233 962.856 144.5C964.99 142.767 967.156 141.4 969.356 140.4C971.623 139.4 973.856 138.9 976.056 138.9C979.123 139.3 981.99 141.2 984.656 144.6ZM977.756 147.9C975.956 148.167 974.09 148.9 972.156 150.1C970.223 151.3 968.39 152.9 966.656 154.9C964.99 156.9 963.456 159.233 962.056 161.9C960.656 164.567 959.556 167.433 958.756 170.5C964.09 167.833 968.523 164.567 972.056 160.7C975.59 156.767 977.49 152.5 977.756 147.9ZM994.102 150.6C994.102 149.4 994.169 148.267 994.302 147.2C994.502 146.133 994.869 145.233 995.402 144.5C995.936 143.7 996.669 143.1 997.602 142.7C998.536 142.233 999.769 142 1001.3 142C1002.24 142 1003.27 142.1 1004.4 142.3C1005.6 142.5 1006.47 142.867 1007 143.4C1006.74 144.533 1006.5 145.533 1006.3 146.4C1006.17 147.267 1006.04 148.233 1005.9 149.3C1005.84 150.3 1005.77 151.533 1005.7 153C1005.64 154.4 1005.57 156.233 1005.5 158.5C1005.37 163.033 1005.14 167.1 1004.8 170.7C1004.54 174.233 1003.87 177.767 1002.8 181.3C1002.8 181.567 1002.9 181.7 1003.1 181.7C1004.1 180.967 1005.24 179.9 1006.5 178.5C1007.77 177.1 1009.1 175.533 1010.5 173.8C1011.9 172 1013.3 170.1 1014.7 168.1C1016.1 166.1 1017.4 164.133 1018.6 162.2C1020.2 159.4 1021.97 155.9 1023.9 151.7C1025.84 147.5 1027.44 143 1028.7 138.2C1029.1 138.2 1029.6 138.3 1030.2 138.5C1030.87 138.633 1031.5 138.833 1032.1 139.1C1032.77 139.3 1033.34 139.533 1033.8 139.8C1034.34 140.067 1034.7 140.3 1034.9 140.5C1034.77 143.367 1034.07 146.3 1032.8 149.3C1031.6 152.3 1030.14 155.2 1028.4 158C1026.67 160.8 1024.84 163.433 1022.9 165.9C1020.97 168.367 1019.2 170.5 1017.6 172.3C1014.4 176.033 1011.17 179.367 1007.9 182.3C1004.7 185.233 1000.87 188.067 996.402 190.8C994.669 190.133 993.302 189.233 992.302 188.1C991.302 187.033 990.802 185.9 990.802 184.7C990.802 183.9 990.969 183 991.302 182C991.702 180.933 992.136 179.6 992.602 178C993.069 176.333 993.469 174.267 993.802 171.8C994.202 169.333 994.402 166.2 994.402 162.4C994.402 160.2 994.336 158 994.202 155.8C994.136 153.533 994.102 151.8 994.102 150.6Z" fill="#1D2D44"/>
<path d="M530.416 252.41C530.416 250.099 532.06 248.927 535.348 248.895H568.014C571.008 248.895 573.922 249.594 576.754 250.994C581.865 253.566 584.436 257.749 584.469 263.543C584.469 267.97 582.516 271.73 578.609 274.822C576.884 276.157 574.996 277.215 572.945 277.996C575.712 279.656 578.154 282.293 580.27 285.906C584.306 292.905 587.317 297.788 589.303 300.555C591.321 303.322 593.323 304.998 595.309 305.584V308.172C590.035 308.66 585.934 307.651 583.004 305.145C580.107 302.638 577.177 298.439 574.215 292.547C571.253 286.622 569.365 282.993 568.551 281.658C567.737 280.324 566.956 279.656 566.207 279.656C565.491 279.624 564.889 280.193 564.4 281.365C563.945 282.537 563.57 283.27 563.277 283.562C562.789 284.018 562.008 284.262 560.934 284.295C559.892 284.295 559.062 283.823 558.443 282.879C557.857 281.935 557.564 281.04 557.564 280.193C557.564 277.426 559.924 276.043 564.645 276.043C565.621 276.043 566.435 276.076 567.086 276.141C571.253 275.945 574.15 273.895 575.777 269.988C576.493 268.198 576.852 266.261 576.852 264.178C576.852 259.165 575.029 255.633 571.383 253.582C569.43 252.508 567.167 251.971 564.596 251.971H556.051V299.627C556.051 301.743 556.23 303.012 556.588 303.436C556.946 303.826 557.646 304.119 558.688 304.314L562.008 304.998V307H543.014V305.096L545.846 304.51C547.571 304.152 548.596 303.484 548.922 302.508C549.28 301.531 549.459 299.66 549.459 296.893V258.221C548.808 253.956 547.083 251.759 544.283 251.629C543.307 251.629 542.021 252.264 540.426 253.533C538.245 255.291 536.357 256.186 534.762 256.219C533.167 256.219 532.044 255.796 531.393 254.949C530.742 254.07 530.416 253.224 530.416 252.41ZM618.844 266.668C625.094 266.668 629.016 269.109 630.611 273.992C631.327 276.206 631.523 278.37 631.197 280.486H607.809C607.385 282.83 607.174 285.011 607.174 287.029C607.174 293.898 609.225 298.585 613.326 301.092C615.507 302.426 618.128 303.094 621.188 303.094C624.378 303.094 627.584 301.922 630.807 299.578L632.223 301.043L630.855 302.654C627.145 306.528 622.75 308.481 617.672 308.514C614.645 308.514 611.845 307.602 609.273 305.779C604.098 302.101 601.51 296.535 601.51 289.08C601.51 281.202 603.707 275.229 608.102 271.16C611.422 268.263 615.003 266.766 618.844 266.668ZM608.297 277.312H624.898C624.898 274.741 624.312 272.837 623.141 271.6C621.969 270.33 620.471 269.695 618.648 269.695C615.816 269.695 613.505 270.542 611.715 272.234C609.924 273.895 608.785 275.587 608.297 277.312ZM650.191 239.666V295.916C650.191 298.846 650.289 300.652 650.484 301.336C650.842 302.638 651.803 303.615 653.365 304.266C654.212 304.591 655.302 304.9 656.637 305.193V307H638.229V305.193C638.424 305.128 639.124 304.982 640.328 304.754C643.03 304.201 644.381 302.247 644.381 298.895V249.627C644.381 247.641 644.251 246.404 643.99 245.916C643.437 244.874 641.679 244.354 638.717 244.354L638.473 242.791L650.191 239.666ZM679.098 266.668C685.348 266.668 689.27 269.109 690.865 273.992C691.581 276.206 691.777 278.37 691.451 280.486H668.062C667.639 282.83 667.428 285.011 667.428 287.029C667.428 293.898 669.479 298.585 673.58 301.092C675.761 302.426 678.382 303.094 681.441 303.094C684.632 303.094 687.838 301.922 691.061 299.578L692.477 301.043L691.109 302.654C687.398 306.528 683.004 308.481 677.926 308.514C674.898 308.514 672.099 307.602 669.527 305.779C664.352 302.101 661.764 296.535 661.764 289.08C661.764 281.202 663.961 275.229 668.355 271.16C671.676 268.263 675.257 266.766 679.098 266.668ZM668.551 277.312H685.152C685.152 274.741 684.566 272.837 683.395 271.6C682.223 270.33 680.725 269.695 678.902 269.695C676.07 269.695 673.759 270.542 671.969 272.234C670.178 273.895 669.039 275.587 668.551 277.312ZM694.527 269.988V267.742H711.129V269.988C708.362 269.988 706.881 270.688 706.686 272.088C706.588 272.902 706.897 274.318 707.613 276.336L716.012 299.383L725.289 273.553C725.908 271.893 725.273 270.802 723.385 270.281C722.701 270.086 721.936 269.988 721.09 269.988V267.742H734.615V269.988C732.434 270.053 730.921 270.737 730.074 272.039C729.716 272.592 729.13 273.927 728.316 276.043L716.305 307.537H713.229L701.656 277.459C700.484 274.399 699.378 272.397 698.336 271.453C697.327 270.477 696.057 269.988 694.527 269.988ZM737.057 288.299C737.057 282.374 738.749 277.361 742.135 273.26C745.52 269.126 749.638 267.059 754.488 267.059C759.404 267.059 763.701 268.979 767.379 272.82C771.057 276.661 772.896 281.495 772.896 287.322C772.896 293.149 771.301 297.999 768.111 301.873C764.433 306.333 760.201 308.562 755.416 308.562C750.305 308.595 745.976 306.691 742.428 302.85C738.88 298.976 737.089 294.126 737.057 288.299ZM753.756 270.721C750.305 270.721 747.652 272.283 745.797 275.408C743.941 278.533 743.014 282.423 743.014 287.078C743.014 291.701 744.186 295.835 746.529 299.48C748.906 303.094 752.031 304.917 755.904 304.949C759.518 304.949 762.219 303.37 764.01 300.213C765.833 297.023 766.744 293.279 766.744 288.982C766.744 284.393 765.637 280.21 763.424 276.434C761.21 272.658 757.988 270.753 753.756 270.721ZM803.512 271.209C798.857 271.209 794.771 272.446 791.256 274.92V296.795C791.256 299.79 791.467 301.743 791.891 302.654C792.314 303.533 793.307 304.135 794.869 304.461L797.75 304.998V307H779.244V304.949L782.613 304.217C783.818 303.956 784.566 303.582 784.859 303.094C785.12 302.54 785.25 301.352 785.25 299.529V277.557C785.25 275.213 785.038 273.732 784.615 273.113C783.834 272.234 782.125 271.779 779.488 271.746L779.244 270.086L791.256 267.059V271.355C796.79 268.328 801.526 266.814 805.465 266.814C810.413 266.814 813.749 269.028 815.475 273.455C816.321 275.604 816.744 278.224 816.744 281.316V296.893C816.744 299.887 816.956 301.84 817.379 302.752C817.835 303.631 818.811 304.217 820.309 304.51L823.189 305.096V307H804.732V304.998L808.053 304.314C809.29 304.054 810.038 303.663 810.299 303.143C810.559 302.589 810.689 301.401 810.689 299.578V282.879C810.624 275.164 808.232 271.274 803.512 271.209ZM852.389 269.598L852.145 277.166H849.605C849.41 273.813 848.401 271.583 846.578 270.477C845.471 269.826 844.088 269.5 842.428 269.5C840.637 269.5 839.27 270.07 838.326 271.209C837.415 272.316 836.959 273.748 836.959 275.506C836.992 277.557 838.18 279.559 840.523 281.512L846.969 287.127C849.638 289.503 851.363 291.489 852.145 293.084C852.958 294.646 853.365 296.209 853.365 297.771C853.365 301.548 851.803 304.445 848.678 306.463C846.432 307.895 843.6 308.595 840.182 308.562C836.796 308.562 833.443 307.7 830.123 305.975L829.537 298.26H831.93C832.581 301.059 833.443 303.012 834.518 304.119C835.592 305.193 837.415 305.73 839.986 305.73C842.493 305.73 844.43 305.014 845.797 303.582C847.164 302.15 847.831 300.652 847.799 299.09C847.799 296.909 846.334 294.533 843.404 291.961L836.959 286.443C833.053 283.123 831.083 279.949 831.051 276.922C831.051 273.341 832.255 270.77 834.664 269.207C837.105 267.612 839.905 266.814 843.062 266.814C846.35 266.814 849.459 267.742 852.389 269.598ZM879.537 289.568C879.537 280.291 882.646 273.732 888.863 269.891C892.216 267.84 895.927 266.814 899.996 266.814C902.405 266.814 904.846 267.319 907.32 268.328L908.492 268.816V250.262C908.492 248.016 908.395 246.648 908.199 246.16C907.743 245.021 905.921 244.451 902.73 244.451L902.486 242.791L914.498 239.764V301.092C914.498 303.305 915.621 304.412 917.867 304.412C918.03 304.412 918.697 304.347 919.869 304.217C921.074 304.054 921.725 303.973 921.822 303.973V305.975L910.494 308.611L908.736 303.68C908.671 303.712 908.508 303.842 908.248 304.07C904.57 307.098 900.924 308.611 897.311 308.611C889.791 308.611 884.566 305.535 881.637 299.383C880.237 296.388 879.537 293.117 879.537 289.568ZM885.836 287.127C885.836 293.898 887.415 298.764 890.572 301.727C892.623 303.615 895.162 304.575 898.189 304.607C901.249 304.607 903.723 303.745 905.611 302.02C906.49 301.206 907.402 300.164 908.346 298.895V273.797C907.597 272.267 906.035 271.176 903.658 270.525C902.551 270.232 901.363 270.086 900.094 270.086C895.113 270.086 891.272 272.511 888.57 277.361C886.812 280.617 885.901 283.872 885.836 287.127ZM944.332 266.668C950.582 266.668 954.505 269.109 956.1 273.992C956.816 276.206 957.011 278.37 956.686 280.486H933.297C932.874 282.83 932.662 285.011 932.662 287.029C932.662 293.898 934.713 298.585 938.814 301.092C940.995 302.426 943.616 303.094 946.676 303.094C949.866 303.094 953.072 301.922 956.295 299.578L957.711 301.043L956.344 302.654C952.633 306.528 948.238 308.481 943.16 308.514C940.133 308.514 937.333 307.602 934.762 305.779C929.586 302.101 926.998 296.535 926.998 289.08C926.998 281.202 929.195 275.229 933.59 271.16C936.91 268.263 940.491 266.766 944.332 266.668ZM933.785 277.312H950.387C950.387 274.741 949.801 272.837 948.629 271.6C947.457 270.33 945.96 269.695 944.137 269.695C941.305 269.695 938.993 270.542 937.203 272.234C935.413 273.895 934.273 275.587 933.785 277.312ZM987.35 269.598L987.105 277.166H984.566C984.371 273.813 983.362 271.583 981.539 270.477C980.432 269.826 979.049 269.5 977.389 269.5C975.598 269.5 974.231 270.07 973.287 271.209C972.376 272.316 971.92 273.748 971.92 275.506C971.952 277.557 973.141 279.559 975.484 281.512L981.93 287.127C984.599 289.503 986.324 291.489 987.105 293.084C987.919 294.646 988.326 296.209 988.326 297.771C988.326 301.548 986.764 304.445 983.639 306.463C981.393 307.895 978.561 308.595 975.143 308.562C971.757 308.562 968.404 307.7 965.084 305.975L964.498 298.26H966.891C967.542 301.059 968.404 303.012 969.479 304.119C970.553 305.193 972.376 305.73 974.947 305.73C977.454 305.73 979.391 305.014 980.758 303.582C982.125 302.15 982.792 300.652 982.76 299.09C982.76 296.909 981.295 294.533 978.365 291.961L971.92 286.443C968.014 283.123 966.044 279.949 966.012 276.922C966.012 273.341 967.216 270.77 969.625 269.207C972.066 267.612 974.866 266.814 978.023 266.814C981.311 266.814 984.42 267.742 987.35 269.598ZM1014.5 289.568C1014.5 280.291 1017.61 273.732 1023.82 269.891C1027.18 267.84 1030.89 266.814 1034.96 266.814C1037.37 266.814 1039.81 267.319 1042.28 268.328L1043.45 268.816V250.262C1043.45 248.016 1043.36 246.648 1043.16 246.16C1042.7 245.021 1040.88 244.451 1037.69 244.451L1037.45 242.791L1049.46 239.764V301.092C1049.46 303.305 1050.58 304.412 1052.83 304.412C1052.99 304.412 1053.66 304.347 1054.83 304.217C1056.03 304.054 1056.69 303.973 1056.78 303.973V305.975L1045.46 308.611L1043.7 303.68C1043.63 303.712 1043.47 303.842 1043.21 304.07C1039.53 307.098 1035.88 308.611 1032.27 308.611C1024.75 308.611 1019.53 305.535 1016.6 299.383C1015.2 296.388 1014.5 293.117 1014.5 289.568ZM1020.8 287.127C1020.8 293.898 1022.38 298.764 1025.53 301.727C1027.58 303.615 1030.12 304.575 1033.15 304.607C1036.21 304.607 1038.68 303.745 1040.57 302.02C1041.45 301.206 1042.36 300.164 1043.31 298.895V273.797C1042.56 272.267 1041 271.176 1038.62 270.525C1037.51 270.232 1036.32 270.086 1035.05 270.086C1030.07 270.086 1026.23 272.511 1023.53 277.361C1021.77 280.617 1020.86 283.872 1020.8 287.127ZM1079.29 266.668C1085.54 266.668 1089.47 269.109 1091.06 273.992C1091.78 276.206 1091.97 278.37 1091.65 280.486H1068.26C1067.83 282.83 1067.62 285.011 1067.62 287.029C1067.62 293.898 1069.67 298.585 1073.78 301.092C1075.96 302.426 1078.58 303.094 1081.64 303.094C1084.83 303.094 1088.03 301.922 1091.26 299.578L1092.67 301.043L1091.3 302.654C1087.59 306.528 1083.2 308.481 1078.12 308.514C1075.09 308.514 1072.29 307.602 1069.72 305.779C1064.55 302.101 1061.96 296.535 1061.96 289.08C1061.96 281.202 1064.16 275.229 1068.55 271.16C1071.87 268.263 1075.45 266.766 1079.29 266.668ZM1068.75 277.312H1085.35C1085.35 274.741 1084.76 272.837 1083.59 271.6C1082.42 270.33 1080.92 269.695 1079.1 269.695C1076.27 269.695 1073.95 270.542 1072.16 272.234C1070.37 273.895 1069.23 275.587 1068.75 277.312ZM1099.65 271.404V269.012L1105.61 267.742V258.758C1105.68 246.062 1110.53 239.699 1120.16 239.666C1122.83 239.666 1125.27 240.089 1127.49 240.936C1129.63 241.847 1130.71 243.084 1130.71 244.646C1130.74 246.176 1130.17 247.169 1129 247.625C1128.61 247.755 1128.22 247.837 1127.83 247.869C1126.4 247.837 1124.96 246.909 1123.53 245.086C1122.1 243.23 1120.67 242.303 1119.23 242.303C1116.66 242.303 1114.71 243.182 1113.38 244.939C1112.07 246.665 1111.42 249.497 1111.42 253.436V267.742H1121.77V271.404H1111.42V295.77C1111.42 298.797 1111.68 300.88 1112.2 302.02C1112.82 303.354 1114.92 304.412 1118.5 305.193V307H1099.7V305.193C1099.9 305.128 1100.57 304.949 1101.71 304.656C1104.28 304.005 1105.58 302.101 1105.61 298.943V271.404H1099.65ZM1138.03 267.059V296.795C1138.03 299.79 1138.24 301.743 1138.67 302.654C1139.09 303.533 1140.08 304.135 1141.65 304.461L1144.53 304.998V307H1126.02V304.949L1129.39 304.217C1130.6 303.956 1131.34 303.582 1131.64 303.094C1131.9 302.54 1132.03 301.352 1132.03 299.529V277.557C1132.03 275.311 1131.93 273.943 1131.73 273.455C1131.28 272.316 1129.46 271.746 1126.27 271.746L1126.02 270.086L1138.03 267.059ZM1129.68 247.967C1129.68 246.827 1130.06 245.867 1130.81 245.086C1131.59 244.272 1132.55 243.865 1133.69 243.865C1134.79 243.865 1135.74 244.272 1136.52 245.086C1137.33 245.867 1137.74 246.827 1137.74 247.967C1137.74 249.074 1137.33 250.018 1136.52 250.799C1135.74 251.548 1134.79 251.922 1133.69 251.922C1132.55 251.922 1131.59 251.548 1130.81 250.799C1130.06 250.018 1129.68 249.074 1129.68 247.967ZM1174.17 269.598L1173.92 277.166H1171.38C1171.19 273.813 1170.18 271.583 1168.36 270.477C1167.25 269.826 1165.87 269.5 1164.21 269.5C1162.41 269.5 1161.05 270.07 1160.1 271.209C1159.19 272.316 1158.74 273.748 1158.74 275.506C1158.77 277.557 1159.96 279.559 1162.3 281.512L1168.75 287.127C1171.42 289.503 1173.14 291.489 1173.92 293.084C1174.74 294.646 1175.14 296.209 1175.14 297.771C1175.14 301.548 1173.58 304.445 1170.46 306.463C1168.21 307.895 1165.38 308.595 1161.96 308.562C1158.57 308.562 1155.22 307.7 1151.9 305.975L1151.31 298.26H1153.71C1154.36 301.059 1155.22 303.012 1156.29 304.119C1157.37 305.193 1159.19 305.73 1161.76 305.73C1164.27 305.73 1166.21 305.014 1167.57 303.582C1168.94 302.15 1169.61 300.652 1169.58 299.09C1169.58 296.909 1168.11 294.533 1165.18 291.961L1158.74 286.443C1154.83 283.123 1152.86 279.949 1152.83 276.922C1152.83 273.341 1154.03 270.77 1156.44 269.207C1158.88 267.612 1161.68 266.814 1164.84 266.814C1168.13 266.814 1171.24 267.742 1174.17 269.598Z" fill="#00B4D8"/>
</svg>
