<svg width="858" height="858" viewBox="0 0 858 858" fill="none" xmlns="http://www.w3.org/2000/svg">
<path d="M427.336 836.035C643.833 836.035 819.339 744.648 819.339 631.917C819.339 519.186 643.833 427.799 427.336 427.799C210.838 427.799 35.3325 519.186 35.3325 631.917C35.3325 744.648 210.838 836.035 427.336 836.035Z" fill="#F5F5F5"/>
<path d="M678.472 658.584C736.217 658.584 783.028 631.556 783.028 598.215C783.028 564.874 736.217 537.846 678.472 537.846C620.727 537.846 573.916 564.874 573.916 598.215C573.916 631.556 620.727 658.584 678.472 658.584Z" fill="#E6E6E6"/>
<path d="M257.4 562.385C297.4 585.482 299.03 623.612 259.013 646.709C218.996 669.806 152.535 669.12 112.518 646.023C72.501 622.925 72.5182 585.482 112.518 562.385C152.518 539.287 217.366 539.287 257.4 562.385Z" fill="#E6E6E6"/>
<path d="M583.68 686.846L452.372 611.033C450.069 609.865 447.524 609.256 444.942 609.256C442.36 609.256 439.814 609.865 437.511 611.033L306.203 686.846C302.102 689.214 302.102 693.058 306.203 695.426L366.006 729.952L310.15 762.196C298.807 768.734 280.343 768.734 268.966 762.196L181.107 711.471C176.268 708.674 173.591 705.156 173.591 701.587C173.591 698.017 176.268 694.482 181.107 691.685L258.962 646.726C259.372 646.512 259.734 646.216 260.027 645.858C260.32 645.5 260.538 645.086 260.667 644.641C260.796 644.197 260.834 643.731 260.778 643.271C260.722 642.812 260.574 642.368 260.342 641.968C260.111 641.567 259.8 641.217 259.43 640.939C259.06 640.662 258.637 640.462 258.187 640.352C257.738 640.241 257.271 640.223 256.814 640.299C256.357 640.374 255.92 640.54 255.53 640.789L177.709 685.714C170.656 689.798 166.761 695.426 166.761 701.569C166.761 707.713 170.656 713.324 177.709 717.408L265.568 768.133C272.998 771.962 281.234 773.96 289.592 773.96C297.95 773.96 306.187 771.962 313.616 768.133L372.904 733.916L437.58 771.239C439.883 772.407 442.428 773.016 445.01 773.016C447.592 773.016 450.138 772.407 452.441 771.239L583.749 695.426C587.782 693.058 587.782 689.214 583.68 686.846Z" fill="#E6E6E6"/>
<path d="M733.728 569.866C733.728 569.866 738.498 499.202 737.16 473.153C736.044 452.561 733.247 443.981 732.664 439.33C732.664 439.33 727.601 391.282 727.19 350.287C726.984 330.587 725.165 316.585 714.371 293.179L644.993 309.772C643.586 320.171 638.816 389.326 637.683 450.81C636.705 504.641 638.232 551.763 638.232 551.763V554.594C638.232 557.752 637.546 559.948 635.521 564.993C632.99 571.493 629.356 577.507 624.779 582.771C623.354 584.315 613.453 592.964 612.149 594.783C607.893 599.742 616.714 602.539 623.252 601.647C630.116 600.72 640.858 598.095 643.844 593.908C645.868 591.093 647.396 581.295 649.472 578.464C656.49 568.888 659.373 564.736 659.425 561.715C659.528 556.19 657.623 554.011 656.937 550.888C657.503 544.367 671.591 490.742 671.832 471.746C671.952 462.702 671.334 450.244 671.334 450.244L682.248 387.576C686.469 403.226 693.882 442.076 696.387 456.988C699.425 475.212 707.37 521.99 712.072 549.892C713.873 560.652 714.714 566.091 715.504 571.085L715.692 573.213C715.847 575.924 717.82 604.924 718.884 610.965C721.115 623.646 732.389 622.05 734.191 611.788C735.735 603.071 733.813 576.027 733.762 572.715L733.728 569.866Z" fill="#FFA8A7"/>
<path d="M733.727 569.866C736.919 569.866 734.826 582.239 735.649 590.15C736.525 598.644 739.304 604.856 740.111 611.805C741.193 617.88 740.259 624.141 737.451 629.635C735.238 634.783 724.084 641.647 719.845 634.422C715.607 627.198 714.697 618.841 715.195 610.913C715.692 602.985 715.195 597.666 715.349 591.437C715.504 585.945 711.471 571.926 715.607 571.136L715.795 573.264C717.288 576.233 732.355 576.816 733.865 572.801L733.727 569.866Z" fill="#37474F"/>
<path d="M660.145 568.459C661.123 572.423 660.145 583.303 660.145 583.303C660.145 583.303 658.429 587.061 652.303 589.549L649.558 574.414L660.145 568.459Z" fill="#263238"/>
<path d="M652.269 589.549L638.781 585.122L635.521 573.144L650.69 580.815L652.269 589.549Z" fill="black"/>
<path d="M638.232 554.594V551.763C636.396 552.655 632.363 567.43 626.906 577.503C621.93 586.752 612.063 591.9 608.854 595.932C604.564 601.304 612.904 608.253 626.271 605.388C632.912 603.963 642.968 599.725 645.697 595.246C648.425 590.767 649.334 582.531 651.565 579.236C653.796 575.941 659.099 572.149 660.145 568.408C661.017 565.031 661.017 561.488 660.145 558.112C659.099 554.68 658.172 550.579 657.005 550.956V553.547C656.113 555.366 652.869 557.494 646.126 557.872C642.831 558.026 639.708 557.528 638.232 554.594Z" fill="#37474F"/>
<path d="M643.586 308.88C643.586 308.88 639.004 359.794 637.529 404.873C636.053 449.952 637.374 508.125 637.374 508.125C637.374 508.125 642.024 511.454 652.269 511.917C662.514 512.38 665.997 508.966 665.997 508.966C665.997 508.966 672.26 488.528 673.239 474.148C673.859 466.364 673.859 458.543 673.239 450.759L682.385 390.596C682.385 390.596 693.985 449.832 695.306 456.988C696.628 464.144 707.73 527.447 707.73 527.447C707.73 527.447 712.089 531.462 723.277 531.256C733.178 531.068 736.044 527.516 736.044 527.516C736.044 527.516 738.429 488.7 737.88 472.123C737.417 457.503 734.071 445.868 733.402 436.379C732.732 426.889 732.355 372.887 731.686 352.295C731.016 331.703 729.3 314.028 711.677 289.249L643.586 308.88Z" fill="#455A64"/>
<path d="M682.453 390.647L674.834 352.895C674.834 352.895 661.57 349.463 655.375 341.33C655.375 341.33 657.091 350.321 670.819 356.07L678.919 393.616L676.104 432.432L682.453 390.647Z" fill="#37474F"/>
<path d="M546.649 299.493C551.536 300.239 556.528 299.869 561.252 298.412C559.177 297.375 557.235 296.09 555.469 294.586C554.659 293.935 554.134 292.994 554.006 291.962C553.878 290.931 554.156 289.89 554.783 289.06C555.418 288.374 556.996 289.97 560.566 290.982C565.13 292.269 568.442 292.544 572.835 295.083C574.492 296.048 576.44 296.388 578.326 296.044C589.034 294.037 614.002 282.316 625.448 276.207C627.781 266.684 631.831 252.681 636.825 235.212C641.441 219.116 648.837 212.08 660.643 212.338L658.944 247.293C658.944 247.293 653.315 271.437 646.348 291.154C645.13 294.586 640.239 298.584 631.282 301.913C619.682 306.22 605.679 310.287 588.571 314.972C581.638 316.946 574.556 318.352 567.395 319.176C549.309 320.72 542.376 315.744 539.939 312.175C533.007 302.325 537.108 297.589 546.649 299.493Z" fill="#FFA8A7"/>
<path d="M691.067 212.08L707.575 213.35C706.154 220.059 706.557 227.027 708.742 233.528C710.927 240.028 714.814 245.824 719.999 250.313L712.638 279.965C712.878 283.638 718.952 295.993 724.838 309.275C713.77 324.101 659.476 329.163 641.767 316.139C644.495 302.17 646.537 291.566 647.086 286.263L646.194 267.095C623.989 248.889 650.776 221.141 660.643 212.321L673.032 211.772L691.067 212.08Z" fill="#03045E"/>
<path d="M760.583 359.811C759.385 358.876 758.436 357.661 757.819 356.272C757.203 354.883 756.938 353.364 757.048 351.849C757.339 349.086 757.974 345.62 759.124 344.281C760.274 342.943 767.481 333.144 770.673 338.841C774.105 345.053 773.401 347.576 773.401 347.576L760.583 359.811Z" fill="#F28F8F"/>
<path d="M738.343 490.776C730.597 490.518 723.053 488.234 716.464 484.152L630.784 434.663C617.554 427.027 606.76 408.374 606.76 393.084V321.201C606.752 318.795 606.111 316.434 604.903 314.354C603.695 312.274 601.961 310.547 599.875 309.348C597.79 308.149 595.426 307.519 593.02 307.521C590.615 307.523 588.252 308.158 586.168 309.36L556.173 326.726C555.782 326.975 555.345 327.141 554.888 327.217C554.432 327.292 553.964 327.274 553.515 327.164C553.065 327.053 552.643 326.853 552.272 326.576C551.902 326.298 551.592 325.948 551.36 325.548C551.128 325.147 550.98 324.703 550.924 324.244C550.869 323.784 550.906 323.318 551.035 322.874C551.164 322.429 551.382 322.015 551.675 321.657C551.968 321.299 552.33 321.004 552.741 320.789L582.822 303.406C585.95 301.6 589.497 300.649 593.109 300.647C596.72 300.645 600.268 301.594 603.398 303.396C606.527 305.199 609.127 307.793 610.937 310.918C612.747 314.043 613.703 317.589 613.71 321.201V393.084C613.71 405.954 623.148 422.256 634.302 428.725L719.982 478.181C730.947 484.513 741.123 485.611 748.605 481.304C756.087 476.997 760.222 467.576 760.222 454.963V363.191C760.222 347.644 770.158 329.729 782.839 322.402L803.757 310.39C804.148 310.142 804.585 309.975 805.041 309.9C805.498 309.825 805.965 309.843 806.415 309.953C806.864 310.063 807.287 310.263 807.657 310.541C808.028 310.818 808.338 311.168 808.57 311.569C808.801 311.97 808.949 312.413 809.005 312.873C809.061 313.332 809.023 313.798 808.894 314.243C808.765 314.687 808.548 315.101 808.255 315.459C807.962 315.818 807.599 316.113 807.189 316.327L786.271 328.339C775.872 334.345 767.086 350.287 767.086 363.174V454.946C767.086 470.15 761.732 481.613 752.037 487.224C747.871 489.608 743.143 490.835 738.343 490.776Z" fill="#37474F"/>
<path d="M590.304 331.686V337.297C590.304 346.272 584.006 357.203 576.216 361.681L524.255 391.694L471.419 361.184V315.435L522.659 291.72C530.81 287.962 543.715 288.545 551.505 293.024L576.181 307.284C583.955 311.78 590.304 322.711 590.304 331.686Z" fill="#37474F"/>
<path d="M522.659 291.72C530.81 287.962 543.714 288.545 551.505 293.024L576.181 307.284C583.954 311.763 583.646 318.455 575.495 322.23L524.203 345.911L471.351 315.418L522.659 291.72Z" fill="#455A64"/>
<path opacity="0.15" d="M529.197 334.929C531.244 336.265 532.948 338.064 534.17 340.18C535.393 342.297 536.099 344.672 536.233 347.112V384.744L524.221 391.608L471.385 361.098V315.435L484.77 309.258L529.197 334.929Z" fill="black"/>
<path d="M466.872 307.559C467.664 307.19 468.54 307.041 469.409 307.125C470.278 307.21 471.109 307.525 471.814 308.039L523.775 338.052C525.825 339.388 527.531 341.19 528.753 343.31C529.976 345.43 530.681 347.809 530.81 350.253V395.006C530.904 395.876 530.762 396.756 530.4 397.553C530.038 398.35 529.468 399.035 528.751 399.536C527.55 400.206 523.312 402.659 522.127 403.363C521.333 403.731 520.454 403.881 519.583 403.796C518.711 403.712 517.877 403.396 517.168 402.882L465.191 372.87C463.144 371.534 461.44 369.735 460.218 367.618C458.995 365.501 458.289 363.127 458.155 360.686V315.933C458.064 315.062 458.204 314.183 458.563 313.384C458.922 312.585 459.486 311.896 460.197 311.385L466.872 307.559Z" fill="#37474F"/>
<path d="M517.168 341.862L465.19 311.866C461.312 309.618 458.155 311.437 458.155 315.933V360.686C458.288 363.127 458.995 365.501 460.217 367.618C461.44 369.735 463.143 371.534 465.19 372.87L517.168 402.882C521.046 405.13 524.204 403.312 524.204 398.816V354.062C524.07 351.619 523.363 349.242 522.141 347.123C520.919 345.003 519.215 343.201 517.168 341.862Z" fill="#455A64"/>
<path d="M455.615 393.959V401.698C455.615 404.839 456.696 407.018 458.481 408.048L463.148 410.742C464.267 411.286 465.513 411.516 466.752 411.407C467.991 411.298 469.177 410.855 470.184 410.124L513.084 385.311V354.766L508.417 352.072L465.431 376.885C462.568 378.76 460.188 381.283 458.482 384.249C456.777 387.216 455.795 390.542 455.615 393.959ZM475.057 384.384C475.221 384.942 475.314 385.519 475.332 386.1C475.21 388.393 474.547 390.625 473.399 392.614C472.251 394.603 470.65 396.293 468.725 397.546C468.191 397.859 467.612 398.09 467.009 398.232C466.859 397.672 466.778 397.096 466.769 396.516C466.893 394.223 467.556 391.992 468.704 390.003C469.852 388.014 471.452 386.324 473.376 385.07C473.909 384.78 474.473 384.549 475.057 384.384Z" fill="#03045E"/>
<path opacity="0.2" d="M462.908 410.57C462.998 410.649 463.096 410.718 463.2 410.776L463.028 410.673L458.515 408.048C456.713 407.052 455.649 404.873 455.649 401.716V393.976C455.762 390.538 456.761 387.186 458.549 384.247L463.217 386.941C461.446 389.887 460.454 393.235 460.334 396.671V404.41C460.208 406.414 460.853 408.39 462.136 409.935C462.367 410.177 462.626 410.39 462.908 410.57Z" fill="black"/>
<path opacity="0.5" d="M513.084 354.766L470.184 379.579C467.273 381.393 464.875 383.922 463.217 386.924L458.549 384.23C460.206 381.232 462.598 378.705 465.499 376.885L508.485 352.072L513.084 354.766Z" fill="white"/>
<path opacity="0.2" d="M475.332 386.1C475.33 385.48 475.249 384.863 475.092 384.264C477.923 383.492 479.999 385.259 479.999 388.794C479.876 391.085 479.215 393.315 478.071 395.303C476.926 397.292 475.329 398.983 473.41 400.24C470.355 401.956 467.747 401.081 467.026 398.232C467.632 398.1 468.212 397.868 468.742 397.546C470.661 396.288 472.257 394.596 473.401 392.608C474.546 390.62 475.207 388.391 475.332 386.1Z" fill="black"/>
<path d="M415.993 371.068V378.824C415.993 381.947 417.074 384.144 418.858 385.156L423.526 387.867C424.643 388.4 425.884 388.621 427.116 388.506C428.349 388.391 429.527 387.945 430.527 387.215L473.427 362.385V331.892L468.76 329.18L425.86 353.994C422.99 355.866 420.602 358.387 418.888 361.353C417.174 364.319 416.182 367.647 415.993 371.068ZM435.435 361.441C435.591 362.041 435.672 362.658 435.675 363.277C435.551 365.57 434.889 367.801 433.741 369.79C432.593 371.779 430.992 373.469 429.069 374.723C428.525 375.018 427.949 375.249 427.353 375.409C427.189 374.823 427.108 374.216 427.112 373.608C427.236 371.316 427.896 369.087 429.041 367.098C430.186 365.11 431.782 363.419 433.702 362.162C434.243 361.842 434.826 361.599 435.435 361.441Z" fill="#03045E"/>
<path opacity="0.2" d="M423.732 387.988H423.646H423.526L418.858 385.259C417.057 384.247 415.993 382.067 415.993 378.91V371.171C416.011 369.517 416.271 367.876 416.765 366.297C417.281 364.609 417.99 362.985 418.876 361.458L423.543 364.135C423.101 364.9 422.705 365.691 422.359 366.503C421.294 368.809 420.71 371.308 420.643 373.848V381.587C420.497 383.579 421.11 385.553 422.359 387.112C422.764 387.48 423.228 387.776 423.732 387.988Z" fill="black"/>
<path opacity="0.5" d="M473.479 331.892L430.579 356.705C427.664 358.514 425.265 361.044 423.612 364.049L418.944 361.372C420.572 358.372 422.934 355.834 425.808 353.994L468.708 329.18L473.479 331.892Z" fill="white"/>
<path opacity="0.2" d="M435.658 363.26C435.661 362.647 435.586 362.035 435.435 361.441C438.249 360.652 440.343 362.436 440.343 365.971C440.219 368.262 439.559 370.492 438.414 372.481C437.269 374.469 435.673 376.16 433.753 377.417C430.682 379.133 428.09 378.258 427.37 375.392C427.977 375.265 428.558 375.032 429.086 374.706C431.004 373.449 432.598 371.757 433.74 369.769C434.882 367.78 435.539 365.55 435.658 363.26Z" fill="black"/>
<path d="M429 342.428C428.428 342.429 427.872 342.239 427.421 341.888C426.97 341.536 426.65 341.044 426.512 340.489L419.648 313.582C419.477 312.92 419.577 312.217 419.924 311.628C420.272 311.039 420.839 310.612 421.501 310.442C422.163 310.271 422.866 310.37 423.455 310.718C424.044 311.065 424.471 311.633 424.642 312.295L431.506 339.219C431.593 339.546 431.614 339.887 431.568 340.222C431.521 340.557 431.409 340.879 431.236 341.17C431.063 341.461 430.834 341.715 430.562 341.916C430.29 342.117 429.981 342.262 429.652 342.342C429.439 342.397 429.22 342.426 429 342.428Z" fill="#E0E0E0"/>
<path d="M409.678 353.65C409.099 353.652 408.537 353.458 408.082 353.101L382.531 332.904C382.249 332.701 382.011 332.442 381.831 332.144C381.652 331.846 381.535 331.515 381.487 331.171C381.439 330.827 381.461 330.476 381.553 330.141C381.644 329.805 381.802 329.492 382.018 329.219C382.234 328.946 382.503 328.72 382.808 328.554C383.114 328.388 383.45 328.286 383.796 328.254C384.142 328.221 384.491 328.259 384.822 328.365C385.153 328.472 385.46 328.644 385.722 328.871L411.274 349.052C411.808 349.477 412.152 350.096 412.233 350.774C412.313 351.452 412.122 352.134 411.703 352.672C411.463 352.98 411.155 353.228 410.804 353.398C410.453 353.567 410.068 353.654 409.678 353.65Z" fill="#E0E0E0"/>
<path d="M374.466 378.292C373.783 378.317 373.118 378.07 372.618 377.605C372.117 377.14 371.822 376.495 371.797 375.813C371.772 375.13 372.019 374.465 372.484 373.965C372.949 373.464 373.594 373.169 374.277 373.144L404.152 370.828C404.49 370.8 404.829 370.839 405.151 370.943C405.473 371.047 405.772 371.214 406.029 371.434C406.286 371.655 406.496 371.924 406.648 372.226C406.801 372.528 406.891 372.858 406.915 373.196C406.963 373.875 406.741 374.546 406.298 375.063C405.854 375.58 405.226 375.901 404.547 375.958L374.671 378.275L374.466 378.292Z" fill="#E0E0E0"/>
<path d="M783.937 331.806C783.355 325.466 782.416 319.164 781.123 312.93C777.219 298.304 772.016 284.056 765.576 270.356C762.711 264.882 756.241 256.902 751.66 250.158C745.173 240.635 740.608 235.298 735.684 228.829C724.838 214.637 720.24 213.814 707.575 213.385C705.859 217.898 701.947 236.396 714.628 251.343L741.81 280C743.354 282.488 759.965 310.888 762.728 321.372C763.206 323.237 762.973 325.212 762.076 326.915C759.904 331.721 758.309 336.767 757.322 341.947C756.516 345.585 754.354 348.468 755.092 349.034C756.003 349.644 757.094 349.927 758.187 349.84C759.279 349.753 760.311 349.3 761.115 348.554C763.055 346.472 764.638 344.083 765.799 341.484C766.309 341.451 766.821 341.524 767.302 341.698C767.782 341.873 768.221 342.146 768.59 342.499C768.96 342.852 769.252 343.279 769.448 343.751C769.644 344.223 769.74 344.731 769.729 345.242C769.883 347.353 768.922 350.287 768.185 353.942C768.047 354.663 767.876 355.487 767.55 357.477C767.268 358.821 767.107 360.188 767.069 361.561C770.501 362.196 774.088 360.103 779.853 354.697C785.053 349.652 785.396 343.028 783.937 331.806Z" fill="#FFA8A7"/>
<path d="M694.019 203.741C694.122 200.309 705.276 192.278 710.921 183.732C716.069 175.804 723.465 154.011 706.134 147.044C706.134 147.044 709.875 136.594 703.079 130.433C696.284 124.273 687.138 128.082 685.696 130.656C684.825 127.447 682.942 124.605 680.327 122.552C677.711 120.499 674.503 119.345 671.179 119.262C667.932 119.018 664.706 119.954 662.095 121.9C659.485 123.845 657.665 126.669 656.97 129.85C654.228 128.663 651.161 128.455 648.283 129.261C645.406 130.067 642.893 131.838 641.166 134.277C634.8 143.046 643.242 151.077 643.242 151.077C642.147 151.816 641.274 152.838 640.715 154.035C640.155 155.232 639.932 156.558 640.068 157.872C640.565 161.579 644.118 162.488 644.529 164.341C644.609 164.729 644.56 165.132 644.39 165.49C644.219 165.847 643.937 166.139 643.586 166.322C643.235 166.504 642.833 166.567 642.443 166.501C642.053 166.434 641.695 166.243 641.423 165.954C641.516 166.438 641.703 166.899 641.974 167.31C642.245 167.722 642.595 168.076 643.003 168.351C643.411 168.627 643.87 168.82 644.353 168.918C644.836 169.016 645.333 169.018 645.816 168.923C649.815 168.7 653.384 163.26 653.384 163.26L694.019 203.741Z" fill="#263238"/>
<path d="M657.64 145.946C652.492 148.177 647.636 156.019 647.704 177.949C647.704 196.533 653.47 201.235 656.284 202.625C659.099 204.015 664.779 203.295 670.253 202.454V213.144C670.253 213.144 660.351 225.431 669.223 231.54C692.08 227.542 693.83 212.544 693.83 212.544L694.242 189.24C694.242 189.24 697.383 192.535 702.822 187.696C707.387 183.698 709.034 176.851 705.602 173.076C702.17 169.301 697.777 169.009 693.796 173.213C693.796 173.213 686.503 173.694 675.538 166.812C664.573 159.931 660.66 152.947 657.64 145.946Z" fill="#FFA8A7"/>
<path d="M670.802 189.584C670.825 189.938 670.777 190.294 670.662 190.629C670.546 190.965 670.365 191.275 670.129 191.54C669.892 191.805 669.605 192.021 669.285 192.174C668.965 192.327 668.617 192.415 668.262 192.432C667.712 192.476 667.161 192.355 666.681 192.083C666.201 191.812 665.813 191.403 665.567 190.908C665.321 190.414 665.229 189.858 665.302 189.311C665.376 188.764 665.611 188.252 665.978 187.84C666.346 187.428 666.828 187.135 667.363 187C667.898 186.865 668.461 186.893 668.98 187.08C669.499 187.268 669.95 187.607 670.275 188.053C670.599 188.499 670.783 189.032 670.802 189.584Z" fill="#B16668"/>
<path d="M656.679 171.6C656.675 172.083 656.53 172.555 656.26 172.957C655.991 173.358 655.61 173.672 655.164 173.859C654.718 174.046 654.227 174.099 653.752 174.009C653.277 173.92 652.838 173.693 652.49 173.357C652.143 173.021 651.901 172.591 651.796 172.119C651.691 171.647 651.726 171.154 651.898 170.702C652.07 170.25 652.371 169.859 652.763 169.576C653.155 169.293 653.622 169.132 654.105 169.112C654.438 169.105 654.768 169.164 655.078 169.286C655.388 169.407 655.67 169.589 655.91 169.82C656.149 170.051 656.34 170.328 656.472 170.633C656.604 170.939 656.674 171.267 656.679 171.6Z" fill="#263238"/>
<path d="M675.675 172.733C675.698 173.087 675.65 173.442 675.535 173.778C675.419 174.114 675.238 174.424 675.002 174.689C674.765 174.954 674.479 175.169 674.158 175.323C673.838 175.476 673.49 175.564 673.135 175.581C672.417 175.586 671.727 175.307 671.213 174.806C670.699 174.305 670.403 173.622 670.39 172.904C670.378 172.557 670.435 172.211 670.558 171.886C670.68 171.561 670.865 171.264 671.103 171.01C671.34 170.757 671.625 170.553 671.942 170.41C672.258 170.266 672.599 170.187 672.946 170.176C673.293 170.164 673.639 170.222 673.964 170.344C674.289 170.466 674.587 170.652 674.84 170.889C675.093 171.126 675.298 171.411 675.441 171.728C675.584 172.044 675.664 172.386 675.675 172.733Z" fill="#263238"/>
<path d="M654.963 161.767L649.729 164.839C649.916 165.193 650.174 165.504 650.486 165.754C650.799 166.004 651.159 166.187 651.546 166.292C651.932 166.397 652.336 166.421 652.732 166.363C653.128 166.304 653.507 166.165 653.847 165.954C654.536 165.533 655.035 164.864 655.243 164.084C655.451 163.304 655.35 162.475 654.963 161.767Z" fill="#263238"/>
<path d="M693.899 170.193V180.489C693.239 180.506 692.582 180.387 691.969 180.141C691.357 179.894 690.801 179.525 690.336 179.055C689.872 178.586 689.508 178.026 689.268 177.411C689.028 176.796 688.916 176.138 688.94 175.478C688.945 174.134 689.46 172.841 690.38 171.86C691.3 170.88 692.557 170.284 693.899 170.193Z" fill="#263238"/>
<path d="M663.44 169.146L662.393 183.972L654.568 182.136L663.44 169.146Z" fill="#F28F8F"/>
<path d="M670.321 202.488C676.069 201.819 687.944 198.524 689.883 193.685C689.115 196.109 687.631 198.245 685.628 199.811C682.041 202.9 670.304 206.092 670.304 206.092L670.321 202.488Z" fill="#F28F8F"/>
<path d="M739.424 87.8249C741.614 88.6607 743.667 89.8173 745.516 91.2569C747.307 92.5663 748.848 94.1881 750.063 96.0445C751.22 97.8303 751.981 99.8431 752.294 101.948C752.603 104.194 752.326 106.482 751.488 108.588C750.888 110.275 749.961 111.827 748.759 113.153C747.685 114.284 746.454 115.255 745.104 116.036C743.79 116.786 742.412 117.418 740.986 117.924L736.936 119.382C735.745 119.813 734.596 120.353 733.504 120.995C732.475 121.512 731.613 122.309 731.016 123.295C730.742 123.755 730.351 124.134 729.883 124.393C729.659 124.516 729.41 124.588 729.155 124.603C728.9 124.618 728.644 124.575 728.408 124.479L723.054 122.471C722.799 122.377 722.567 122.233 722.369 122.047C722.172 121.861 722.013 121.638 721.904 121.39C721.786 121.153 721.725 120.891 721.725 120.626C721.725 120.361 721.786 120.1 721.904 119.863C722.592 118.211 723.608 116.717 724.89 115.47C726.052 114.377 727.35 113.437 728.751 112.673C730.103 111.946 731.515 111.338 732.972 110.854C734.414 110.373 735.752 109.91 737.005 109.429C738.136 109.014 739.223 108.485 740.248 107.851C741.13 107.292 741.804 106.46 742.17 105.483C742.508 104.626 742.632 103.7 742.53 102.785C742.429 101.869 742.105 100.993 741.586 100.232C740.295 98.3565 738.418 96.9625 736.25 96.2676C734.361 95.5162 732.286 95.3684 730.31 95.8447C728.334 96.3211 726.554 97.398 725.216 98.9274C724.874 99.289 724.474 99.5907 724.032 99.8197C723.555 99.9689 723.04 99.9321 722.59 99.7168L716.893 97.5718C716.69 97.5013 716.503 97.3904 716.344 97.2459C716.185 97.1015 716.056 96.9263 715.967 96.7309C715.868 96.5307 715.817 96.3105 715.817 96.0874C715.817 95.8643 715.868 95.6442 715.967 95.4439C716.721 93.6942 717.901 92.1606 719.399 90.9823C721.066 89.5957 722.966 88.5151 725.01 87.7906C727.255 86.9972 729.613 86.5685 731.994 86.5207C734.532 86.4727 737.055 86.9156 739.424 87.8249ZM727.206 128.837C727.457 128.926 727.685 129.067 727.878 129.25C728.07 129.434 728.221 129.655 728.322 129.901C728.427 130.145 728.482 130.408 728.482 130.673C728.482 130.939 728.427 131.202 728.322 131.446L725.988 137.64C725.899 137.891 725.758 138.119 725.575 138.312C725.392 138.504 725.17 138.655 724.924 138.756C724.68 138.862 724.417 138.916 724.152 138.916C723.886 138.916 723.623 138.862 723.38 138.756L717.322 136.473C717.072 136.385 716.843 136.244 716.651 136.061C716.459 135.877 716.307 135.655 716.207 135.41C716.101 135.166 716.046 134.903 716.046 134.637C716.046 134.372 716.101 134.109 716.207 133.865L718.541 127.67C718.632 127.419 718.773 127.19 718.956 126.995C719.139 126.8 719.36 126.645 719.604 126.538C719.849 126.436 720.112 126.383 720.377 126.383C720.642 126.383 720.904 126.436 721.149 126.538L727.206 128.837Z" fill="#03045E"/>
<path d="M742.393 161.784C742.572 161.96 742.714 162.17 742.811 162.401C742.908 162.632 742.958 162.881 742.958 163.132C742.958 163.382 742.908 163.631 742.811 163.862C742.714 164.093 742.572 164.303 742.393 164.479L738.103 169.009C737.931 169.192 737.723 169.338 737.493 169.438C737.263 169.538 737.015 169.591 736.764 169.592C736.513 169.601 736.262 169.561 736.026 169.472C735.791 169.384 735.575 169.25 735.391 169.077L731.016 164.873C730.833 164.701 730.687 164.494 730.586 164.264C730.486 164.034 730.434 163.786 730.432 163.535C730.419 163.283 730.458 163.031 730.547 162.795C730.635 162.559 730.771 162.343 730.947 162.162L735.254 157.649C735.614 157.296 736.097 157.098 736.601 157.098C737.105 157.098 737.589 157.296 737.948 157.649L742.393 161.784ZM768.133 130.673C769.728 132.185 771.098 133.919 772.2 135.821C773.261 137.624 773.999 139.599 774.379 141.656C774.7 143.628 774.601 145.645 774.087 147.576C773.54 149.403 772.618 151.095 771.38 152.546C770.142 153.997 768.615 155.174 766.897 156.002C765.554 156.594 764.132 156.987 762.676 157.168C761.257 157.328 759.828 157.368 758.403 157.289L754.353 157.065C753.145 157 751.934 157.04 750.732 157.186C749.656 157.304 748.634 157.72 747.781 158.387C747.377 158.692 746.895 158.876 746.391 158.919C746.15 158.946 745.906 158.918 745.677 158.838C745.449 158.758 745.241 158.627 745.07 158.455L741.174 154.749C740.799 154.395 740.577 153.908 740.557 153.393C740.532 153.14 740.569 152.884 740.665 152.648C740.76 152.412 740.912 152.203 741.106 152.038C742.301 150.849 743.726 149.915 745.293 149.292C746.702 148.769 748.173 148.428 749.669 148.28C751.113 148.16 752.565 148.16 754.01 148.28C755.44 148.405 756.778 148.491 758.025 148.537C759.173 148.595 760.323 148.531 761.457 148.348C762.434 148.196 763.333 147.726 764.014 147.01C764.616 146.387 765.058 145.628 765.303 144.797C765.548 143.967 765.589 143.089 765.421 142.239C764.995 140.134 763.877 138.232 762.247 136.834C760.877 135.493 759.125 134.609 757.233 134.302C755.341 133.995 753.4 134.28 751.676 135.118C751.253 135.304 750.8 135.415 750.338 135.444C750.103 135.43 749.874 135.368 749.664 135.261C749.455 135.155 749.269 135.007 749.119 134.826L744.967 130.862C744.668 130.592 744.484 130.217 744.452 129.815C744.441 129.603 744.475 129.391 744.552 129.193C744.629 128.995 744.747 128.815 744.898 128.666C746.196 127.431 747.774 126.53 749.497 126.04C751.454 125.455 753.498 125.217 755.537 125.337C757.782 125.473 759.99 125.972 762.075 126.812C764.307 127.692 766.342 129.004 768.064 130.673H768.133Z" fill="#03045E"/>
<g opacity="0.6">
<path d="M742.393 161.784C742.572 161.96 742.714 162.17 742.811 162.401C742.908 162.632 742.958 162.881 742.958 163.132C742.958 163.382 742.908 163.631 742.811 163.862C742.714 164.093 742.572 164.303 742.393 164.479L738.103 169.009C737.931 169.192 737.723 169.338 737.493 169.438C737.263 169.538 737.015 169.591 736.764 169.592C736.513 169.601 736.262 169.561 736.026 169.472C735.791 169.384 735.575 169.25 735.391 169.077L731.016 164.873C730.833 164.701 730.687 164.494 730.586 164.264C730.486 164.034 730.434 163.786 730.432 163.535C730.419 163.283 730.458 163.031 730.547 162.795C730.635 162.559 730.771 162.343 730.947 162.162L735.254 157.649C735.614 157.296 736.097 157.098 736.601 157.098C737.105 157.098 737.589 157.296 737.948 157.649L742.393 161.784ZM768.133 130.673C769.728 132.185 771.098 133.919 772.2 135.821C773.261 137.624 773.999 139.599 774.379 141.656C774.7 143.628 774.601 145.645 774.087 147.576C773.54 149.403 772.618 151.095 771.38 152.546C770.142 153.997 768.615 155.174 766.897 156.002C765.554 156.594 764.132 156.987 762.676 157.168C761.257 157.328 759.828 157.368 758.403 157.289L754.353 157.065C753.145 157 751.934 157.04 750.732 157.186C749.656 157.304 748.634 157.72 747.781 158.387C747.377 158.692 746.895 158.876 746.391 158.919C746.15 158.946 745.906 158.918 745.677 158.838C745.449 158.758 745.241 158.627 745.07 158.455L741.174 154.749C740.799 154.395 740.577 153.908 740.557 153.393C740.532 153.14 740.569 152.884 740.665 152.648C740.76 152.412 740.912 152.203 741.106 152.038C742.301 150.849 743.726 149.915 745.293 149.292C746.702 148.769 748.173 148.428 749.669 148.28C751.113 148.16 752.565 148.16 754.01 148.28C755.44 148.405 756.778 148.491 758.025 148.537C759.173 148.595 760.323 148.531 761.457 148.348C762.434 148.196 763.333 147.726 764.014 147.01C764.616 146.387 765.058 145.628 765.303 144.797C765.548 143.967 765.589 143.089 765.421 142.239C764.995 140.134 763.877 138.232 762.247 136.834C760.877 135.493 759.125 134.609 757.233 134.302C755.341 133.995 753.4 134.28 751.676 135.118C751.253 135.304 750.8 135.415 750.338 135.444C750.103 135.43 749.874 135.368 749.664 135.261C749.455 135.155 749.269 135.007 749.119 134.826L744.967 130.862C744.668 130.592 744.484 130.217 744.452 129.815C744.441 129.603 744.475 129.391 744.552 129.193C744.629 128.995 744.747 128.815 744.898 128.666C746.196 127.431 747.774 126.53 749.497 126.04C751.454 125.455 753.498 125.217 755.537 125.337C757.782 125.473 759.99 125.972 762.075 126.812C764.307 127.692 766.342 129.004 768.064 130.673H768.133Z" fill="white"/>
</g>
<path d="M131.806 593.238C137.246 596.55 144.47 596.67 151.283 594.285L156.431 558.249L132.407 552.106L131.806 593.238Z" fill="#FFA8A7"/>
<path d="M170.57 627.73C171.171 628.348 170.811 632.878 170.073 633.89C169.335 634.903 165.199 638.335 157.58 638.472C150.322 638.592 143.852 637.271 139.803 634.337C135.753 631.402 133.814 628.331 133.625 624.178C133.436 620.025 134.123 616.095 132.338 612.818C130.553 609.54 128.408 606.795 127.859 605.182C127.215 602.26 127.215 599.232 127.859 596.31L170.57 627.73Z" fill="#263238"/>
<path d="M152.947 592.775C152.981 594.34 153.2 595.895 153.599 597.408C154.535 600.654 155.854 603.776 157.529 606.709C158.362 608.24 159.296 609.713 160.326 611.119C162.368 613.847 164.976 616.13 167.19 618.755C169.54 621.243 170.953 624.47 171.188 627.884C171.188 633.581 164.925 635.177 160.137 635.761C154.935 636.396 149.656 635.85 144.693 634.165C142.096 633.334 139.793 631.773 138.061 629.666C136.33 627.56 135.242 624.999 134.929 622.29C134.74 620.694 134.929 619.098 134.826 617.503C134.399 613.841 133.066 610.344 130.948 607.327C129.717 605.581 128.681 603.705 127.859 601.733C126.555 598.146 127.962 594.251 129.095 590.802C130.073 587.833 130.811 584.246 131.909 584.59C131.909 585.19 131.909 586.529 131.909 586.529C132.218 587.198 132.973 587.678 133.162 588.468C133.34 589.282 133.587 590.08 133.9 590.853C134.367 592.048 135.194 593.067 136.268 593.77C136.456 591.625 136.645 589.48 136.817 587.352C136.768 587.014 136.797 586.67 136.902 586.344C137.006 586.019 137.183 585.722 137.42 585.475C137.656 585.229 137.946 585.039 138.267 584.922C138.587 584.804 138.931 584.761 139.271 584.796C143.296 584.06 147.41 583.938 151.471 584.435C151.777 584.458 152.076 584.541 152.35 584.68C152.623 584.818 152.867 585.009 153.067 585.242C153.277 585.698 153.343 586.206 153.256 586.7C153.044 588.718 152.94 590.746 152.947 592.775Z" fill="#03045E"/>
<path opacity="0.2" d="M152.947 592.775C152.981 594.34 153.2 595.895 153.599 597.408C154.535 600.654 155.854 603.776 157.529 606.709C158.362 608.24 159.296 609.713 160.326 611.119C162.368 613.847 164.976 616.13 167.19 618.755C169.54 621.243 170.953 624.47 171.188 627.884C171.188 633.581 164.925 635.177 160.137 635.761C154.935 636.396 149.656 635.85 144.693 634.165C142.096 633.334 139.793 631.773 138.061 629.666C136.33 627.56 135.242 624.999 134.929 622.29C134.74 620.694 134.929 619.098 134.826 617.503C134.399 613.841 133.066 610.344 130.948 607.327C129.717 605.581 128.681 603.705 127.859 601.733C126.555 598.146 127.962 594.251 129.095 590.802C130.073 587.833 130.811 584.246 131.909 584.59C131.909 585.19 131.909 586.529 131.909 586.529C132.218 587.198 132.973 587.678 133.162 588.468C133.34 589.282 133.587 590.08 133.9 590.853C134.367 592.048 135.194 593.067 136.268 593.77C136.456 591.625 136.645 589.48 136.817 587.352C136.768 587.014 136.797 586.67 136.902 586.344C137.006 586.019 137.183 585.722 137.42 585.475C137.656 585.229 137.946 585.039 138.267 584.922C138.587 584.804 138.931 584.761 139.271 584.796C143.296 584.06 147.41 583.938 151.471 584.435C151.777 584.458 152.076 584.541 152.35 584.68C152.623 584.818 152.867 585.009 153.067 585.242C153.277 585.698 153.343 586.206 153.256 586.7C153.044 588.718 152.94 590.746 152.947 592.775Z" fill="black"/>
<path d="M158.232 607.944C156.208 606.228 151.471 605.971 148.863 606.108C146.221 606.197 143.642 606.946 141.364 608.288C141.028 608.493 140.631 608.576 140.24 608.523C139.849 608.47 139.489 608.284 139.219 607.996C139.061 607.829 138.941 607.629 138.868 607.41C138.795 607.192 138.77 606.96 138.797 606.731C138.823 606.502 138.899 606.281 139.019 606.085C139.14 605.888 139.302 605.721 139.494 605.594C142.015 603.95 144.945 603.041 147.954 602.968C154.44 602.865 156.156 604.032 156.156 604.032C156.156 604.032 158.97 606.091 158.232 607.944Z" fill="#455A64"/>
<path d="M162.78 614.019C160.206 612.303 154.989 612.303 152.381 612.389C149.787 612.512 147.271 613.317 145.088 614.723C144.749 614.932 144.349 615.018 143.954 614.965C143.56 614.911 143.196 614.723 142.926 614.431C142.765 614.264 142.644 614.063 142.57 613.844C142.497 613.624 142.473 613.39 142.501 613.161C142.529 612.931 142.608 612.71 142.732 612.514C142.856 612.318 143.021 612.152 143.217 612.029C145.754 610.293 148.727 609.306 151.797 609.18C158.198 609.06 159.794 610.467 159.794 610.467C160.53 610.792 161.181 611.281 161.699 611.897C162.217 612.512 162.586 613.238 162.78 614.019Z" fill="#455A64"/>
<path d="M145.74 596.739C148.45 596.414 151.198 596.793 153.719 597.837C154.8 598.541 155.435 600.343 154.697 600.754C152.472 599.722 150.025 599.256 147.576 599.399C145.178 599.505 142.816 600.022 140.592 600.926C140.026 601.132 139.374 601.441 138.876 601.715C138.693 601.809 138.492 601.864 138.286 601.877C138.081 601.889 137.874 601.859 137.681 601.788C137.488 601.717 137.311 601.607 137.162 601.465C137.013 601.322 136.896 601.15 136.817 600.96C136.709 600.643 136.715 600.298 136.834 599.985C136.953 599.672 137.178 599.41 137.469 599.244C140.016 597.83 142.836 596.976 145.74 596.739Z" fill="#455A64"/>
<path d="M199.519 579.699C203.706 590.184 210.261 586.958 220.249 580.917L221.759 545.122L196.345 542.771L199.519 579.699Z" fill="#FFA8A7"/>
<path d="M258.584 604.941C259.048 606.626 258.851 608.424 258.035 609.969C257.246 611.411 249.301 615.358 238.919 614.088C231.221 613.14 223.919 610.141 217.778 605.405C213.951 602.556 209.85 601.853 204.702 601.269C199.554 600.686 195.693 598.901 194.68 596.43C193.668 593.959 195.212 589.875 195.212 589.875L258.584 604.941Z" fill="#263238"/>
<path d="M218.155 571.943C219.093 571.745 220.017 571.481 220.918 571.153C221.422 570.967 221.976 570.967 222.479 571.153C223.132 571.445 223.337 572.235 223.492 572.869C223.638 574.422 223.937 575.957 224.384 577.451C225.086 578.691 226.018 579.786 227.13 580.677C229.603 582.891 232.3 584.84 235.178 586.494C238.49 588.519 241.75 590.115 245.165 591.883C248.58 593.65 253.367 594.92 256.079 597.031C260.008 600.017 260.163 606.966 255.358 609.437C251.222 611.582 240.515 613.573 229.618 609.832C223.663 607.79 217.314 600.977 209.421 599.931C204.393 599.279 197.7 598.489 194.663 594.491C193.565 592.775 194.526 587.799 195.418 581.981C196.225 576.833 196.963 568.597 198.627 569.146L198.747 570.724L200.772 573.144C201.216 573.616 201.685 574.063 202.179 574.482C202.721 575.117 203.294 575.724 203.895 576.301C204.711 577 205.725 577.426 206.795 577.52C207.302 577.552 207.808 577.439 208.254 577.194C209.112 576.713 209.232 575.581 209.97 574.877C210.768 574.057 211.726 573.408 212.784 572.972C214.254 572.449 215.791 572.137 217.349 572.046C217.619 572.029 217.889 571.995 218.155 571.943Z" fill="#03045E"/>
<path opacity="0.2" d="M218.155 571.943C219.093 571.745 220.017 571.481 220.918 571.153C221.422 570.967 221.976 570.967 222.479 571.153C223.132 571.445 223.337 572.235 223.492 572.869C223.638 574.422 223.937 575.957 224.384 577.451C225.086 578.691 226.018 579.786 227.13 580.677C229.603 582.891 232.3 584.84 235.178 586.494C238.49 588.519 241.75 590.115 245.165 591.883C248.58 593.65 253.367 594.92 256.079 597.031C260.008 600.017 260.163 606.966 255.358 609.437C251.222 611.582 240.515 613.573 229.618 609.832C223.663 607.79 217.314 600.977 209.421 599.931C204.393 599.279 197.7 598.489 194.663 594.491C193.565 592.775 194.526 587.799 195.418 581.981C196.225 576.833 196.963 568.597 198.627 569.146L198.747 570.724L200.772 573.144C201.216 573.616 201.685 574.063 202.179 574.482C202.721 575.117 203.294 575.724 203.895 576.301C204.711 577 205.725 577.426 206.795 577.52C207.302 577.552 207.808 577.439 208.254 577.194C209.112 576.713 209.232 575.581 209.97 574.877C210.768 574.057 211.726 573.408 212.784 572.972C214.254 572.449 215.791 572.137 217.349 572.046C217.619 572.029 217.889 571.995 218.155 571.943Z" fill="black"/>
<path d="M230.63 583.44C230.3 582.727 229.798 582.108 229.169 581.638C228.54 581.167 227.804 580.861 227.027 580.746C224.762 580.197 220.626 581.672 218.001 583.612C217.751 583.793 217.55 584.032 217.415 584.309C217.279 584.586 217.214 584.892 217.224 585.2C217.234 585.509 217.32 585.809 217.473 586.077C217.626 586.344 217.843 586.57 218.104 586.735C218.434 586.934 218.818 587.03 219.203 587.008C219.589 586.987 219.959 586.85 220.266 586.615C223.169 584.235 226.893 583.094 230.63 583.44Z" fill="#455A64"/>
<path d="M237.512 587.85C237.049 587.12 236.418 586.511 235.672 586.075C234.925 585.639 234.085 585.389 233.222 585.345C229.681 585.309 226.221 586.397 223.337 588.451C223.093 588.62 222.894 588.845 222.756 589.108C222.618 589.371 222.546 589.664 222.546 589.961C222.546 590.258 222.618 590.55 222.756 590.813C222.894 591.076 223.093 591.302 223.337 591.471C223.659 591.665 224.032 591.755 224.406 591.731C224.78 591.706 225.138 591.568 225.431 591.334C227.052 589.88 228.981 588.812 231.073 588.209C233.165 587.606 235.366 587.483 237.512 587.85Z" fill="#455A64"/>
<path d="M245.165 591.866C244.63 591.184 243.955 590.626 243.185 590.229C242.415 589.832 241.568 589.606 240.703 589.566C237.287 589.594 233.966 590.699 231.214 592.724C230.975 592.901 230.783 593.133 230.654 593.401C230.525 593.668 230.463 593.964 230.473 594.261C230.483 594.558 230.565 594.848 230.712 595.106C230.859 595.364 231.066 595.583 231.317 595.744C231.628 595.954 232 596.056 232.375 596.034C232.75 596.012 233.108 595.868 233.393 595.624C234.925 594.121 236.788 592.998 238.832 592.345C240.877 591.693 243.045 591.528 245.165 591.866Z" fill="#455A64"/>
<path d="M131.137 496.628C131.909 479.347 135.581 470.356 136.096 465.568C136.096 465.568 137.503 370.502 139.82 341.656L224.933 338.035C226.186 368.923 227.319 451.909 226.649 462.891C226.014 473.41 221.742 564.65 221.742 564.65C209.73 568.408 196.911 562.934 196.911 562.934C196.911 562.934 189.773 511.025 188.606 499.579C187.777 489.284 188.042 478.93 189.395 468.691L183.955 394.783C183.955 394.783 177.383 452.097 174.14 473.719C170.433 498.447 154.44 575.1 154.44 575.1C142.943 577.966 131.755 573.007 131.755 573.007C131.755 573.007 130.004 521.664 131.137 496.628Z" fill="#455A64"/>
<path d="M183.972 394.852L185.585 384.659C190.545 383.921 203.106 376.079 210.536 369.215C205.243 377.224 198.082 383.825 189.67 388.451L189.412 468.725L183.972 394.852Z" fill="#37474F"/>
<path d="M218.876 287.962C213.093 274.766 203.14 252.544 203.14 252.544L200.618 216.508C204.3 216.625 207.972 216.952 211.617 217.486C216.971 218.327 225.465 223.44 229.343 233.084C232.244 240.24 247.31 283.895 247.31 283.895L273.565 270.064C280.292 265.791 282.677 258.704 286.967 254.62C291.257 250.536 295.547 249.918 300.3 246.641C305.053 243.363 306.924 240.738 308.125 244.015C309.326 247.293 304.007 252.321 302.977 253.573C301.947 254.826 296.782 257.503 303.372 257.846C309.961 258.189 323.294 251.772 326.486 250.673C329.678 249.575 329.403 253.367 327.739 255.718C326.074 258.069 325.903 264.968 323.123 268.829C320.171 272.947 318.576 274.714 312.243 277.168C306.358 279.433 294.157 280.017 287.876 283.638C281.596 287.258 266.392 301.004 256.25 308.056C242.643 317.529 234.989 318.146 229.652 310.596C224.316 303.046 220.918 292.612 218.876 287.962Z" fill="#FFA8A7"/>
<path d="M197.065 215.736C205.989 215.049 216.508 215.598 222.325 220.884C226.975 225.122 228.726 227.748 233.908 242.402C237.34 252.235 244.684 274.886 244.684 274.886C234.6 277.161 225.551 282.705 218.944 290.656L202.213 253.059L197.065 215.736Z" fill="#E0E0E0"/>
<path d="M247.31 283.809C242.788 285.41 238.897 288.417 236.208 292.389C236.208 292.389 236.842 285.525 246.504 281.424L247.31 283.809Z" fill="#F28F8F"/>
<path d="M175.701 214.122C171.475 213.948 167.246 214.411 163.157 215.495C155.315 217.572 141.261 221.518 141.261 221.518C136.8 223.835 135.066 231.557 134.054 236.001C130.828 250.227 139.202 282.333 140.489 294.843C141.776 307.353 138.996 345.671 138.996 345.671C148.589 356.791 200.566 364.17 225.877 345.671C225.877 345.671 226.975 257.692 224.487 245.062C220.712 225.946 215.101 216.868 195.315 215.718L175.701 214.122Z" fill="#F5F5F5"/>
<path d="M186.804 166.932L181.158 170.038C180.768 169.261 180.687 168.365 180.932 167.53C181.177 166.695 181.73 165.985 182.479 165.543C182.853 165.34 183.263 165.215 183.686 165.176C184.108 165.136 184.535 165.183 184.939 165.313C185.343 165.442 185.717 165.653 186.037 165.931C186.358 166.21 186.619 166.55 186.804 166.932Z" fill="#263238"/>
<path d="M211.36 169.198L206.212 165.234C206.454 164.885 206.764 164.59 207.124 164.366C207.483 164.141 207.885 163.993 208.304 163.928C208.723 163.864 209.151 163.886 209.561 163.992C209.971 164.099 210.356 164.287 210.691 164.547C211.373 165.092 211.821 165.876 211.946 166.74C212.07 167.604 211.861 168.483 211.36 169.198Z" fill="#263238"/>
<path d="M160.858 148.966C160.858 148.966 154.783 149.807 152.552 154.44C150.63 158.421 151.317 168.031 153.908 178.464C155.372 185.233 157.558 191.826 160.429 198.129C161.443 199.915 163.1 201.247 165.062 201.853L164.736 189.395L164.29 180.815C164.29 180.815 169.832 173.23 170.45 167.087C171.24 159.09 169.558 155.813 169.558 155.813L160.858 148.966Z" fill="#263238"/>
<path d="M170.656 160.978C170.679 167.127 173.14 173.015 177.499 177.352C181.858 181.688 187.759 184.119 193.908 184.11C206.71 184.11 216.319 173.556 216.216 160.738C216.113 147.919 206.504 137.658 193.685 137.709C187.55 137.754 181.682 140.228 177.367 144.589C173.051 148.95 170.638 154.843 170.656 160.978Z" fill="#263238"/>
<path d="M164.736 179.356C162.643 181.175 160.944 176.491 159.193 174.654C157.443 172.818 151.694 170.347 148.897 176.37C146.1 182.394 151.403 191.128 155.761 192.81C157.077 193.308 158.522 193.349 159.864 192.925C161.206 192.502 162.366 191.639 163.157 190.476V217.932C169.764 229.841 181.416 229.464 187.645 228.794C193.874 228.125 195.229 221.656 190.682 216.439V207.859C194.143 208.402 197.653 208.569 201.15 208.357C206.847 207.464 209.73 203.209 211.446 196.98C214.191 187.044 215.307 170.364 211.446 151.094C205.062 146.152 182.926 146.975 169.524 155.47C170.57 172.75 166.727 177.555 164.736 179.356Z" fill="#FFA8A7"/>
<path d="M212.578 141.553C213.44 137.976 213.827 134.3 213.728 130.622C213.728 129.18 213.368 127.43 212.012 126.881C210.656 126.332 209.318 127.327 208.151 128.117C203.209 131.446 197.066 132.389 191.111 132.715C180.815 133.282 165.079 132.612 159.845 143.887C158.387 147.01 158.129 150.304 161.012 152.467C163.583 154.188 166.522 155.282 169.592 155.658C174.74 156.568 179.888 157.7 185.174 158.404C190.459 159.108 196.739 159.794 201.973 158.181C206.383 156.825 210.862 155.658 214.14 152.158C216.981 149.105 218.583 145.105 218.636 140.935C218.636 140.352 218.516 139.614 217.932 139.459C217.641 139.423 217.345 139.483 217.091 139.631L212.578 141.553Z" fill="#263238"/>
<path d="M190.631 208.048C190.631 208.048 177.898 205.525 173.471 203.174C170.848 201.816 168.695 199.699 167.293 197.1C167.945 199.696 169.112 202.136 170.725 204.273C174.003 208.425 190.596 211.428 190.596 211.428L190.631 208.048Z" fill="#F28F8F"/>
<path d="M188.074 175.358C188.057 175.921 187.875 176.466 187.55 176.926C187.225 177.386 186.771 177.74 186.246 177.944C185.722 178.147 185.148 178.192 184.598 178.072C184.048 177.952 183.545 177.672 183.153 177.269C182.761 176.865 182.496 176.354 182.393 175.801C182.289 175.247 182.35 174.675 182.57 174.157C182.789 173.638 183.156 173.195 183.625 172.884C184.094 172.573 184.645 172.407 185.208 172.407C185.979 172.42 186.713 172.738 187.25 173.291C187.787 173.844 188.083 174.587 188.074 175.358Z" fill="#263238"/>
<path d="M192.192 195.178C192.206 195.903 191.932 196.604 191.43 197.129C190.929 197.653 190.24 197.957 189.515 197.975C188.785 197.961 188.09 197.66 187.582 197.136C187.074 196.611 186.795 195.908 186.804 195.178C186.797 194.82 186.861 194.463 186.992 194.13C187.122 193.796 187.318 193.492 187.566 193.233C187.815 192.975 188.112 192.769 188.44 192.625C188.769 192.482 189.122 192.405 189.481 192.398C190.207 192.411 190.9 192.711 191.407 193.231C191.915 193.752 192.197 194.451 192.192 195.178Z" fill="#B16668"/>
<path d="M184.47 166.349L178.567 170.073C178.08 169.262 177.926 168.295 178.137 167.373C178.348 166.452 178.908 165.648 179.7 165.131C180.091 164.891 180.527 164.732 180.98 164.663C181.434 164.595 181.897 164.618 182.342 164.731C182.787 164.845 183.205 165.047 183.57 165.325C183.936 165.602 184.242 165.951 184.47 166.349Z" fill="#263238"/>
<path d="M205.302 162.711L211.514 165.491C211.347 165.899 211.098 166.268 210.784 166.577C210.469 166.886 210.095 167.128 209.685 167.289C209.274 167.449 208.835 167.525 208.395 167.511C207.954 167.497 207.521 167.393 207.121 167.207C206.31 166.821 205.673 166.146 205.336 165.313C205 164.481 204.987 163.552 205.302 162.711Z" fill="#263238"/>
<path d="M208.58 174.5C208.56 175.041 208.381 175.564 208.066 176.004C207.751 176.444 207.314 176.782 206.809 176.976C206.304 177.17 205.752 177.212 205.224 177.095C204.695 176.978 204.213 176.709 203.836 176.321C203.459 175.932 203.205 175.442 203.104 174.91C203.004 174.378 203.062 173.828 203.271 173.329C203.48 172.83 203.831 172.403 204.281 172.102C204.73 171.801 205.259 171.638 205.8 171.634C206.548 171.648 207.26 171.957 207.781 172.494C208.302 173.031 208.589 173.752 208.58 174.5Z" fill="#263238"/>
<path d="M194.543 169.661L195.573 188.743L204.616 186.34L194.543 169.661Z" fill="#F28F8F"/>
<path d="M34.3201 248.254C37.2887 249.85 49.3865 258.361 55.9588 259.099C58.7387 259.408 59.4938 258.962 59.3908 258.241C59.2535 257.246 57.486 255.753 57.057 254.946C56.3192 253.539 51.909 247.705 53.625 244.65C55.341 241.596 56.834 244.513 60.9181 248.511C65.0021 252.509 69.1892 253.899 72.7756 258.55C76.3621 263.2 77.5633 270.562 83.5006 275.898L107.147 292.046C107.147 292.046 118.164 240.926 123.003 234.903C128.151 228.571 150.236 242.368 145.603 262.497C140.969 282.625 130.416 317.563 123.072 324.41C118.335 328.854 108.365 324.667 95.9244 313.599C86.0918 304.847 72.6212 291.72 66.9241 287.07C61.2269 282.419 49.3865 279.914 43.9468 276.774C38.0953 273.342 36.8082 271.334 34.5603 266.787C32.4496 262.514 33.3934 255.667 32.1407 253.059C30.888 250.45 31.2999 246.658 34.3201 248.254Z" fill="#FFA8A7"/>
<path d="M141.261 221.518C148.846 226.255 149.224 233.153 149.601 241.047C149.708 250.286 148.246 259.478 145.277 268.228C142.068 278.164 136.971 296.302 136.971 296.302C136.971 296.302 117.169 296.765 106.976 287.962C106.976 287.962 111.626 268.4 114.904 253.642C118.181 238.884 122.162 223.183 141.261 221.518Z" fill="#E0E0E0"/>
<path d="M107.061 292.08C112.467 295.083 115.641 301.536 116.619 304.092C116.385 301.115 115.448 298.236 113.885 295.691C112.322 293.147 110.177 291.009 107.628 289.455L107.061 292.08Z" fill="#F28F8F"/>
<path d="M312.501 662.959L444.942 739.424V767.601L312.501 691.136V662.959Z" fill="#03045E"/>
<path opacity="0.35" d="M312.501 662.959L444.942 739.424V767.601L312.501 691.136V662.959Z" fill="black"/>
<path d="M577.383 662.959L444.942 739.424V767.601L577.383 691.136V662.959Z" fill="#03045E"/>
<path opacity="0.2" d="M577.383 662.959L444.942 739.424V767.601L577.383 691.136V662.959Z" fill="black"/>
<path d="M577.383 662.959L444.942 586.512L312.501 662.959L444.942 739.424L577.383 662.959Z" fill="#03045E"/>
<path opacity="0.15" d="M577.383 662.959L444.942 586.512L312.501 662.959L444.942 739.424L577.383 662.959Z" fill="black"/>
<path opacity="0.1" d="M444.942 739.424V731.376L326.435 662.959H312.501L444.942 739.424Z" fill="black"/>
<path opacity="0.1" d="M444.942 586.512V594.56L563.449 662.959H577.383L444.942 586.512Z" fill="black"/>
<path d="M577.383 662.959H563.449L444.942 731.376V739.424L577.383 662.959Z" fill="#03045E"/>
<path d="M444.942 586.512V594.56L326.435 662.959H312.501L444.942 586.512Z" fill="#03045E"/>
<path d="M445.423 629.772L502.325 662.616C506.581 665.087 506.581 669.068 502.325 671.522L459.888 696.095C457.498 697.317 454.851 697.954 452.166 697.954C449.482 697.954 446.835 697.317 444.444 696.095L387.542 663.251C383.286 660.78 383.286 656.799 387.542 654.345L429.996 629.772C432.384 628.553 435.028 627.918 437.709 627.918C440.391 627.918 443.034 628.553 445.423 629.772Z" fill="#37474F"/>
<path d="M459.888 696.095L500.918 672.397L445.422 640.36C443.027 639.153 440.382 638.524 437.7 638.524C435.018 638.524 432.373 639.153 429.978 640.36L388.949 664.092L444.444 696.095C446.835 697.317 449.481 697.954 452.166 697.954C454.851 697.954 457.497 697.317 459.888 696.095Z" fill="#455A64"/>
<path d="M411.051 663.011L435.95 648.648C436.414 648.416 436.925 648.294 437.443 648.294C437.962 648.294 438.473 648.416 438.936 648.648L441.991 650.364C442.814 650.827 442.814 651.599 441.991 652.08L417.091 666.443C416.631 666.675 416.123 666.796 415.607 666.796C415.091 666.796 414.583 666.675 414.123 666.443L411.068 664.727C410.89 664.666 410.735 664.552 410.624 664.399C410.514 664.246 410.454 664.063 410.452 663.875C410.45 663.687 410.506 663.502 410.614 663.348C410.721 663.193 410.874 663.075 411.051 663.011Z" fill="#263238"/>
<path d="M448.237 684.512L473.136 670.149C473.596 669.917 474.104 669.796 474.62 669.796C475.136 669.796 475.644 669.917 476.104 670.149L479.176 671.865C480 672.329 480 673.101 479.176 673.581L454.277 687.944C453.817 688.177 453.308 688.298 452.793 688.298C452.277 688.298 451.769 688.177 451.308 687.944L448.254 686.228C448.075 686.168 447.92 686.053 447.81 685.901C447.699 685.748 447.639 685.565 447.637 685.376C447.635 685.188 447.692 685.004 447.799 684.849C447.907 684.694 448.06 684.577 448.237 684.512Z" fill="#263238"/>
<path d="M387.405 718.609C387.265 716.005 386.511 713.47 385.204 711.213C383.898 708.955 382.077 707.039 379.888 705.619C379.132 705.067 378.24 704.727 377.308 704.637C376.375 704.546 375.435 704.708 374.586 705.104L371.343 706.992C370.579 707.53 369.973 708.263 369.587 709.113C369.201 709.964 369.049 710.902 369.146 711.831C369.289 714.435 370.041 716.97 371.344 719.229C372.647 721.489 374.463 723.41 376.645 724.838C377.405 725.391 378.3 725.73 379.235 725.82C380.17 725.911 381.113 725.75 381.965 725.353L385.191 723.414C385.95 722.878 386.554 722.152 386.942 721.309C387.331 720.465 387.49 719.534 387.405 718.609Z" fill="#03045E"/>
<path opacity="0.1" d="M376.645 707.558C378.833 708.978 380.655 710.894 381.961 713.152C383.267 715.41 384.021 717.944 384.161 720.548C384.161 725.336 380.729 727.275 376.645 724.89C374.462 723.462 372.646 721.54 371.344 719.281C370.041 717.021 369.288 714.487 369.146 711.883C369.146 707.112 372.509 705.173 376.645 707.558Z" fill="black"/>
<path d="M289.592 762.367C281.219 762.513 272.947 760.511 265.568 756.55L177.709 705.825C170.656 701.741 166.761 696.113 166.761 689.969C166.761 683.826 170.656 678.215 177.709 674.131L279.502 615.358C290.656 608.923 300.094 592.603 300.094 579.716V257.572C300.094 256.661 300.456 255.788 301.099 255.145C301.743 254.501 302.616 254.14 303.526 254.14C304.436 254.14 305.309 254.501 305.953 255.145C306.597 255.788 306.958 256.661 306.958 257.572V579.716C306.958 595.263 296.422 613.539 282.934 621.312L181.141 680.085C176.302 682.882 173.625 686.383 173.625 689.969C173.625 693.556 176.302 697.073 181.141 699.871L269 750.596C280.343 757.151 298.807 757.151 310.184 750.596L374.963 713.221C375.354 712.973 375.791 712.806 376.247 712.731C376.704 712.656 377.171 712.674 377.621 712.784C378.071 712.894 378.493 713.094 378.864 713.372C379.234 713.649 379.544 713.999 379.776 714.4C380.007 714.801 380.156 715.244 380.211 715.704C380.267 716.163 380.23 716.629 380.101 717.074C379.972 717.518 379.754 717.932 379.461 718.29C379.168 718.649 378.805 718.944 378.395 719.158L313.616 756.55C306.238 760.514 297.966 762.517 289.592 762.367Z" fill="#37474F"/>
<path d="M135.427 134.38C135.376 134.147 135.374 133.907 135.421 133.673C135.469 133.44 135.564 133.219 135.701 133.024C135.831 132.821 136.001 132.647 136.202 132.514C136.403 132.381 136.63 132.292 136.868 132.252L145.208 130.639C145.443 130.586 145.687 130.583 145.924 130.63C146.16 130.677 146.384 130.774 146.581 130.914C146.979 131.188 147.256 131.606 147.353 132.081L148.64 138.773C148.688 139.007 148.687 139.248 148.637 139.482C148.587 139.715 148.488 139.935 148.348 140.129C148.222 140.333 148.055 140.509 147.857 140.645C147.659 140.781 147.435 140.874 147.198 140.918L138.842 142.514C138.609 142.565 138.368 142.566 138.135 142.519C137.901 142.472 137.68 142.377 137.486 142.239C137.282 142.11 137.109 141.939 136.975 141.738C136.842 141.537 136.753 141.31 136.714 141.072L135.427 134.38ZM128.46 98.241C128.412 98.0054 128.412 97.7628 128.459 97.5271C128.506 97.2915 128.599 97.0674 128.733 96.868C128.867 96.6686 129.04 96.4976 129.24 96.3651C129.44 96.2326 129.665 96.1412 129.901 96.096L138.258 94.483C138.492 94.4346 138.733 94.4356 138.967 94.4858C139.2 94.536 139.421 94.6344 139.614 94.7747C139.815 94.9021 139.988 95.0702 140.121 95.2682C140.254 95.4661 140.344 95.6896 140.386 95.9244L145.86 124.53C145.908 124.764 145.907 125.005 145.857 125.239C145.807 125.472 145.709 125.693 145.568 125.886C145.441 126.087 145.273 126.26 145.075 126.393C144.877 126.526 144.653 126.616 144.419 126.658L136.062 128.271C135.828 128.319 135.586 128.318 135.353 128.268C135.12 128.218 134.899 128.12 134.706 127.979C134.504 127.852 134.332 127.684 134.199 127.486C134.066 127.288 133.976 127.064 133.934 126.83L128.46 98.241Z" fill="#03045E"/>
<path d="M121.493 162.385C121.332 162.207 121.209 162 121.129 161.774C121.049 161.548 121.014 161.309 121.027 161.07C121.04 160.83 121.1 160.596 121.203 160.38C121.307 160.164 121.452 159.971 121.63 159.811L127.962 154.131C128.139 153.968 128.348 153.845 128.576 153.768C128.803 153.691 129.044 153.663 129.284 153.685C129.521 153.69 129.756 153.745 129.971 153.845C130.187 153.945 130.379 154.09 130.536 154.268L135.084 159.416C135.244 159.594 135.368 159.802 135.448 160.028C135.528 160.253 135.562 160.493 135.55 160.732C135.537 160.971 135.477 161.205 135.373 161.421C135.27 161.637 135.125 161.831 134.946 161.99L128.7 167.602C128.523 167.764 128.314 167.888 128.087 167.965C127.859 168.042 127.618 168.07 127.379 168.048C127.141 168.043 126.907 167.988 126.691 167.888C126.475 167.787 126.283 167.643 126.126 167.464L121.493 162.385ZM96.9369 134.929C96.614 134.567 96.4475 134.092 96.4736 133.608C96.4809 133.369 96.5381 133.134 96.6415 132.918C96.7449 132.702 96.8923 132.51 97.0742 132.355L103.406 126.675C103.582 126.509 103.79 126.382 104.018 126.303C104.245 126.223 104.487 126.192 104.728 126.212C104.967 126.219 105.202 126.276 105.417 126.38C105.633 126.483 105.825 126.631 105.98 126.812L125.405 148.537C125.568 148.714 125.692 148.923 125.769 149.15C125.846 149.378 125.874 149.619 125.852 149.858C125.846 150.096 125.792 150.33 125.691 150.546C125.591 150.762 125.447 150.954 125.268 151.111L118.919 156.791C118.744 156.951 118.538 157.074 118.314 157.151C118.089 157.227 117.851 157.257 117.615 157.237C117.374 157.234 117.137 157.181 116.918 157.08C116.699 156.98 116.504 156.835 116.345 156.654L96.9369 134.929Z" fill="#03045E"/>
<g opacity="0.6">
<path d="M121.493 162.385C121.332 162.207 121.209 162 121.129 161.774C121.049 161.548 121.014 161.309 121.027 161.07C121.04 160.83 121.1 160.596 121.203 160.38C121.307 160.164 121.452 159.971 121.63 159.811L127.962 154.131C128.139 153.968 128.348 153.845 128.576 153.768C128.803 153.691 129.044 153.663 129.284 153.685C129.521 153.69 129.756 153.745 129.971 153.845C130.187 153.945 130.379 154.09 130.536 154.268L135.084 159.416C135.244 159.594 135.368 159.802 135.448 160.028C135.528 160.253 135.562 160.493 135.55 160.732C135.537 160.971 135.477 161.205 135.373 161.421C135.27 161.637 135.125 161.831 134.946 161.99L128.7 167.602C128.523 167.764 128.314 167.888 128.087 167.965C127.859 168.042 127.618 168.07 127.379 168.048C127.141 168.043 126.907 167.988 126.691 167.888C126.475 167.787 126.283 167.643 126.126 167.464L121.493 162.385ZM96.9369 134.929C96.614 134.567 96.4475 134.092 96.4736 133.608C96.4809 133.369 96.5381 133.134 96.6415 132.918C96.7449 132.702 96.8923 132.51 97.0742 132.355L103.406 126.675C103.582 126.509 103.79 126.382 104.018 126.303C104.245 126.223 104.487 126.192 104.728 126.212C104.967 126.219 105.202 126.276 105.417 126.38C105.633 126.483 105.825 126.631 105.98 126.812L125.405 148.537C125.568 148.714 125.692 148.923 125.769 149.15C125.846 149.378 125.874 149.619 125.852 149.858C125.846 150.096 125.792 150.33 125.691 150.546C125.591 150.762 125.447 150.954 125.268 151.111L118.919 156.791C118.744 156.951 118.538 157.074 118.314 157.151C118.089 157.227 117.851 157.257 117.615 157.237C117.374 157.234 117.137 157.181 116.918 157.08C116.699 156.98 116.504 156.835 116.345 156.654L96.9369 134.929Z" fill="white"/>
</g>
<path d="M284.856 82.368C287.795 82.1838 290.702 83.0674 293.041 84.8562C294.043 85.7682 294.825 86.8948 295.331 88.1517C295.836 89.4086 296.05 90.7634 295.958 92.1149C296.046 93.4735 295.829 94.8346 295.325 96.0991C294.82 97.3636 294.04 98.4998 293.041 99.425C290.717 101.251 287.807 102.167 284.856 101.999H277.992V111.694C277.996 111.851 277.967 112.006 277.908 112.151C277.849 112.295 277.761 112.426 277.649 112.535C277.541 112.644 277.413 112.731 277.272 112.79C277.13 112.849 276.978 112.879 276.825 112.878H273.307C273.151 112.881 272.996 112.852 272.851 112.793C272.707 112.734 272.575 112.647 272.465 112.537C272.354 112.426 272.267 112.295 272.209 112.15C272.15 112.006 272.121 111.851 272.123 111.694V83.5864C272.123 83.4317 272.154 83.2785 272.214 83.1358C272.273 82.9931 272.361 82.8637 272.471 82.7551C272.581 82.6465 272.712 82.561 272.855 82.5033C272.999 82.4457 273.153 82.4172 273.307 82.4195L284.856 82.368ZM277.992 96.5593H284.736C286.125 96.6312 287.504 96.2909 288.7 95.5812C289.224 95.1875 289.635 94.6636 289.894 94.0616C290.153 93.4595 290.25 92.8003 290.176 92.1492C290.259 91.4974 290.166 90.8352 289.907 90.2315C289.647 89.6278 289.23 89.1049 288.7 88.7172C287.492 88.0419 286.118 87.7207 284.736 87.7906H277.992V96.5593Z" fill="#455A64"/>
<path d="M299.888 95.8214C300.042 95.1276 300.314 94.4657 300.694 93.8652C301.144 93.1153 301.726 92.4526 302.41 91.909C303.263 91.2507 304.22 90.7403 305.242 90.3989C306.498 89.9857 307.815 89.7885 309.137 89.8154C310.493 89.7941 311.843 89.9911 313.135 90.3989C314.264 90.7584 315.309 91.342 316.207 92.1149C317.078 92.8977 317.754 93.8732 318.18 94.9634C318.666 96.2218 318.905 97.5617 318.884 98.9102V111.694C318.885 111.852 318.853 112.008 318.791 112.152C318.729 112.297 318.638 112.427 318.524 112.535C318.417 112.645 318.289 112.732 318.147 112.791C318.005 112.85 317.853 112.88 317.7 112.878H314.405C314.249 112.881 314.094 112.852 313.949 112.793C313.805 112.734 313.673 112.647 313.563 112.537C313.452 112.426 313.365 112.295 313.307 112.15C313.248 112.006 313.219 111.851 313.221 111.694V110.27C312.532 111.187 311.632 111.923 310.596 112.415C309.23 113.06 307.729 113.366 306.22 113.307C305.056 113.332 303.897 113.164 302.788 112.81C301.869 112.521 301.021 112.041 300.3 111.403C299.64 110.798 299.114 110.061 298.755 109.241C298.392 108.383 298.211 107.46 298.223 106.529C298.18 105.633 298.351 104.739 298.721 103.922C299.09 103.104 299.649 102.387 300.351 101.827C302.071 100.57 304.087 99.7778 306.203 99.528L313.29 98.3096C313.334 97.8238 313.249 97.3349 313.044 96.8921C312.839 96.4493 312.522 96.0682 312.123 95.7871C311.238 95.276 310.228 95.0206 309.206 95.0492C308.618 95.0194 308.031 95.1251 307.49 95.3581C307.062 95.5732 306.669 95.8508 306.323 96.1818C306.11 96.3791 305.866 96.5413 305.602 96.6623C305.373 96.7523 305.128 96.7989 304.881 96.7996H300.832C300.559 96.8094 300.294 96.7107 300.094 96.525C299.995 96.4405 299.923 96.3289 299.886 96.2039C299.849 96.079 299.85 95.946 299.888 95.8214ZM307.164 108.108C308.056 108.122 308.944 107.982 309.789 107.696C310.5 107.451 311.158 107.072 311.728 106.581C312.224 106.15 312.622 105.617 312.895 105.019C313.148 104.482 313.282 103.897 313.29 103.303V102.788L307.37 103.818C306.463 103.927 305.59 104.231 304.813 104.71C304.559 104.89 304.354 105.13 304.216 105.408C304.078 105.687 304.012 105.996 304.023 106.306C304.02 106.602 304.11 106.892 304.279 107.135C304.448 107.378 304.689 107.562 304.967 107.662C305.66 107.963 306.408 108.115 307.164 108.108Z" fill="#455A64"/>
<path d="M334.62 117.22C335.253 117.218 335.883 117.125 336.49 116.945C337.114 116.761 337.697 116.458 338.206 116.053C338.733 115.628 339.17 115.103 339.493 114.509C339.834 113.827 340.005 113.074 339.991 112.312V110.699C339.711 111.004 339.407 111.285 339.081 111.54C338.659 111.878 338.198 112.166 337.709 112.398C337.109 112.68 336.483 112.898 335.838 113.05C335.044 113.23 334.232 113.316 333.419 113.307C332.062 113.33 330.718 113.042 329.489 112.467C328.343 111.927 327.32 111.155 326.486 110.202C325.642 109.242 324.98 108.137 324.53 106.941C324.047 105.708 323.774 104.403 323.723 103.08C323.723 102.651 323.723 102.136 323.723 101.57C323.723 101.004 323.723 100.472 323.723 100.043C323.774 98.7198 324.047 97.4147 324.53 96.1818C324.984 94.9878 325.646 93.8839 326.486 92.9214C327.315 91.9694 328.332 91.1984 329.472 90.6563C330.701 90.0809 332.045 89.7933 333.401 89.8154C334.215 89.8069 335.027 89.8933 335.821 90.0728C336.465 90.2245 337.092 90.443 337.691 90.7249C338.181 90.9566 338.641 91.2445 339.064 91.5829C339.39 91.8376 339.694 92.1189 339.974 92.4238V91.4285C339.978 91.1187 340.102 90.8226 340.319 90.602C340.537 90.3814 340.831 90.2533 341.141 90.2444H344.452C344.762 90.2571 345.056 90.3859 345.276 90.6053C345.495 90.8247 345.624 91.1185 345.636 91.4285V111.832C345.737 113.29 345.525 114.752 345.016 116.122C344.507 117.492 343.713 118.738 342.685 119.777C340.434 121.66 337.55 122.617 334.62 122.454C333.224 122.464 331.836 122.262 330.501 121.853C329.331 121.515 328.224 120.987 327.224 120.292C326.346 119.702 325.589 118.951 324.993 118.078C324.467 117.322 324.153 116.439 324.084 115.521C324.069 115.368 324.091 115.213 324.148 115.07C324.205 114.927 324.294 114.799 324.41 114.697C324.635 114.479 324.936 114.356 325.25 114.354H328.219C328.412 114.35 328.604 114.384 328.784 114.455C328.963 114.526 329.127 114.632 329.266 114.766C329.558 115.041 329.798 115.298 330.004 115.521C330.412 116.047 330.942 116.465 331.548 116.739C332.525 117.121 333.573 117.285 334.62 117.22ZM329.472 100.352C329.386 101.162 329.386 101.978 329.472 102.788C329.484 104.318 330.101 105.78 331.188 106.855C332.199 107.691 333.48 108.13 334.791 108.091C336.103 108.129 337.382 107.676 338.378 106.821C338.889 106.365 339.305 105.811 339.599 105.192C339.894 104.573 340.062 103.902 340.094 103.217C340.157 102.648 340.186 102.075 340.18 101.501C340.185 100.928 340.156 100.355 340.094 99.7854C340.023 98.4472 339.433 97.1894 338.449 96.2794C337.465 95.3694 336.165 94.8788 334.826 94.912C333.514 94.8729 332.234 95.312 331.222 96.1475C330.661 96.6933 330.217 97.3474 329.916 98.07C329.615 98.7927 329.464 99.5689 329.472 100.352Z" fill="#455A64"/>
<path d="M350.527 101.57C350.519 100.006 350.775 98.451 351.282 96.9712C351.76 95.5876 352.513 94.3151 353.496 93.2303C354.447 92.1586 355.617 91.3042 356.928 90.7249C358.325 90.1307 359.828 89.8244 361.346 89.8244C362.865 89.8244 364.368 90.1307 365.765 90.7249C367.059 91.2795 368.226 92.091 369.197 93.1102C370.137 94.1393 370.871 95.3393 371.359 96.6451C371.862 98.0015 372.118 99.437 372.114 100.884V102.84C372.12 102.994 372.092 103.147 372.033 103.289C371.974 103.432 371.885 103.559 371.771 103.664C371.667 103.778 371.54 103.87 371.398 103.932C371.256 103.994 371.102 104.025 370.947 104.024H356.413C356.407 104.621 356.548 105.211 356.825 105.74C357.096 106.247 357.477 106.687 357.94 107.027C358.424 107.388 358.971 107.655 359.553 107.816C360.162 107.989 360.791 108.076 361.424 108.074C362.184 108.094 362.942 107.996 363.672 107.782C364.186 107.624 364.672 107.387 365.113 107.078C365.357 106.888 365.622 106.727 365.902 106.598C366.165 106.499 366.445 106.452 366.726 106.461H370.158C370.472 106.462 370.773 106.585 370.999 106.804C371.119 106.906 371.212 107.036 371.269 107.183C371.326 107.33 371.345 107.488 371.325 107.645C371.224 108.209 370.995 108.744 370.656 109.206C370.138 109.933 369.5 110.566 368.768 111.077C367.806 111.743 366.755 112.268 365.645 112.638C364.267 113.094 362.823 113.314 361.372 113.29C359.855 113.315 358.348 113.029 356.945 112.449C355.632 111.914 354.458 111.087 353.513 110.03C352.531 108.981 351.772 107.743 351.282 106.392C350.757 104.839 350.502 103.209 350.527 101.57ZM361.201 95.0321C360.462 95.0107 359.726 95.1391 359.038 95.4096C358.481 95.625 357.973 95.952 357.545 96.3706C357.147 96.7383 356.827 97.1817 356.602 97.6747C356.391 98.107 356.252 98.5706 356.19 99.0475H366.023C365.959 98.5804 365.85 98.1205 365.696 97.6747C365.534 97.1863 365.265 96.7406 364.907 96.3706C364.509 95.9491 364.023 95.6209 363.483 95.4096C362.755 95.1322 361.979 95.0039 361.201 95.0321Z" fill="#455A64"/>
<path d="M407.79 111.694C407.793 111.849 407.764 112.003 407.706 112.146C407.649 112.29 407.563 112.42 407.455 112.531C407.346 112.641 407.217 112.728 407.074 112.788C406.931 112.848 406.778 112.878 406.623 112.878H403.26C403.107 112.88 402.955 112.85 402.813 112.791C402.671 112.732 402.543 112.645 402.436 112.535C402.322 112.427 402.231 112.297 402.169 112.152C402.107 112.008 402.075 111.852 402.076 111.694V100.643C402.156 99.1554 401.726 97.6846 400.858 96.4735C400.404 95.9342 399.827 95.5111 399.176 95.2394C398.526 94.9678 397.82 94.8555 397.117 94.912C396.434 94.8787 395.753 95.0022 395.125 95.2728C394.498 95.5435 393.94 95.9542 393.496 96.4735C392.558 97.6549 392.083 99.137 392.158 100.643V111.694C392.161 111.851 392.133 112.006 392.074 112.151C392.015 112.295 391.926 112.426 391.814 112.535C391.707 112.644 391.579 112.731 391.437 112.79C391.296 112.849 391.144 112.879 390.991 112.878H387.816C387.663 112.879 387.511 112.849 387.37 112.79C387.228 112.731 387.1 112.644 386.992 112.535C386.88 112.426 386.792 112.295 386.733 112.151C386.674 112.006 386.645 111.851 386.649 111.694V91.4285C386.643 91.2745 386.671 91.1211 386.73 90.9789C386.79 90.8367 386.879 90.7091 386.992 90.6048C387.097 90.49 387.224 90.3986 387.366 90.3365C387.508 90.2744 387.661 90.243 387.816 90.2444H391.128C391.283 90.243 391.436 90.2744 391.578 90.3365C391.72 90.3986 391.848 90.49 391.952 90.6048C392.065 90.7091 392.155 90.8367 392.214 90.9789C392.273 91.1211 392.301 91.2745 392.295 91.4285V92.4238C393.072 91.658 393.971 91.026 394.955 90.5533C396.083 90.0337 397.316 89.7812 398.558 89.8154C400.082 89.7652 401.598 90.0463 403.003 90.6391C404.122 91.136 405.105 91.8953 405.868 92.8528C406.612 93.8091 407.139 94.9157 407.413 96.096C407.726 97.3706 407.882 98.6788 407.876 99.9913L407.79 111.694Z" fill="#455A64"/>
<path d="M423.543 89.8154C425.018 89.7915 426.484 90.0417 427.868 90.5533C429.105 91.0411 430.24 91.7571 431.214 92.664C432.154 93.5311 432.922 94.5672 433.479 95.7185C434.05 96.8883 434.382 98.1599 434.457 99.4594C434.478 99.7908 434.478 100.123 434.457 100.455V102.874C434.478 103.2 434.478 103.527 434.457 103.852C434.349 105.148 434.012 106.415 433.462 107.593C432.921 108.739 432.157 109.766 431.214 110.613C430.234 111.491 429.099 112.177 427.868 112.638C425.089 113.606 422.066 113.606 419.288 112.638C418.024 112.189 416.859 111.502 415.856 110.613C414.918 109.766 414.159 108.739 413.625 107.593C413.069 106.416 412.726 105.149 412.612 103.852C412.612 103.589 412.612 103.263 412.612 102.874C412.612 102.48 412.612 102.085 412.612 101.673C412.612 101.261 412.612 100.866 412.612 100.455C412.612 100.043 412.612 99.7168 412.612 99.4594C412.704 98.1625 413.035 96.894 413.59 95.7185C414.147 94.5672 414.916 93.5311 415.856 92.664C416.859 91.7704 418.024 91.0772 419.288 90.622C420.645 90.0952 422.087 89.8219 423.543 89.8154ZM428.811 99.5966C428.752 98.8179 428.536 98.0591 428.176 97.3658C427.872 96.8122 427.451 96.3319 426.941 95.9587C426.461 95.6051 425.911 95.3592 425.328 95.238C424.765 95.1061 424.19 95.037 423.612 95.0321C423.034 95.036 422.458 95.1051 421.896 95.238C421.313 95.3592 420.762 95.6051 420.283 95.9587C419.765 96.3224 419.341 96.8049 419.047 97.3658C418.68 98.056 418.463 98.8164 418.412 99.5966C418.412 99.8369 418.412 100.129 418.412 100.472C418.412 100.815 418.412 101.193 418.412 101.57C418.412 101.948 418.412 102.308 418.412 102.668C418.398 102.954 418.398 103.24 418.412 103.526C418.461 104.307 418.678 105.068 419.047 105.757C419.346 106.32 419.768 106.807 420.283 107.181C420.77 107.521 421.317 107.766 421.896 107.902C422.46 108.021 423.035 108.085 423.612 108.091C424.189 108.084 424.763 108.021 425.328 107.902C425.906 107.766 426.454 107.521 426.941 107.181C427.447 106.797 427.868 106.312 428.176 105.757C428.538 105.065 428.754 104.305 428.811 103.526C428.811 103.32 428.811 103.029 428.811 102.668V100.472C428.846 100.129 428.829 99.8369 428.811 99.528V99.5966Z" fill="#455A64"/>
<path d="M446.812 104.676C446.773 105.462 447.03 106.233 447.533 106.838C447.9 107.148 448.328 107.379 448.788 107.517C449.248 107.656 449.732 107.699 450.209 107.645H452.869C453.023 107.642 453.175 107.671 453.317 107.73C453.459 107.789 453.587 107.877 453.693 107.988C453.803 108.095 453.89 108.223 453.949 108.364C454.008 108.506 454.038 108.658 454.036 108.812V111.677C454.038 111.832 454.01 111.986 453.952 112.129C453.895 112.273 453.809 112.403 453.701 112.514C453.592 112.624 453.463 112.711 453.32 112.771C453.177 112.831 453.024 112.861 452.869 112.861H449.592C447.322 113.011 445.08 112.3 443.311 110.871C442.528 110.081 441.925 109.13 441.546 108.084C441.167 107.038 441.02 105.922 441.115 104.813V95.4782H438.232C437.922 95.4694 437.628 95.3413 437.41 95.1207C437.193 94.9001 437.069 94.6039 437.065 94.2942V91.4285C437.069 91.1187 437.193 90.8226 437.41 90.602C437.628 90.3814 437.922 90.2533 438.232 90.2444H441.115V83.1574C441.115 82.8479 441.238 82.5511 441.456 82.3323C441.675 82.1134 441.972 81.9905 442.282 81.9905H445.593C445.747 81.9879 445.899 82.0171 446.041 82.0761C446.183 82.1352 446.311 82.2229 446.417 82.3337C446.527 82.4406 446.614 82.5687 446.673 82.7103C446.732 82.8519 446.762 83.004 446.76 83.1574V90.2444H452.372C452.682 90.2571 452.976 90.3859 453.195 90.6053C453.414 90.8247 453.543 91.1185 453.556 91.4285V94.38C453.543 94.69 453.414 94.9838 453.195 95.2032C452.976 95.4226 452.682 95.5514 452.372 95.564H446.76L446.812 104.676Z" fill="#455A64"/>
<path d="M475.332 90.2444H481.372C481.529 90.2438 481.685 90.2754 481.83 90.3374C481.974 90.3994 482.105 90.4904 482.213 90.6048C482.323 90.7117 482.41 90.8398 482.469 90.9814C482.528 91.123 482.558 91.2751 482.556 91.4285V94.38C482.558 94.5334 482.528 94.6855 482.469 94.8271C482.41 94.9687 482.323 95.0968 482.213 95.2037C482.105 95.3181 481.974 95.4091 481.83 95.4711C481.685 95.5331 481.529 95.5647 481.372 95.564H475.332V111.78C475.334 111.935 475.305 112.088 475.248 112.232C475.19 112.376 475.105 112.506 474.996 112.616C474.887 112.727 474.758 112.814 474.615 112.874C474.473 112.934 474.319 112.964 474.165 112.964H470.853C470.7 112.966 470.547 112.936 470.406 112.877C470.264 112.818 470.136 112.731 470.029 112.621C469.915 112.513 469.824 112.383 469.762 112.238C469.7 112.093 469.668 111.938 469.669 111.78V95.4782H466.752C466.597 95.4808 466.443 95.4499 466.301 95.3877C466.158 95.3256 466.031 95.2335 465.928 95.1179C465.814 95.0136 465.725 94.886 465.666 94.7438C465.607 94.6015 465.579 94.4482 465.585 94.2942V91.4285C465.579 91.2745 465.607 91.1211 465.666 90.9789C465.725 90.8367 465.814 90.7091 465.928 90.6048C466.031 90.4891 466.158 90.3971 466.301 90.3349C466.443 90.2727 466.597 90.2419 466.752 90.2444H469.617V88.2882C469.584 87.0803 469.794 85.8781 470.235 84.7532C470.595 83.8251 471.186 83.0042 471.951 82.368C472.758 81.7452 473.688 81.3007 474.68 81.0638C475.839 80.7973 477.025 80.6706 478.214 80.6863H481.749C481.903 80.6837 482.055 80.7129 482.197 80.772C482.339 80.831 482.467 80.9187 482.573 81.0295C482.683 81.1364 482.77 81.2645 482.829 81.4061C482.888 81.5477 482.918 81.6998 482.916 81.8532V84.7189C482.919 84.8736 482.89 85.0272 482.832 85.1707C482.775 85.3143 482.689 85.445 482.581 85.5551C482.472 85.6653 482.343 85.7528 482.2 85.8125C482.057 85.8722 481.904 85.903 481.749 85.903H478.764C477.883 85.8417 477.005 86.0449 476.241 86.4864C475.919 86.7582 475.67 87.1063 475.517 87.499C475.364 87.8917 475.312 88.3164 475.366 88.7344L475.332 90.2444Z" fill="#455A64"/>
<path d="M495.924 89.8154C497.399 89.7915 498.865 90.0417 500.248 90.5533C501.462 91.0487 502.573 91.7643 503.526 92.664C504.466 93.5311 505.234 94.5672 505.791 95.7185C506.362 96.8883 506.694 98.1599 506.769 99.4594C506.791 99.7908 506.791 100.123 506.769 100.455V102.874C506.79 103.2 506.79 103.527 506.769 103.852C506.662 105.148 506.325 106.415 505.774 107.593C505.233 108.739 504.469 109.766 503.526 110.613C502.546 111.491 501.411 112.177 500.18 112.638C498.81 113.101 497.368 113.31 495.924 113.256C494.444 113.28 492.972 113.03 491.583 112.518C490.351 112.057 489.216 111.37 488.236 110.493C487.299 109.645 486.54 108.619 486.006 107.473C485.442 106.299 485.098 105.031 484.993 103.732C484.993 103.475 484.993 103.149 484.993 102.754C484.993 102.359 484.993 101.965 484.993 101.553C484.993 101.141 484.993 100.746 484.993 100.335C484.993 99.9227 484.993 99.5966 484.993 99.3392C485.068 98.0398 485.4 96.7681 485.971 95.5984C486.52 94.4956 487.264 93.5014 488.168 92.664C489.147 91.7816 490.282 91.0891 491.514 90.622C492.92 90.0787 494.416 89.8051 495.924 89.8154ZM501.072 99.528C501.018 98.7504 500.808 97.9917 500.454 97.2972C500.15 96.7387 499.721 96.2574 499.202 95.8901C498.728 95.5368 498.184 95.2909 497.606 95.1694C497.043 95.0374 496.468 94.9684 495.89 94.9634C495.312 94.9665 494.736 95.0356 494.174 95.1694C493.59 95.2906 493.04 95.5365 492.561 95.8901C492.042 96.2537 491.619 96.7362 491.325 97.2972C490.958 97.9873 490.741 98.7478 490.69 99.528C490.69 99.7682 490.69 100.06 490.69 100.403C490.69 100.746 490.69 101.124 490.69 101.501C490.69 101.879 490.69 102.239 490.69 102.6C490.675 102.885 490.675 103.172 490.69 103.458C490.739 104.238 490.956 104.999 491.325 105.688C491.623 106.251 492.046 106.738 492.561 107.113C493.048 107.453 493.595 107.697 494.174 107.833C494.738 107.954 495.313 108.017 495.89 108.022C496.467 108.015 497.041 107.952 497.606 107.833C498.179 107.697 498.72 107.452 499.202 107.113C499.718 106.734 500.145 106.248 500.454 105.688C500.81 104.995 501.02 104.236 501.072 103.458C501.094 103.172 501.094 102.885 501.072 102.6V100.472C501.096 100.158 501.096 99.8422 501.072 99.528Z" fill="#455A64"/>
<path d="M511.556 91.4285C511.561 91.1187 511.685 90.8226 511.902 90.602C512.119 90.3814 512.414 90.2533 512.723 90.2444H516.035C516.345 90.2571 516.639 90.3859 516.858 90.6053C517.078 90.8246 517.207 91.1185 517.219 91.4285V102.48C517.145 103.95 517.528 105.407 518.318 106.649C518.744 107.195 519.3 107.625 519.936 107.901C520.571 108.177 521.266 108.289 521.955 108.228C522.625 108.266 523.295 108.143 523.907 107.868C524.519 107.593 525.056 107.175 525.473 106.649C526.342 105.438 526.771 103.968 526.692 102.48V91.4285C526.704 91.1185 526.833 90.8246 527.052 90.6053C527.272 90.3859 527.566 90.2571 527.876 90.2444H531.17C531.328 90.2438 531.484 90.2754 531.628 90.3374C531.773 90.3994 531.903 90.4904 532.011 90.6048C532.121 90.7117 532.208 90.8398 532.267 90.9814C532.326 91.123 532.356 91.2751 532.354 91.4285V111.694C532.357 111.851 532.328 112.006 532.269 112.15C532.21 112.295 532.123 112.426 532.013 112.537C531.902 112.647 531.771 112.734 531.626 112.793C531.482 112.852 531.327 112.881 531.17 112.878H527.876C527.722 112.88 527.57 112.85 527.429 112.791C527.287 112.732 527.159 112.645 527.052 112.535C526.938 112.427 526.847 112.297 526.785 112.152C526.723 112.008 526.691 111.852 526.692 111.694V110.699C525.953 111.385 525.121 111.963 524.221 112.415C523.119 112.984 521.89 113.262 520.651 113.222C519.144 113.272 517.645 112.991 516.258 112.398C515.161 111.904 514.205 111.143 513.478 110.184C512.759 109.22 512.25 108.115 511.985 106.941C511.692 105.664 511.548 104.356 511.556 103.046V91.4285Z" fill="#455A64"/>
<path d="M559.588 111.694C559.59 111.849 559.561 112.003 559.504 112.146C559.446 112.29 559.36 112.42 559.252 112.531C559.143 112.641 559.014 112.728 558.871 112.788C558.728 112.848 558.575 112.878 558.421 112.878H555.109C554.955 112.88 554.803 112.85 554.662 112.791C554.52 112.732 554.392 112.645 554.285 112.535C554.171 112.427 554.08 112.297 554.018 112.152C553.956 112.008 553.924 111.852 553.925 111.694V100.643C554.004 99.1554 553.575 97.6846 552.706 96.4735C552.252 95.9342 551.676 95.5111 551.025 95.2394C550.374 94.9678 549.668 94.8555 548.965 94.912C548.283 94.8787 547.602 95.0022 546.974 95.2728C546.346 95.5435 545.789 95.9542 545.345 96.4735C544.407 97.6549 543.931 99.137 544.006 100.643V111.694C544.01 111.851 543.982 112.006 543.923 112.151C543.864 112.295 543.775 112.426 543.663 112.535C543.556 112.644 543.427 112.731 543.286 112.79C543.144 112.849 542.993 112.879 542.839 112.878H539.527C539.374 112.879 539.222 112.849 539.081 112.79C538.94 112.731 538.811 112.644 538.704 112.535C538.592 112.426 538.503 112.295 538.444 112.151C538.385 112.006 538.357 111.851 538.361 111.694V91.4285C538.355 91.2745 538.382 91.1211 538.442 90.9789C538.501 90.8367 538.59 90.7091 538.704 90.6048C538.808 90.49 538.935 90.3986 539.077 90.3365C539.219 90.2744 539.373 90.243 539.527 90.2444H542.839C542.994 90.243 543.148 90.2744 543.29 90.3365C543.432 90.3986 543.559 90.49 543.663 90.6048C543.776 90.7091 543.866 90.8367 543.925 90.9789C543.984 91.1211 544.012 91.2745 544.006 91.4285V92.4238C544.784 91.658 545.682 91.026 546.666 90.5533C547.795 90.0337 549.028 89.7812 550.27 89.8154C551.793 89.7652 553.31 90.0463 554.714 90.6391C555.833 91.136 556.816 91.8953 557.58 92.8528C558.324 93.8091 558.851 94.9157 559.124 96.096C559.437 97.3706 559.593 98.6788 559.588 99.9913V111.694Z" fill="#455A64"/>
<path d="M574.071 89.8154C574.885 89.8053 575.697 89.8917 576.49 90.0728C577.135 90.2245 577.762 90.443 578.361 90.7249C578.85 90.9566 579.311 91.2445 579.734 91.5829C580.063 91.8331 580.368 92.1147 580.643 92.4238V83.1574C580.643 83.0027 580.674 82.8495 580.733 82.7068C580.793 82.5641 580.881 82.4347 580.991 82.3261C581.101 82.2175 581.232 82.132 581.375 82.0743C581.519 82.0167 581.672 81.9882 581.827 81.9905H585.156C585.31 81.9846 585.463 82.0123 585.606 82.0716C585.748 82.1308 585.876 82.2202 585.98 82.3337C586.095 82.4371 586.187 82.5642 586.25 82.7063C586.312 82.8484 586.343 83.0023 586.34 83.1574V111.694C586.341 111.852 586.309 112.008 586.247 112.152C586.185 112.297 586.094 112.427 585.98 112.535C585.873 112.645 585.745 112.732 585.603 112.791C585.462 112.85 585.309 112.88 585.156 112.878H581.861C581.705 112.881 581.55 112.852 581.406 112.793C581.261 112.734 581.129 112.647 581.019 112.537C580.909 112.426 580.821 112.295 580.763 112.15C580.704 112.006 580.675 111.851 580.677 111.694V110.699C580.402 111.008 580.097 111.29 579.768 111.54C579.345 111.878 578.884 112.166 578.395 112.398C577.796 112.68 577.169 112.898 576.525 113.05C575.731 113.231 574.919 113.318 574.105 113.307C572.748 113.33 571.404 113.042 570.175 112.467C569.029 111.927 568.007 111.155 567.172 110.202C566.335 109.237 565.673 108.134 565.216 106.941C564.733 105.708 564.461 104.403 564.41 103.08C564.41 102.651 564.41 102.136 564.41 101.57C564.41 101.004 564.41 100.472 564.41 100.043C564.461 98.7198 564.733 97.4147 565.216 96.1818C565.677 94.9909 566.338 93.888 567.172 92.9214C568.007 91.9676 569.029 91.1964 570.175 90.6563C571.394 90.0859 572.726 89.7985 574.071 89.8154ZM570.021 100.352C569.935 101.162 569.935 101.978 570.021 102.788C570.04 104.316 570.656 105.776 571.737 106.855C572.75 107.688 574.03 108.127 575.341 108.091C576.657 108.127 577.941 107.675 578.944 106.821C579.456 106.365 579.871 105.811 580.166 105.192C580.46 104.573 580.628 103.902 580.66 103.217C580.723 102.648 580.752 102.075 580.746 101.501C580.751 100.928 580.722 100.355 580.66 99.7854C580.589 98.4472 579.999 97.1894 579.015 96.2794C578.032 95.3694 576.732 94.8788 575.392 94.912C574.081 94.876 572.801 95.3147 571.788 96.1475C571.227 96.6943 570.782 97.3481 570.478 98.0703C570.175 98.7925 570.019 99.5683 570.021 100.352Z" fill="#455A64"/>
<path d="M337.091 155.744C337.233 155.743 337.373 155.771 337.503 155.827C337.633 155.883 337.75 155.966 337.846 156.07C337.946 156.168 338.025 156.286 338.078 156.416C338.131 156.546 338.157 156.685 338.155 156.825V161.047C338.157 161.187 338.131 161.326 338.078 161.456C338.025 161.586 337.946 161.703 337.846 161.802C337.75 161.906 337.633 161.989 337.503 162.045C337.373 162.101 337.233 162.129 337.091 162.128H318.215C318.073 162.13 317.932 162.103 317.802 162.046C317.672 161.99 317.555 161.907 317.46 161.802C317.357 161.704 317.276 161.587 317.22 161.457C317.164 161.328 317.134 161.188 317.134 161.047V135.307C317.134 135.165 317.164 135.025 317.22 134.896C317.276 134.766 317.357 134.649 317.46 134.552C317.555 134.447 317.672 134.363 317.802 134.307C317.932 134.251 318.073 134.223 318.215 134.226H336.799C337.083 134.234 337.353 134.351 337.554 134.552C337.755 134.753 337.872 135.023 337.88 135.307V139.511C337.882 139.655 337.854 139.798 337.798 139.931C337.742 140.064 337.659 140.184 337.554 140.283C337.456 140.383 337.338 140.462 337.209 140.515C337.079 140.569 336.939 140.595 336.799 140.592H324.513V144.899H335.924C336.066 144.896 336.207 144.924 336.337 144.98C336.467 145.037 336.584 145.12 336.679 145.225C336.782 145.322 336.863 145.439 336.919 145.569C336.975 145.699 337.005 145.839 337.005 145.98V150.201C337.005 150.343 336.975 150.483 336.919 150.612C336.863 150.742 336.782 150.859 336.679 150.957C336.584 151.062 336.467 151.145 336.337 151.201C336.207 151.257 336.066 151.285 335.924 151.283H324.513V155.744H337.091Z" fill="#03045E"/>
<path d="M354.629 134.208C356.214 134.187 357.795 134.378 359.331 134.775C360.608 135.114 361.808 135.697 362.865 136.491C363.836 137.245 364.603 138.23 365.096 139.356C365.635 140.631 365.898 142.005 365.868 143.389C365.936 145.131 365.507 146.857 364.633 148.365C363.809 149.682 362.615 150.726 361.201 151.368L366.143 160.858C366.219 160.995 366.26 161.148 366.263 161.304C366.263 161.536 366.171 161.759 366.007 161.923C365.843 162.087 365.62 162.179 365.388 162.179H359.965C359.762 162.2 359.557 162.179 359.362 162.117C359.167 162.055 358.987 161.953 358.833 161.819C358.619 161.604 358.434 161.362 358.284 161.098L353.856 152.518H350.064V161.098C350.067 161.238 350.041 161.378 349.988 161.508C349.935 161.637 349.855 161.755 349.755 161.853C349.659 161.957 349.542 162.04 349.412 162.096C349.282 162.152 349.142 162.181 349 162.179H343.852C343.711 162.181 343.57 162.152 343.44 162.096C343.31 162.04 343.193 161.957 343.097 161.853C342.997 161.755 342.918 161.637 342.865 161.508C342.812 161.378 342.786 161.238 342.788 161.098V135.358C342.786 135.218 342.812 135.079 342.865 134.949C342.918 134.819 342.997 134.701 343.097 134.603C343.193 134.499 343.31 134.416 343.44 134.36C343.57 134.304 343.711 134.276 343.852 134.277L354.629 134.208ZM350.116 146.22H354.629C355.595 146.259 356.555 146.04 357.409 145.585C357.784 145.336 358.084 144.988 358.275 144.579C358.465 144.17 358.54 143.717 358.49 143.269C358.54 142.823 358.466 142.372 358.275 141.966C358.084 141.56 357.784 141.215 357.409 140.969C356.555 140.515 355.595 140.296 354.629 140.334H350.064L350.116 146.22Z" fill="#03045E"/>
<path d="M382.342 134.208C383.927 134.187 385.509 134.378 387.044 134.775C388.321 135.114 389.521 135.697 390.579 136.491C391.554 137.24 392.322 138.227 392.81 139.356C393.348 140.631 393.611 142.005 393.582 143.389C393.649 145.131 393.221 146.857 392.346 148.365C391.522 149.682 390.328 150.726 388.914 151.368L393.856 160.858C393.932 160.995 393.973 161.148 393.976 161.304C393.976 161.536 393.884 161.759 393.72 161.923C393.556 162.087 393.333 162.179 393.101 162.179H387.679C387.475 162.2 387.27 162.179 387.075 162.117C386.88 162.055 386.7 161.953 386.546 161.819C386.332 161.604 386.147 161.362 385.997 161.098L381.57 152.518H377.915V161.098C377.914 161.239 377.885 161.379 377.829 161.509C377.773 161.639 377.691 161.756 377.589 161.853C377.493 161.957 377.376 162.04 377.246 162.096C377.116 162.152 376.975 162.181 376.834 162.179H371.6C371.458 162.181 371.318 162.152 371.188 162.096C371.058 162.04 370.941 161.957 370.845 161.853C370.745 161.755 370.665 161.637 370.612 161.508C370.559 161.378 370.533 161.238 370.536 161.098V135.358C370.533 135.218 370.559 135.079 370.612 134.949C370.665 134.819 370.745 134.701 370.845 134.603C370.941 134.499 371.058 134.416 371.188 134.36C371.318 134.304 371.458 134.276 371.6 134.277L382.342 134.208ZM377.846 146.22H382.342C383.308 146.259 384.268 146.04 385.122 145.585C385.498 145.336 385.797 144.988 385.988 144.579C386.179 144.17 386.253 143.717 386.203 143.269C386.254 142.823 386.179 142.372 385.989 141.966C385.798 141.56 385.498 141.215 385.122 140.969C384.268 140.515 383.308 140.296 382.342 140.334H377.846V146.22Z" fill="#03045E"/>
<path d="M397.254 144.624C397.329 143.176 397.66 141.753 398.232 140.42C398.79 139.116 399.621 137.945 400.669 136.988C401.778 135.97 403.079 135.183 404.495 134.672C407.861 133.528 411.511 133.528 414.877 134.672C416.292 135.187 417.592 135.974 418.704 136.988C419.746 137.946 420.572 139.116 421.123 140.42C421.712 141.747 422.043 143.174 422.102 144.624C422.102 145.757 422.187 146.958 422.187 148.211C422.187 149.464 422.187 150.63 422.102 151.643C422.042 153.099 421.71 154.53 421.123 155.864C420.557 157.16 419.734 158.327 418.704 159.296C417.585 160.315 416.272 161.097 414.843 161.596C411.473 162.717 407.831 162.717 404.461 161.596C403.043 161.097 401.741 160.315 400.634 159.296C399.599 158.328 398.77 157.161 398.198 155.864C397.627 154.525 397.296 153.096 397.22 151.643C397.22 150.562 397.22 149.395 397.22 148.211C397.22 147.027 397.202 145.757 397.254 144.624ZM414.757 151.488C414.757 151.008 414.757 150.476 414.843 149.893C414.929 149.309 414.843 148.709 414.843 148.091C414.843 147.473 414.843 146.89 414.843 146.375C414.843 145.86 414.843 145.294 414.757 144.83C414.713 144.207 414.575 143.593 414.345 143.011C414.13 142.464 413.802 141.967 413.384 141.553C412.947 141.126 412.427 140.794 411.857 140.575C411.165 140.322 410.432 140.2 409.695 140.214C408.964 140.198 408.236 140.32 407.55 140.575C406.972 140.789 406.446 141.123 406.005 141.553C405.593 141.972 405.266 142.467 405.044 143.011C404.815 143.593 404.676 144.207 404.633 144.83C404.633 145.288 404.598 145.803 404.53 146.375C404.53 146.941 404.53 147.542 404.53 148.091C404.53 148.64 404.53 149.309 404.53 149.893C404.53 150.476 404.53 151.008 404.633 151.488C404.697 152.717 405.182 153.886 406.005 154.8C406.494 155.265 407.075 155.622 407.711 155.847C408.347 156.071 409.023 156.159 409.695 156.105C410.365 156.161 411.039 156.074 411.672 155.849C412.305 155.624 412.883 155.267 413.367 154.8C414.175 153.888 414.663 152.738 414.757 151.523V151.488Z" fill="#03045E"/>
<path d="M438.695 134.208C440.281 134.188 441.862 134.379 443.397 134.775C444.67 135.113 445.865 135.696 446.915 136.491C447.891 137.244 448.664 138.229 449.163 139.356C449.701 140.631 449.965 142.005 449.935 143.389C450.003 145.131 449.574 146.857 448.7 148.365C447.855 149.697 446.629 150.743 445.182 151.368L450.124 160.858C450.204 160.994 450.251 161.147 450.261 161.304C450.26 161.42 450.235 161.535 450.187 161.641C450.14 161.747 450.072 161.843 449.987 161.922C449.907 162.005 449.811 162.07 449.705 162.115C449.598 162.159 449.484 162.181 449.369 162.179H443.946C443.743 162.2 443.538 162.179 443.343 162.117C443.148 162.055 442.968 161.953 442.814 161.819C442.604 161.604 442.425 161.362 442.282 161.098L437.855 152.518H434.148V161.098C434.139 161.382 434.023 161.652 433.822 161.853C433.621 162.054 433.351 162.171 433.067 162.179H427.919C427.635 162.171 427.365 162.054 427.164 161.853C426.963 161.652 426.847 161.382 426.838 161.098V135.358C426.847 135.074 426.963 134.804 427.164 134.603C427.365 134.402 427.635 134.286 427.919 134.277L438.695 134.208ZM434.182 146.22H438.695C439.657 146.259 440.61 146.04 441.458 145.585C441.84 145.341 442.145 144.994 442.339 144.585C442.534 144.175 442.609 143.719 442.556 143.269C442.607 142.821 442.532 142.368 442.337 141.962C442.143 141.555 441.838 141.211 441.458 140.969C440.61 140.515 439.657 140.296 438.695 140.334H434.148L434.182 146.22Z" fill="#03045E"/>
<path d="M476.139 162.128C475.994 162.129 475.851 162.101 475.718 162.045C475.585 161.989 475.466 161.906 475.366 161.802C475.266 161.703 475.187 161.586 475.134 161.456C475.081 161.326 475.055 161.187 475.057 161.047V156.98H462.496C462.356 156.982 462.217 156.956 462.087 156.903C461.957 156.85 461.839 156.771 461.741 156.671C461.637 156.572 461.554 156.452 461.498 156.319C461.441 156.186 461.413 156.043 461.415 155.899V151.677C461.394 151.064 461.575 150.461 461.93 149.961L473.856 134.929C474.035 134.696 474.257 134.498 474.508 134.346C474.771 134.247 475.051 134.2 475.332 134.208H481.355C481.497 134.206 481.638 134.234 481.768 134.29C481.898 134.346 482.015 134.429 482.11 134.534C482.213 134.632 482.294 134.749 482.35 134.879C482.406 135.008 482.436 135.148 482.436 135.289V150.596H485.868C486.153 150.601 486.424 150.718 486.623 150.922C486.723 151.02 486.803 151.138 486.856 151.268C486.909 151.398 486.935 151.537 486.932 151.677V155.899C486.934 156.187 486.823 156.464 486.623 156.671C486.524 156.769 486.406 156.847 486.277 156.9C486.147 156.954 486.008 156.98 485.868 156.98H482.436V161.047C482.436 161.188 482.406 161.328 482.35 161.457C482.294 161.587 482.213 161.704 482.11 161.802C482.015 161.907 481.898 161.99 481.768 162.046C481.638 162.103 481.497 162.13 481.355 162.128H476.139ZM475.332 150.596V143.269L469.515 150.596H475.332Z" fill="#03045E"/>
<path d="M501.93 133.848C503.686 133.808 505.434 134.105 507.078 134.723C508.419 135.249 509.635 136.049 510.647 137.074C511.585 138.057 512.304 139.226 512.758 140.506C513.224 141.839 513.501 143.231 513.582 144.642C513.582 145.774 513.582 146.975 513.582 148.228C513.582 149.481 513.582 150.648 513.582 151.66C513.501 153.07 513.224 154.462 512.758 155.796C512.312 157.079 511.591 158.25 510.647 159.228C509.635 160.252 508.419 161.053 507.078 161.579C503.745 162.745 500.115 162.745 496.782 161.579C495.441 161.053 494.225 160.252 493.213 159.228C492.269 158.25 491.548 157.079 491.102 155.796C490.636 154.462 490.359 153.07 490.278 151.66C490.278 150.579 490.278 149.412 490.278 148.228C490.278 147.044 490.278 145.774 490.278 144.642C490.359 143.231 490.636 141.839 491.102 140.506C491.556 139.226 492.275 138.057 493.213 137.074C494.225 136.049 495.441 135.249 496.782 134.723C498.426 134.105 500.174 133.808 501.93 133.848ZM506.22 151.523C506.323 149.258 506.323 147.027 506.22 144.813C506.176 144.198 506.072 143.589 505.911 142.994C505.785 142.466 505.551 141.97 505.225 141.536C504.88 141.112 504.438 140.776 503.938 140.558C503.307 140.298 502.629 140.175 501.947 140.197C501.266 140.176 500.587 140.299 499.957 140.558C499.456 140.776 499.015 141.112 498.67 141.536C498.344 141.973 498.105 142.468 497.966 142.994C497.794 143.586 497.696 144.197 497.674 144.813C497.554 147.048 497.554 149.288 497.674 151.523C497.702 152.142 497.788 152.756 497.932 153.359C498.073 153.888 498.318 154.384 498.652 154.818C499.004 155.237 499.451 155.567 499.957 155.778C500.587 156.037 501.266 156.16 501.947 156.139C502.629 156.161 503.307 156.038 503.938 155.778C504.443 155.567 504.89 155.237 505.242 154.818C505.576 154.384 505.821 153.888 505.963 153.359C506.106 152.756 506.192 152.142 506.22 151.523Z" fill="#03045E"/>
<path d="M531.599 162.128C531.315 162.119 531.045 162.002 530.844 161.801C530.644 161.601 530.527 161.331 530.518 161.047V156.98H517.957C517.817 156.982 517.678 156.956 517.548 156.903C517.418 156.85 517.3 156.771 517.202 156.671C516.997 156.466 516.88 156.189 516.876 155.899V151.677C516.852 151.061 517.04 150.456 517.408 149.961L529.317 134.929C529.498 134.691 529.726 134.492 529.986 134.346C530.243 134.245 530.517 134.198 530.793 134.208H536.816C537.1 134.217 537.37 134.334 537.571 134.535C537.772 134.735 537.888 135.005 537.897 135.289V150.596H541.329C541.613 150.605 541.883 150.721 542.084 150.922C542.285 151.123 542.402 151.393 542.41 151.677V155.899C542.406 156.189 542.289 156.466 542.084 156.671C541.986 156.771 541.868 156.85 541.739 156.903C541.609 156.956 541.469 156.982 541.329 156.98H537.897V161.047C537.888 161.331 537.772 161.601 537.571 161.801C537.37 162.002 537.1 162.119 536.816 162.128H531.599ZM530.724 150.596V143.269L524.907 150.596H530.724Z" fill="#03045E"/>
</svg>
